<svg width="35" height="51" viewBox="0 0 35 51" fill="none" xmlns="http://www.w3.org/2000/svg">
<path d="M17.2151 50.0965L7.94727 40.8285L9.10179 39.6741L17.2151 47.7874L25.3286 39.6741L26.4831 40.8285L17.2151 50.0965Z" fill="#353331"/>
<path d="M31.3054 27.1045L29.9704 26.1646C34.3372 19.9626 33.607 11.5616 28.2343 6.18885C22.1584 0.112877 12.2723 0.112959 6.19647 6.18877C0.847267 11.538 0.100903 19.916 4.42186 26.1096L3.08293 27.0437C0.799676 23.7709 -0.274034 19.7664 0.0596787 15.7678C0.39731 11.7216 2.16677 7.90958 5.04211 5.03433C11.7546 -1.67814 22.6765 -1.67805 29.3889 5.03424C32.2733 7.91872 34.0438 11.7433 34.3741 15.8033C34.7007 19.8166 33.6109 23.8301 31.3054 27.1045Z" fill="#353331"/>
<path d="M16.3604 14.5718H17.8183V49.0776H16.3604V14.5718Z" fill="#353331"/>
</svg>
