<svg width="106" height="25" viewBox="0 0 106 25" fill="none" xmlns="http://www.w3.org/2000/svg">
<path d="M6.36312 19.3065C5.44377 19.3065 4.66958 19.2097 4.04054 19.0162C3.41151 18.8387 2.88732 18.6613 2.46796 18.4839C2.06474 18.3065 1.72603 18.2178 1.45183 18.2178C1.22603 18.2178 1.04861 18.3065 0.919575 18.4839C0.790543 18.6452 0.693769 18.8952 0.629253 19.2339H0.000220448C0.0324786 18.8629 0.0566721 18.4194 0.0728011 17.9033C0.0889302 17.3871 0.0969947 16.7258 0.0969947 15.9194C0.113124 15.0968 0.121188 14.0726 0.121188 12.8468H0.75022C0.879253 14.6533 1.40345 16.0726 2.3228 17.1049C3.25828 18.1371 4.47603 18.6533 5.97603 18.6533C7.0728 18.6533 7.95183 18.3549 8.61312 17.7581C9.27441 17.1613 9.60506 16.3549 9.60506 15.3387C9.60506 14.7258 9.4599 14.1855 9.16958 13.7178C8.89538 13.25 8.45183 12.8307 7.83893 12.4597C7.22603 12.0726 6.41958 11.7097 5.41958 11.371C4.24216 11 3.27441 10.5645 2.51635 10.0645C1.77441 9.54842 1.21796 8.96777 0.846995 8.32261C0.492156 7.66132 0.314737 6.91939 0.314737 6.09681C0.314737 4.67745 0.782479 3.55648 1.71796 2.7339C2.65345 1.91132 3.91151 1.50003 5.49216 1.50003C6.33087 1.50003 7.02441 1.58874 7.5728 1.76616C8.12119 1.94358 8.58087 2.121 8.95183 2.29842C9.3228 2.47584 9.64538 2.56455 9.91958 2.56455C10.1454 2.56455 10.3228 2.4839 10.4518 2.32261C10.597 2.16132 10.7018 1.91132 10.7663 1.57261H11.3954C11.3631 1.92745 11.3389 2.32261 11.3228 2.7581C11.3067 3.19358 11.2905 3.75003 11.2744 4.42745C11.2744 5.10487 11.2744 5.96777 11.2744 7.01616H10.6212C10.5405 6.04842 10.2825 5.20164 9.84699 4.47584C9.42764 3.7339 8.87119 3.16132 8.17764 2.7581C7.50022 2.35487 6.73409 2.15326 5.87925 2.15326C4.86312 2.15326 4.06474 2.41939 3.48409 2.95165C2.91958 3.4839 2.63732 4.19358 2.63732 5.08068C2.63732 5.64519 2.78248 6.16132 3.0728 6.62906C3.36312 7.08068 3.83087 7.50003 4.47603 7.88713C5.13732 8.27423 6.00829 8.66132 7.08893 9.04842C8.28248 9.45164 9.25022 9.91132 9.99216 10.4275C10.7502 10.9275 11.2986 11.5 11.6373 12.1452C11.9922 12.7904 12.1696 13.5323 12.1696 14.371C12.1696 15.8871 11.6534 17.0887 10.6212 17.9758C9.58893 18.8629 8.16958 19.3065 6.36312 19.3065ZM20.1623 19.2339L16.0736 9.02423C15.9123 8.57261 15.751 8.22584 15.5897 7.9839C15.4446 7.74197 15.2672 7.56455 15.0575 7.45164C14.8478 7.32261 14.5656 7.24197 14.2107 7.20971L13.6785 7.16132V6.53229C14.0172 6.54842 14.4285 6.56455 14.9123 6.58068C15.4123 6.59681 15.9365 6.60487 16.4849 6.60487H16.5091H16.6543C17.1704 6.60487 17.6785 6.60487 18.1785 6.60487C18.6946 6.58874 19.1623 6.58068 19.5817 6.58068C20.001 6.56455 20.3559 6.55648 20.6462 6.55648V7.16132L20.0897 7.20971C19.4285 7.29035 19.0172 7.46777 18.8559 7.74197C18.6946 8.01616 18.751 8.54035 19.0252 9.31455L21.5656 15.7742L21.2994 15.9436L24.8075 6.43552L25.3397 6.84681L20.743 19.2339H20.1623ZM27.9768 19.2339L24.0575 9.75003L24.8075 6.43552H25.4607L29.3559 15.871L28.9446 16.3791L30.6623 11.4678C31.1946 10.0323 31.3559 8.99197 31.1462 8.34681C30.9527 7.68552 30.4527 7.29842 29.6462 7.18552L29.3317 7.13713L29.3559 6.53229C29.8236 6.54842 30.3075 6.56455 30.8075 6.58068C31.3236 6.59681 31.8075 6.60487 32.2591 6.60487C32.7752 6.60487 33.2349 6.60487 33.6381 6.60487C34.0414 6.58874 34.4123 6.57261 34.751 6.55648V7.16132L34.4123 7.20971C33.993 7.30648 33.6301 7.47584 33.3236 7.71777C33.0172 7.95971 32.7188 8.35487 32.4285 8.90326C32.1381 9.45164 31.8075 10.2258 31.4365 11.2258L28.5575 19.2339H27.9768ZM41.8953 19.3065C40.734 19.3065 39.7179 19.0404 38.8469 18.5081C37.9921 17.9758 37.3227 17.2258 36.8389 16.2581C36.3711 15.2742 36.1373 14.1049 36.1373 12.75C36.1373 11.3952 36.3792 10.2258 36.8631 9.24197C37.3469 8.24197 38.0324 7.47584 38.9195 6.94358C39.8227 6.41132 40.8792 6.14519 42.0889 6.14519C43.1373 6.14519 44.0405 6.34681 44.7985 6.75003C45.5566 7.13713 46.1373 7.75003 46.5405 8.58874C46.9598 9.42745 47.1614 10.5 47.1453 11.8065H37.9518L37.9034 11.2016H44.5324C44.5647 10.3629 44.4921 9.61294 44.3147 8.95164C44.1373 8.27422 43.855 7.74197 43.4679 7.35487C43.0969 6.95164 42.605 6.75003 41.9921 6.75003C41.234 6.75003 40.5647 7.121 39.984 7.86293C39.4034 8.58874 39.0566 9.74197 38.9437 11.3226L38.9921 11.3952C38.976 11.5726 38.9598 11.7662 38.9437 11.9758C38.9437 12.1694 38.9437 12.371 38.9437 12.5807C38.9437 14.3387 39.2744 15.7097 39.9356 16.6936C40.6131 17.6613 41.5727 18.1452 42.8147 18.1452C43.6211 18.1452 44.3469 17.9355 44.9921 17.5162C45.6534 17.0968 46.1856 16.4355 46.5889 15.5323L47.1453 15.871C46.726 16.9516 46.0566 17.7984 45.1373 18.4113C44.234 19.0081 43.1534 19.3065 41.8953 19.3065ZM57.4259 12.75V9.36293C57.4259 8.49197 57.2081 7.84681 56.7726 7.42745C56.3533 7.0081 55.7243 6.79842 54.8856 6.79842C54.2726 6.79842 53.7565 6.89519 53.3372 7.08874C52.9178 7.28229 52.7081 7.51616 52.7081 7.79035C52.7081 7.95164 52.7646 8.12906 52.8775 8.32261C53.0065 8.51616 53.1275 8.72584 53.2404 8.95164C53.3694 9.17745 53.4339 9.41939 53.4339 9.67745C53.4339 10 53.3049 10.2662 53.0468 10.4758C52.8049 10.6694 52.4743 10.7662 52.0549 10.7662C51.6033 10.7662 51.2323 10.6291 50.942 10.3549C50.6678 10.0645 50.5307 9.68552 50.5307 9.21777C50.5307 8.621 50.7485 8.09681 51.1839 7.64519C51.6356 7.17745 52.2404 6.81455 52.9985 6.55648C53.7565 6.28229 54.6194 6.14519 55.5872 6.14519C57.1678 6.14519 58.3049 6.51616 58.9985 7.2581C59.7081 8.00003 60.063 9.17745 60.063 10.7904V12.75H57.4259ZM53.5065 19.3065C52.442 19.3065 51.5952 19.0323 50.9662 18.4839C50.3372 17.9355 50.0226 17.1855 50.0226 16.2339C50.0226 15.492 50.2001 14.8952 50.5549 14.4436C50.9097 13.9758 51.3694 13.6049 51.9339 13.3307C52.4985 13.0565 53.0952 12.8307 53.7243 12.6533C54.3533 12.4597 54.9501 12.2823 55.5146 12.121C56.0791 11.9436 56.5388 11.7339 56.8936 11.492C57.2646 11.25 57.4501 10.9275 57.4501 10.5242L57.5227 11.371C57.4097 11.6936 57.1759 11.9678 56.821 12.1936C56.4823 12.4033 56.0872 12.6049 55.6356 12.7984C55.1839 12.992 54.7404 13.2097 54.3049 13.4516C53.8856 13.6936 53.5307 14.0081 53.2404 14.3952C52.9662 14.7823 52.8291 15.2823 52.8291 15.8952C52.8291 16.5404 52.9985 17.0565 53.3372 17.4436C53.692 17.8145 54.192 18 54.8372 18C55.3694 18 55.8694 17.8629 56.3372 17.5887C56.8049 17.2984 57.2162 16.871 57.571 16.3065V16.9839C57.0872 17.7742 56.5065 18.3629 55.8291 18.75C55.1517 19.121 54.3775 19.3065 53.5065 19.3065ZM60.063 17.2984C60.063 17.6855 60.1194 17.9678 60.2323 18.1452C60.3614 18.3065 60.5549 18.3871 60.813 18.3871C61.071 18.3871 61.321 18.3226 61.563 18.1936C61.821 18.0645 62.063 17.9194 62.2888 17.7581L62.5791 18.2662C62.1759 18.5887 61.7565 18.8387 61.321 19.0162C60.8856 19.2097 60.3775 19.3065 59.7968 19.3065C58.9904 19.3065 58.3936 19.1291 58.0065 18.7742C57.6194 18.4033 57.4259 17.8468 57.4259 17.1049V12.75H60.063V17.2984ZM67.61 18.8952C66.9487 18.8952 66.3358 18.9033 65.7713 18.9194C65.2068 18.9355 64.61 18.9516 63.981 18.9678V18.3629L64.61 18.3145C65.2391 18.25 65.6746 18.0887 65.9165 17.8307C66.1746 17.5565 66.3036 17.0968 66.3036 16.4516V12.75H68.9407V16.4516C68.9407 16.8871 68.9971 17.2339 69.11 17.492C69.2229 17.7339 69.4165 17.9194 69.6907 18.0484C69.9649 18.1613 70.3358 18.242 70.8036 18.2904L71.6746 18.3629V18.9678C71.2068 18.9516 70.7552 18.9436 70.3197 18.9436C69.8842 18.9275 69.4487 18.9194 69.0133 18.9194C68.5778 18.9033 68.11 18.8952 67.61 18.8952ZM66.3036 12.75V9.07261C66.3036 8.41132 66.1746 7.95164 65.9165 7.69358C65.6746 7.41939 65.2149 7.24197 64.5375 7.16132L63.981 7.11294V6.5081C64.3358 6.52423 64.6423 6.54035 64.9004 6.55648C65.1584 6.55648 65.4326 6.55648 65.7229 6.55648C66.352 6.55648 66.9326 6.53229 67.4649 6.4839C68.0133 6.41939 68.5052 6.33068 68.9407 6.21777V6.5081V12.75H66.3036ZM73.3439 10.3549C72.9891 10.3549 72.6987 10.25 72.4729 10.0404C72.2633 9.83068 72.1584 9.56455 72.1584 9.24197C72.1584 9.01616 72.1987 8.82261 72.2794 8.66132C72.3762 8.4839 72.4649 8.31455 72.5455 8.15326C72.6262 7.97584 72.6665 7.80648 72.6665 7.64519C72.6665 7.29035 72.4246 7.11294 71.9407 7.11294C71.5697 7.11294 71.1826 7.20164 70.7794 7.37906C70.3762 7.54035 70.0052 7.77423 69.6665 8.08068C69.3439 8.371 69.0858 8.70971 68.8923 9.09681L68.8439 8.44358C69.2633 7.71777 69.8116 7.15326 70.4891 6.75003C71.1665 6.34681 71.8762 6.14519 72.6181 6.14519C73.3439 6.14519 73.9165 6.34681 74.3358 6.75003C74.7713 7.15326 74.9891 7.70971 74.9891 8.41939C74.9891 9.00003 74.8358 9.46777 74.5294 9.82261C74.2391 10.1775 73.8439 10.3549 73.3439 10.3549ZM84.5852 6.19358C85.6175 6.19358 86.5126 6.45971 87.2707 6.99197C88.0288 7.5081 88.6094 8.25003 89.0126 9.21777C89.432 10.1855 89.6417 11.3387 89.6417 12.6775C89.6417 14.0645 89.4159 15.2581 88.9642 16.2581C88.5126 17.2581 87.8594 18.0242 87.0046 18.5565C86.1659 19.0887 85.1659 19.3549 84.0046 19.3549C83.1175 19.3549 82.3594 19.1694 81.7304 18.7984C81.1175 18.4275 80.7062 18.0081 80.4965 17.5404L80.6659 16.9597C80.8433 17.3791 81.1659 17.742 81.6336 18.0484C82.1175 18.3549 82.682 18.5081 83.3271 18.5081C84.4562 18.5081 85.3191 18.0162 85.9159 17.0323C86.5288 16.0484 86.8352 14.6291 86.8352 12.7742C86.8352 11 86.553 9.62906 85.9884 8.66132C85.4239 7.67745 84.6175 7.18552 83.5691 7.18552C82.8917 7.18552 82.2868 7.38713 81.7546 7.79035C81.2223 8.17745 80.8271 8.71777 80.5691 9.41132L80.4239 9.00003C80.6981 8.14519 81.1981 7.46777 81.9239 6.96777C82.6659 6.45164 83.553 6.19358 84.5852 6.19358ZM78.1981 12.75V2.85487C78.1981 2.17745 78.0691 1.70971 77.811 1.45165C77.5691 1.17745 77.1094 1.0081 76.432 0.943581L75.8755 0.895194V0.26616C76.2304 0.298419 76.5368 0.322612 76.7949 0.338741C77.053 0.338741 77.3271 0.338741 77.6175 0.338741C78.2465 0.338741 78.8271 0.314548 79.3594 0.26616C79.9078 0.201644 80.3997 0.112935 80.8352 3.17097e-05V0.26616V12.75H78.1981ZM80.8352 17.8549C80.4804 17.9194 80.1175 18.0323 79.7465 18.1936C79.3917 18.3387 79.061 18.5162 78.7546 18.7258C78.4642 18.9194 78.2062 19.1371 77.9804 19.3791L77.5449 18.871C77.7223 18.6936 77.8513 18.5081 77.932 18.3145C78.0288 18.121 78.0933 17.8952 78.1255 17.6371C78.1739 17.3791 78.1981 17.0726 78.1981 16.7178V12.75H80.8352V18.9678V17.8549ZM98.1364 19.6694L93.3461 8.7581C93.1848 8.371 93.0316 8.07261 92.8864 7.86293C92.7413 7.65326 92.5719 7.50003 92.3784 7.40326C92.201 7.30648 91.959 7.24197 91.6526 7.20971L91.1687 7.13713V6.53229C91.5235 6.54842 91.9268 6.56455 92.3784 6.58068C92.8461 6.59681 93.3058 6.60487 93.7574 6.60487H93.8058H93.9026C94.4187 6.60487 94.9187 6.60487 95.4026 6.60487C95.8864 6.58874 96.33 6.58068 96.7332 6.58068C97.1526 6.56455 97.4913 6.55648 97.7493 6.55648V7.16132L97.2897 7.20971C96.6606 7.27423 96.2816 7.44358 96.1526 7.71777C96.0235 7.99197 96.1042 8.5081 96.3945 9.26616L99.4913 16.3549L99.1768 16.5726L101.161 11.3952C101.548 10.4275 101.774 9.65326 101.838 9.07261C101.903 8.47584 101.83 8.03229 101.62 7.74197C101.427 7.43552 101.104 7.25003 100.653 7.18552L100.386 7.13713V6.53229C100.79 6.54842 101.201 6.56455 101.62 6.58068C102.056 6.59681 102.475 6.60487 102.878 6.60487C103.314 6.60487 103.709 6.59681 104.064 6.58068C104.435 6.56455 104.774 6.54842 105.08 6.53229V7.13713L104.79 7.20971C104.419 7.29035 104.088 7.45164 103.798 7.69358C103.524 7.93552 103.241 8.32261 102.951 8.85487C102.677 9.38713 102.338 10.1371 101.935 11.1049L98.6445 19.6694H98.1364ZM94.6042 24.75C93.8461 24.75 93.2332 24.5565 92.7655 24.1694C92.3139 23.7984 92.088 23.3065 92.088 22.6936C92.088 22.1775 92.2413 21.7662 92.5477 21.4597C92.8542 21.1533 93.2574 21 93.7574 21C94.1284 21 94.4187 21.0887 94.6284 21.2662C94.838 21.4597 94.9429 21.7097 94.9429 22.0162C94.9429 22.2581 94.9026 22.4758 94.8219 22.6694C94.7413 22.8629 94.6526 23.0404 94.5558 23.2016C94.4751 23.3629 94.4348 23.5242 94.4348 23.6855C94.4348 23.9597 94.6042 24.0968 94.9429 24.0968C95.3784 24.0968 95.7574 23.9436 96.08 23.6371C96.4187 23.3468 96.701 22.9033 96.9268 22.3065L98.2816 18.9194L98.838 19.1855L97.5558 22.3549C97.3461 22.9033 97.1042 23.3549 96.83 23.7097C96.5558 24.0645 96.2332 24.3226 95.8622 24.4839C95.5074 24.6613 95.088 24.75 94.6042 24.75Z" fill="#263C30"/>
</svg>
