<svg width="28" height="106" viewBox="0 0 28 106" fill="none" xmlns="http://www.w3.org/2000/svg">
<g clip-path="url(#clip0_9092_1903)">
<path d="M8.81098 74.4822L8.81098 71.9177L19.4247 71.9177L19.4247 74.4822L8.81098 74.4822ZM15.4172 70.9004C12.7922 70.9004 11.226 69.3275 11.226 66.8998C11.226 64.472 12.7922 62.8991 15.4172 62.8991C18.0422 62.8991 19.6172 64.4378 19.6172 66.8998C19.6172 69.3617 18.086 70.9004 15.4172 70.9004ZM15.4172 65.4722C13.9735 65.4722 13.1247 66.0278 13.1247 66.8998C13.1247 67.7717 13.9997 68.3188 15.4172 68.3188C16.8347 68.3188 17.6922 67.7802 17.6922 66.8998C17.6922 66.0193 16.8872 65.4722 15.426 65.4722L15.4172 65.4722ZM19.941 61.9331L19.941 59.4712C20.2074 59.354 20.428 59.1559 20.5699 58.9064C20.7118 58.6569 20.7674 58.3692 20.7285 58.0864C20.7285 57.1119 20.186 56.599 19.3985 56.599L17.9285 56.599L17.9285 56.6502C18.379 56.8545 18.7565 57.1861 19.0123 57.6021C19.2681 58.0181 19.3904 58.4994 19.3635 58.984C19.3635 60.856 17.9022 62.0956 15.391 62.0956C12.8797 62.0956 11.296 60.9159 11.296 58.9498C11.2759 58.45 11.4127 57.9563 11.6879 57.5346C11.9632 57.1129 12.3637 56.7834 12.836 56.5904L11.3747 56.5904L11.3747 54.0259L19.3372 54.0259C21.2535 54.0259 22.4435 55.6757 22.4435 58.112C22.4435 60.3773 21.4022 61.7878 19.9497 61.9331L19.941 61.9331ZM15.4085 56.5904C14.131 56.5904 13.326 57.1631 13.326 58.0693C13.326 58.9754 14.1222 59.531 15.4085 59.531C16.6947 59.531 17.421 58.984 17.421 58.0693C17.421 57.1546 16.7122 56.5904 15.4172 56.5904L15.4085 56.5904ZM15.4085 53.0599C12.7835 53.0599 11.2172 51.487 11.2172 49.0593C11.2172 46.6315 12.7835 45.0501 15.4085 45.0501C18.0335 45.0501 19.6085 46.5888 19.6085 49.0593C19.6085 51.5298 18.086 53.0599 15.4172 53.0599L15.4085 53.0599ZM15.4085 47.6317C13.9647 47.6317 13.116 48.1873 13.116 49.0593C13.116 49.9312 13.9997 50.4356 15.426 50.4356C16.8522 50.4356 17.701 49.897 17.701 49.0251C17.701 48.1531 16.8872 47.6317 15.426 47.6317L15.4085 47.6317ZM9.46723 44.0756C9.2022 44.0823 8.9411 44.012 8.71702 43.8736C8.49293 43.7351 8.31597 43.5348 8.20855 43.298C8.10114 43.0612 8.06811 42.7986 8.11365 42.5434C8.1592 42.2883 8.28128 42.0521 8.46439 41.8648C8.64751 41.6774 8.88343 41.5475 9.14226 41.4913C9.40108 41.4351 9.67111 41.4553 9.91821 41.5493C10.1652 41.6433 10.3782 41.8068 10.53 42.0192C10.6818 42.2314 10.7657 42.4831 10.771 42.742C10.7831 42.9137 10.7586 43.0859 10.6993 43.2479C10.64 43.41 10.5471 43.5582 10.4262 43.6835C10.3055 43.8087 10.1594 43.9082 9.9974 43.9756C9.83543 44.0432 9.66087 44.0772 9.48473 44.0756L9.46723 44.0756ZM11.3922 44.0756L11.3922 41.511L19.4247 41.511L19.4247 44.0756L11.3922 44.0756ZM15.4085 32.2019C18.0335 32.2019 19.5297 33.3388 19.5297 35.2878C19.5625 35.7876 19.4375 36.2852 19.1715 36.7133C18.9054 37.1414 18.5112 37.4793 18.0422 37.6814L18.0422 37.7327L21.9972 37.7327L21.9972 40.2972L11.3747 40.2972L11.3747 37.7327L12.8097 37.7327L12.8097 37.6814C12.3329 37.4887 11.9285 37.1572 11.6514 36.732C11.3743 36.3068 11.238 35.8085 11.261 35.3049C11.296 33.3388 12.801 32.1677 15.426 32.1677L15.4085 32.2019ZM15.4085 34.7664C14.131 34.7664 13.3172 35.3391 13.3172 36.2367C13.3172 37.1343 14.1397 37.707 15.4085 37.7156C16.6772 37.7241 17.491 37.1343 17.491 36.2367C17.491 35.3391 16.6947 34.7664 15.426 34.7664L15.4085 34.7664ZM11.2085 27.7994C11.2085 25.6709 12.241 24.3801 13.8947 24.3202L13.8947 26.654C13.326 26.654 12.9672 27.1156 12.9672 27.8251C12.9672 28.5346 13.2472 28.8509 13.6585 28.8509C14.0697 28.8509 14.201 28.5688 14.3235 27.9961L14.6647 26.3548C15.006 24.7904 15.6535 24.1236 16.8697 24.1236C18.5322 24.1236 19.5997 25.6025 19.5997 27.7823C19.5997 29.9622 18.5322 31.3898 16.896 31.5009L16.896 29.0304C17.491 28.9535 17.841 28.4919 17.841 27.7396C17.841 26.9873 17.5872 26.6454 17.1672 26.6454C16.7472 26.6454 16.6597 26.8848 16.5285 27.5002L16.2047 28.9791C15.881 30.5093 15.0497 31.3128 13.8247 31.3128C12.2497 31.2957 11.226 29.9194 11.226 27.7994L11.2085 27.7994ZM19.4072 15.5667L19.4072 18.0372L17.911 18.0372L17.911 18.0885C18.4133 18.2244 18.853 18.5236 19.1571 18.9373C19.461 19.3511 19.6111 19.8537 19.5822 20.3623C19.6049 20.752 19.5417 21.1418 19.3969 21.5055C19.2521 21.8693 19.0291 22.1984 18.7429 22.4706C18.4568 22.7429 18.1141 22.9521 17.7381 23.0838C17.3621 23.2156 16.9615 23.267 16.5635 23.2346L11.3747 23.2346L11.3747 20.6701L15.9597 20.6701C16.9135 20.6701 17.421 20.1914 17.421 19.3964C17.4213 19.21 17.381 19.0254 17.3025 18.8553C17.224 18.686 17.1092 18.5338 16.9659 18.4107C16.8225 18.2885 16.6539 18.1962 16.4713 18.1423C16.2887 18.0885 16.0964 18.0722 15.9072 18.097L11.3747 18.097L11.3747 15.5325L19.4072 15.5667ZM11.3747 14.3272L11.3747 11.8481L12.9235 11.8481L12.9235 11.7969C12.4278 11.6609 11.9922 11.3677 11.6851 10.9642C11.378 10.5608 11.2164 10.0684 11.226 9.56573C11.1841 9.05368 11.3408 8.54591 11.6651 8.14156C11.9893 7.73808 12.4573 7.46795 12.976 7.38589L12.976 7.33459C12.4518 7.17987 11.9954 6.85846 11.6785 6.42164C11.3617 5.98566 11.2024 5.45824 11.226 4.92396C11.214 4.57519 11.2773 4.22812 11.4117 3.90499C11.546 3.58101 11.7485 3.28951 12.006 3.04758C12.2635 2.80566 12.5702 2.61931 12.9061 2.50049C13.242 2.38252 13.5998 2.3338 13.956 2.35944L19.4247 2.35944L19.4247 4.92396L14.656 4.92396C13.781 4.92396 13.3785 5.30863 13.3785 6.0267C13.3771 6.18655 13.4109 6.34556 13.4775 6.49173C13.5442 6.63791 13.6422 6.7687 13.765 6.8747C13.8877 6.9807 14.0323 7.0602 14.189 7.10722C14.3458 7.15424 14.511 7.16705 14.6735 7.14653L19.4247 7.14653L19.4247 9.58282L14.621 9.58282C13.816 9.58282 13.3785 9.96751 13.3785 10.6685C13.3786 10.83 13.4137 10.9907 13.4817 11.1378C13.5498 11.2857 13.6491 11.4182 13.7731 11.525C13.8971 11.6327 14.043 11.7131 14.2013 11.7618C14.3595 11.8097 14.5264 11.8251 14.691 11.8054L19.4247 11.8054L19.4247 14.3699L11.3747 14.3272Z" fill="#7B7B7B"/>
<path d="M9.29228 81.6543C8.2741 82.0893 7.32522 82.665 6.47478 83.364C5.18008 84.397 4.124 85.6863 3.37606 87.1469C2.62813 88.6074 2.20528 90.2063 2.13536 91.838C2.06544 93.4697 2.35003 95.0974 2.9704 96.614C3.59077 98.1305 4.53285 99.5015 5.73465 100.637C6.93643 101.772 8.37069 102.646 9.94302 103.2C11.5153 103.755 13.1901 103.978 14.8569 103.855C16.5239 103.732 18.1452 103.265 19.6141 102.485C21.0832 101.706 22.3665 100.631 23.3798 99.3323C24.0429 98.4989 24.582 97.5779 24.981 96.5969C25.558 95.2214 25.8552 93.7493 25.856 92.2628C25.8491 89.1945 24.5972 86.254 22.3747 84.0859C20.1522 81.9178 17.1405 80.6991 13.9998 80.6969C12.3797 80.6946 10.7768 81.0206 9.29228 81.6543ZM4.54103 92.2714C4.54089 90.9365 4.83952 89.6177 5.41603 88.4075C5.54655 88.7026 5.63771 89.0129 5.68728 89.3307C5.84224 90.3765 6.33922 91.3453 7.10406 92.0925C7.86889 92.8398 8.86056 93.3253 9.93103 93.4767C10.5314 93.5431 11.0899 93.8099 11.5123 94.2319C11.9348 94.654 12.1952 95.2054 12.2498 95.7933C12.4047 96.8391 12.9017 97.8079 13.6666 98.5551C14.4314 99.3023 15.4231 99.7879 16.4935 99.9393C17.0644 99.9905 17.6008 100.228 18.016 100.615C16.5752 101.281 14.9851 101.58 13.394 101.485C11.8029 101.389 10.2624 100.902 8.91577 100.068C7.56922 99.2349 6.46035 98.0821 5.69239 96.7173C4.92443 95.3526 4.52234 93.8202 4.52353 92.2628L4.54103 92.2714ZM20.1248 99.3409C20.0285 99.2383 19.941 99.1357 19.836 99.0331C19.0813 98.2726 18.0851 97.7845 17.0098 97.6483C16.4053 97.5931 15.8408 97.3295 15.4173 96.9046C14.9817 96.4957 14.714 95.9455 14.6648 95.3573C14.5098 94.3115 14.0128 93.3427 13.248 92.5955C12.4831 91.8483 11.4915 91.3628 10.421 91.2114C9.78885 91.1744 9.19323 90.9094 8.74978 90.4677C8.32265 90.0487 8.06475 89.4932 8.02352 88.9033C7.88822 87.9426 7.45103 87.0465 6.77228 86.3388C7.45659 85.5329 8.27981 84.8503 9.20478 84.3214C9.24967 84.3539 9.2908 84.3911 9.32728 84.4325C9.76671 84.8405 10.0402 85.3901 10.0973 85.9798C10.2495 87.0267 10.7457 87.9969 11.5109 88.7447C12.2763 89.4923 13.2694 89.977 14.341 90.1257C14.9434 90.186 15.5059 90.4478 15.9333 90.8669C16.3607 91.286 16.6266 91.8365 16.686 92.4252C16.8398 93.4741 17.3358 94.4465 18.1003 95.1981C18.8649 95.9496 19.8571 96.4402 20.9298 96.5969C21.3574 96.6428 21.768 96.7864 22.1285 97.0157C21.5955 97.8928 20.9186 98.6783 20.1248 99.3409ZM23.5023 92.2714C23.5032 93.1388 23.3795 94.0021 23.1348 94.8359C22.5905 94.5506 21.9974 94.3652 21.3848 94.2888C20.7837 94.2289 20.2223 93.9682 19.7951 93.5509C19.3679 93.1336 19.1011 92.585 19.0398 91.9978C18.8866 90.9505 18.3904 89.9797 17.6253 89.2308C16.8604 88.482 15.8677 87.9951 14.796 87.8433C14.195 87.7834 13.6335 87.5227 13.2063 87.1054C12.7792 86.6881 12.5124 86.1395 12.451 85.5523C12.3461 84.7642 12.0457 84.0129 11.576 83.364C12.9742 83.0036 14.4382 82.9609 15.8559 83.2391C17.2736 83.5174 18.6073 84.1093 19.7545 84.9693C20.9016 85.8292 21.832 86.9344 22.4741 88.2003C23.1161 89.4661 23.4529 90.8587 23.4585 92.2714L23.5023 92.2714Z" fill="#7B7B7B"/>
</g>
<defs>
<clipPath id="clip0_9092_1903">
<rect width="106" height="28" fill="white" transform="translate(0 106) rotate(-90)"/>
</clipPath>
</defs>
</svg>
