<svg width="28" height="95" viewBox="0 0 28 95" fill="none" xmlns="http://www.w3.org/2000/svg">
<g clip-path="url(#clip0_9092_1920)">
<path d="M17.8182 63.2683L6.92871 63.2683L6.92871 64.9993L17.8182 64.9993L17.8182 63.2683Z" fill="black"/>
<path d="M14.1883 62.2085C16.413 62.2085 17.9937 60.7613 17.9937 58.5621C17.9937 56.3629 16.413 54.9157 14.1883 54.9157C11.9635 54.9157 10.3828 56.3629 10.3828 58.5621C10.3828 60.7613 11.9635 62.2085 14.1883 62.2085ZM14.1883 60.4633C12.8856 60.4633 11.9782 59.7114 11.9782 58.5621C11.9782 57.4128 12.8856 56.6609 14.1883 56.6609C15.4763 56.6609 16.3984 57.4128 16.3984 58.5621C16.3984 59.7114 15.4763 60.4633 14.1883 60.4633Z" fill="black"/>
<path d="M14.0419 54.3335C16.1495 54.3335 17.6717 53.014 17.6717 51.0418C17.6717 50.0203 17.2472 49.1406 16.5447 48.7007L17.7742 48.7007C18.9597 48.7007 19.7501 49.4243 19.7501 50.6303C19.7501 51.7087 19.2085 52.4465 18.2572 52.5458L18.2572 54.2909C20.1452 54.0639 21.3747 52.6593 21.3747 50.7297C21.3747 48.4595 19.8379 47.0123 17.4522 47.0123L10.5877 47.0123L10.5877 48.5447L11.5683 48.644C10.8072 49.0696 10.3535 49.9493 10.3535 50.9851C10.3535 52.9856 11.9196 54.3335 14.0419 54.3335ZM13.998 52.5741C12.7978 52.5741 11.9196 51.8364 11.9196 50.7439C11.9196 49.552 12.8124 48.7575 13.998 48.7575C15.1982 48.7575 16.1202 49.552 16.1202 50.7439C16.1202 51.8222 15.2128 52.5741 13.998 52.5741Z" fill="black"/>
<path d="M14.1883 46.1558C16.413 46.1558 17.9937 44.7086 17.9937 42.5094C17.9937 40.3102 16.413 38.863 14.1883 38.863C11.9635 38.863 10.3828 40.3102 10.3828 42.5094C10.3828 44.7086 11.9635 46.1558 14.1883 46.1558ZM14.1883 44.4106C12.8856 44.4106 11.9782 43.6586 11.9782 42.5094C11.9782 41.3601 12.8856 40.6081 14.1883 40.6081C15.4763 40.6081 16.3984 41.3601 16.3984 42.5094C16.3984 43.6586 15.4763 44.4106 14.1883 44.4106Z" fill="black"/>
<path d="M9.10958 36.9899C9.10958 36.4224 8.64121 35.9542 8.04112 35.9542C7.45567 35.9542 6.9873 36.4224 6.9873 36.9899C6.9873 37.5716 7.45567 38.0115 8.04112 38.0115C8.64121 38.0115 9.10958 37.5716 9.10958 36.9899ZM17.8182 37.8554L17.8182 36.1244L10.5879 36.1244L10.5879 37.8554L17.8182 37.8554Z" fill="black"/>
<path d="M21.1698 34.6079L21.1698 32.9194L16.8228 32.9194C17.5693 32.4795 18.0083 31.5289 18.0083 30.479C18.0083 28.4075 16.3691 27.1731 14.1151 27.2015C11.8464 27.2441 10.3682 28.5068 10.3682 30.4932C10.3682 31.5573 10.8512 32.5221 11.6854 32.9478L10.5877 33.0471L10.5877 34.6079L21.1698 34.6079ZM14.2029 32.8484C12.9003 32.8484 11.9928 32.0823 11.9928 30.8763C11.9928 29.6703 12.9149 28.9467 14.2029 28.9467C15.4909 28.9467 16.3983 29.6703 16.3983 30.8763C16.3983 32.0823 15.5055 32.8484 14.2029 32.8484Z" fill="black"/>
<path d="M15.6519 26.7625C17.0863 26.7057 18.0083 25.6274 18.0083 23.9532C18.0083 22.3073 17.1009 21.1864 15.6958 21.1864C14.6566 21.1864 13.9541 21.8107 13.6613 22.96L13.354 24.1944C13.2076 24.7193 13.0173 25.074 12.549 25.074C12.0513 25.074 11.7001 24.691 11.7001 24.0667C11.7001 23.414 12.0806 22.9884 12.71 22.9884L12.71 21.4135C11.2756 21.4702 10.3682 22.506 10.3682 24.0241C10.3682 25.5281 11.2756 26.6489 12.6514 26.6489C13.5882 26.6489 14.3639 26.124 14.7298 24.7761L15.0518 23.5559C15.1835 23.1019 15.4031 22.8181 15.8129 22.8181C16.3837 22.8181 16.6472 23.3431 16.6472 23.9815C16.6472 24.7477 16.2813 25.1875 15.6519 25.1875L15.6519 26.7625Z" fill="black"/>
<path d="M18.0085 17.5952C18.0085 16.6446 17.5548 15.7366 16.8815 15.3251L17.8183 15.2116L17.8183 13.5941L10.5879 13.5941L10.5879 15.3251L14.3787 15.3251C15.6813 15.3251 16.4132 15.8075 16.4132 16.9426C16.4132 17.8223 15.9741 18.4324 14.4812 18.4324L10.5879 18.4324L10.5879 20.1633L15.1105 20.1633C16.8376 20.1633 18.0085 19.2553 18.0085 17.5952Z" fill="black"/>
<path d="M17.8181 10.3359L13.6613 10.3359C12.4904 10.3359 11.9343 9.66906 11.9343 8.84614C11.9343 8.02322 12.4758 7.48407 13.5003 7.48407L17.8181 7.48407L17.8181 5.79566L13.676 5.79566C12.4904 5.79566 11.9343 5.143 11.9343 4.32008C11.9343 3.48297 12.4758 2.94381 13.5003 2.94381L17.8181 2.94381L17.8181 1.26959L13.0905 1.26959C11.422 1.26959 10.3682 2.16345 10.3682 3.86605C10.3682 4.93017 10.8951 5.76728 11.744 6.1078C10.8951 6.49089 10.3682 7.25705 10.3682 8.42049C10.3682 9.24341 10.7633 9.98121 11.4073 10.3927L10.5877 10.4778L10.5877 12.0669L17.8181 12.0669L17.8181 10.3359Z" fill="black"/>
<path d="M24.28 14.4858C24.28 14.2279 24.056 14.004 23.79 14.004C23.517 14.004 23.293 14.2279 23.293 14.4858C23.293 14.7504 23.517 14.9744 23.79 14.9744C24.056 14.9744 24.28 14.7504 24.28 14.4858Z" fill="black"/>
<path d="M22.4732 13.5063C23.5442 13.5063 24.2652 12.8685 24.2652 11.9388C24.2652 11.1381 23.7682 10.5274 23.0262 10.3985L23.0262 11.0092C23.4392 11.1246 23.6842 11.4774 23.6842 11.8981C23.6842 12.4953 23.2082 12.8753 22.4662 12.8753C21.7102 12.8753 21.2482 12.4749 21.2482 11.8846C21.2482 11.4774 21.4722 11.1246 21.9132 11.016L21.9132 10.4053C21.1642 10.5139 20.6602 11.0838 20.6602 11.8778C20.6602 12.8413 21.3952 13.5063 22.4732 13.5063Z" fill="black"/>
<path d="M22.467 10.1577C23.496 10.1577 24.266 9.47914 24.266 8.46129C24.266 7.44343 23.496 6.76486 22.467 6.76486C21.438 6.76486 20.668 7.44343 20.668 8.46129C20.668 9.47914 21.438 10.1577 22.467 10.1577ZM22.467 9.51307C21.767 9.51307 21.256 9.09914 21.256 8.46129C21.256 7.82343 21.767 7.4095 22.467 7.4095C23.167 7.4095 23.678 7.82343 23.678 8.46129C23.678 9.09914 23.167 9.51307 22.467 9.51307Z" fill="black"/>
<path d="M24.189 5.58212L22.131 5.58212C21.592 5.58212 21.242 5.25641 21.242 4.78141C21.242 4.32677 21.543 4.04176 22.082 4.04176L24.189 4.04176L24.189 3.41747L22.138 3.41747C21.592 3.41747 21.242 3.09855 21.242 2.61676C21.242 2.16891 21.543 1.8839 22.082 1.8839L24.189 1.8839L24.189 1.2664L21.942 1.2664C21.151 1.2664 20.668 1.71426 20.668 2.47426C20.668 2.98998 20.927 3.39033 21.347 3.55319C20.927 3.72283 20.668 4.09605 20.668 4.63891C20.668 5.05283 20.864 5.41926 21.2 5.60248L20.766 5.64997L20.766 6.21997L24.189 6.21997L24.189 5.58212Z" fill="black"/>
<path fill-rule="evenodd" clip-rule="evenodd" d="M14.2767 93.7661L14.1492 93.7649L14.0216 93.7625L13.894 93.7587L13.7664 93.7538L13.6389 93.7475L13.5113 93.74L13.3837 93.7311L13.2562 93.7211L13.1287 93.7097L13.0013 93.6971L12.874 93.6832L12.7467 93.668L12.6196 93.6516L12.4926 93.6339L12.3657 93.6149L12.239 93.5947L12.1123 93.5732L11.986 93.5504L11.8597 93.5264L11.7336 93.5011L11.6078 93.4745L11.4822 93.4467L11.3568 93.4176L11.2316 93.3873L11.1068 93.3557L10.9821 93.3228L10.8577 93.2887L10.7337 93.2533L10.61 93.2167L10.4866 93.1789L10.3636 93.1398L10.2408 93.0995L10.1184 93.0579L9.99643 93.0151L9.87482 92.9711L9.7536 92.9259L9.63281 92.8794L9.51241 92.8317L9.39252 92.7828L9.27302 92.7327L9.15395 92.6814L9.0354 92.6289L8.91735 92.5752L8.79975 92.5202L8.68266 92.4641L8.56614 92.4068L8.45013 92.3484L8.33463 92.2887L8.21977 92.2279L8.10541 92.1659L7.99163 92.1028L7.87849 92.0385L7.76591 91.9731L7.65398 91.9065L7.54268 91.8387L7.43201 91.7699L7.32205 91.6999L7.21266 91.6288L7.10403 91.5566L6.99604 91.4833L6.88875 91.4088L6.78222 91.3333L6.67633 91.2567L6.57127 91.179L6.46691 91.1002L6.36327 91.0204L6.26043 90.9395L6.15837 90.8576L6.0571 90.7746L5.95663 90.6905L5.85696 90.6055L5.75813 90.5194L5.66012 90.4323L5.56296 90.3442L5.46666 90.2551L5.37121 90.165L5.27664 90.0739L5.18296 89.9819L5.09017 89.8888L4.99829 89.7949L4.90733 89.6999L4.81728 89.6041L4.72818 89.5073L4.64001 89.4096L4.5528 89.3109L4.46656 89.2114L4.38129 89.111L4.29701 89.0097L4.21371 88.9075L4.13142 88.8044L4.05014 88.7005L3.96988 88.5957L3.89065 88.4901L3.81246 88.3837L3.73532 88.2765L3.65923 88.1684L3.58419 88.0596L3.51024 87.95L3.43736 87.8395L3.36558 87.7283L3.29489 87.6164L3.22531 87.5037L3.15684 87.3903L3.0895 87.2762L3.02328 87.1613L2.95819 87.0458L2.89425 86.9296L2.83147 86.8127L2.76984 86.6951L2.70938 86.5768L2.65009 86.458L2.59197 86.3384L2.53505 86.2183L2.47932 86.0975L2.42479 85.9762L2.37147 85.8542L2.31937 85.7317L2.26848 85.6086L2.21881 85.485L2.17038 85.3608L2.12318 85.2362L2.07724 85.1109L2.03253 84.9852L1.98908 84.859L1.9469 84.7324L1.90597 84.6052L1.86632 84.4776L1.82795 84.3495L1.79086 84.2211L1.75504 84.0922L1.72052 83.9629L1.68729 83.8332L1.65537 83.7031L1.62475 83.5727L1.59543 83.4419L1.56743 83.3108L1.54074 83.1794L1.51537 83.0476L1.49133 82.9155L1.46861 82.7831L1.44722 82.6505L1.42716 82.5176L1.40845 82.3845L1.39107 82.2511L1.37503 82.1175L1.36033 81.9837L1.34699 81.8497L1.335 81.7155L1.32435 81.5812L1.31507 81.4467L1.27246 80.7235L4.86707 80.6822L4.86679 80.6586L4.86664 80.5587L4.86751 80.4588L4.86939 80.359L4.87228 80.259L4.87619 80.159L4.8811 80.059L4.88704 79.959L4.89399 79.859L4.90195 79.7591L4.91094 79.6591L4.92094 79.5592L4.93197 79.4594L4.944 79.3596L4.95705 79.2599L4.97112 79.1602L4.9862 79.0607L5.00231 78.9612L5.01943 78.8618L5.03756 78.7627L5.05671 78.6635L5.07687 78.5646L5.09804 78.4658L5.12023 78.3671L5.14342 78.2687L5.16762 78.1704L5.19284 78.0722L5.21906 77.9743L5.24628 77.8767L5.27451 77.7792L5.30374 77.6819L5.33397 77.585L5.3652 77.4882L5.39742 77.3918L5.43064 77.2955L5.46484 77.1996L5.50004 77.104L5.53622 77.0086L5.57339 76.9136L5.61153 76.8189L5.65066 76.7245L5.69077 76.6305L5.73184 76.5369L5.77388 76.4435L5.81689 76.3506L5.86087 76.258L5.90579 76.1659L5.95168 76.0741L5.99852 75.9827L6.04631 75.8918L6.09505 75.8013L6.14472 75.7112L6.19534 75.6216L6.24688 75.5325L6.29936 75.4438L6.35276 75.3555L6.40709 75.2678L6.46232 75.1806L6.51845 75.0939L6.57553 75.0077L6.63344 74.922L6.69231 74.8369L6.75206 74.7522L6.81264 74.6682L6.87418 74.5847L6.93654 74.5018L6.9998 74.4195L7.06394 74.3377L7.12892 74.2566L7.19478 74.176L7.26141 74.0961L7.32892 74.0168L7.39733 73.9381L7.46651 73.8601L7.53651 73.7827L7.60733 73.7059L7.67899 73.6299L7.75147 73.5546L7.82471 73.4799L7.89872 73.4058L7.97356 73.3325L8.04916 73.2599L8.12559 73.1881L8.20271 73.1169L8.28061 73.0465L8.35926 72.9768L8.43868 72.9079L8.5188 72.8397L8.59968 72.7723L8.68126 72.7057L8.76354 72.6398L8.84659 72.5747L8.93027 72.5104L9.01465 72.4469L9.09973 72.3843L9.18552 72.3224L9.27193 72.2614L9.35905 72.2012L9.44681 72.1418L9.53513 72.0833L9.62416 72.0256L9.71382 71.9688L9.80412 71.9128L9.895 71.8578L9.98644 71.8036L10.0785 71.7503L10.1712 71.6979L10.2644 71.6464L10.3582 71.5957L10.4526 71.546L10.5475 71.4972L10.6429 71.4493L10.7389 71.4024L10.8354 71.3564L10.9324 71.3113L11.0299 71.2671L11.1279 71.2239L11.2264 71.1817L11.3254 71.1404L11.4248 71.1001L11.5247 71.0607L11.625 71.0224L11.7258 70.985L11.827 70.9486L11.9286 70.9132L12.0306 70.8788L12.133 70.8453L12.2359 70.8129L12.339 70.7815L12.4426 70.7511L12.5465 70.7217L12.6507 70.6933L12.7553 70.666L12.8603 70.6397L12.9655 70.6144L13.071 70.5901L13.1769 70.5669L13.283 70.5448L13.3893 70.5236L13.4961 70.5036L13.603 70.4846L13.7101 70.4666L13.8175 70.4497L13.9251 70.4338L14.033 70.419L14.1409 70.4053L14.2492 70.3927L14.3576 70.3811L14.4661 70.3706L14.5748 70.3611L14.6837 70.3527L14.7927 70.3455L14.9018 70.3393L15.011 70.3342L15.1204 70.3301L15.2298 70.3272L15.3393 70.3253L15.4489 70.3246L15.5586 70.3249L15.6683 70.3263L15.7781 70.3288L15.8878 70.3324L15.9975 70.3371L16.1073 70.3428L16.2171 70.3497L16.3269 70.3577L16.4366 70.3668L16.5463 70.3769L16.6559 70.3882L16.7654 70.4006L16.875 70.414L16.9843 70.4285L17.0937 70.4442L17.2029 70.4609L17.3119 70.4787L17.4209 70.4977L17.5297 70.5176L17.6384 70.5387L17.7469 70.5609L17.8552 70.5843L17.9634 70.6086L18.0713 70.634L18.179 70.6606L18.2865 70.6883L18.3938 70.717L18.5009 70.7468L18.6076 70.7776L18.7142 70.8095L18.8204 70.8426L18.9265 70.8767L19.0321 70.9118L19.1375 70.9481L19.2425 70.9854L19.3472 71.0237L19.4516 71.0632L19.5556 71.1036L19.6593 71.1451L19.7626 71.1877L19.8655 71.2313L19.968 71.276L20.0701 71.3217L20.1718 71.3684L20.2731 71.4162L20.3739 71.465L20.4743 71.5148L20.5743 71.5657L20.6737 71.6175L20.7727 71.6705L20.8711 71.7243L20.9691 71.7792L21.0666 71.8351L21.1635 71.892L21.26 71.9499L21.3558 72.0088L21.4512 72.0686L21.5459 72.1294L21.6401 72.1912L21.7337 72.2539L21.8267 72.3176L21.9192 72.3823L22.011 72.4479L22.1022 72.5145L22.1927 72.582L22.2826 72.6504L22.3719 72.7197L22.4604 72.79L22.5483 72.8612L22.6356 72.9333L22.7221 73.0063L22.808 73.0802L22.8931 73.1549L22.9776 73.2306L23.0612 73.3071L23.1442 73.3845L23.2264 73.4627L23.3078 73.5418L23.3885 73.6218L23.4684 73.7025L23.5476 73.7842L23.6259 73.8666L23.7035 73.9499L23.7802 74.0339L23.8561 74.1188L23.9313 74.2044L24.0055 74.2909L24.0789 74.3781L24.1515 74.4661L24.2232 74.5548L24.2941 74.6443L24.364 74.7346L24.4331 74.8256L24.5013 74.9172L24.5686 75.0097L24.635 75.1029L24.7005 75.1967L24.765 75.2912L24.8287 75.3865L24.8914 75.4823L24.9531 75.5789L25.014 75.6761L25.0738 75.774L25.1327 75.8725L25.1906 75.9716L25.2475 76.0714L25.3035 76.1717L25.3584 76.2727L25.4124 76.3742L25.4654 76.4764L25.5173 76.5791L25.5682 76.6823L25.6182 76.7862L25.6671 76.8905L25.7149 76.9954L25.7617 77.1008L25.8075 77.2068L25.8522 77.3132L25.8958 77.4201L25.9384 77.5275L25.98 77.6354L26.0204 77.7437L26.0598 77.8525L26.098 77.9617L26.1352 78.0713L26.1713 78.1814L26.2063 78.2919L26.2402 78.4028L26.273 78.514L26.3047 78.6256L26.3353 78.7376L26.3647 78.85L26.393 78.9626L26.4203 79.0757L26.4463 79.189L26.4712 79.3027L26.4951 79.4166L26.5177 79.5309L26.5392 79.6454L26.5595 79.7601L26.5787 79.8751L26.5968 79.9904L26.6137 80.1059L26.6294 80.2216L26.644 80.3375L26.6573 80.4537L26.6695 80.5699L26.6806 80.6864L26.6905 80.803L26.6992 80.9198L26.7067 81.0367L26.7131 81.1538L26.7182 81.2709L26.7222 81.3881L26.725 81.5055L26.7266 81.6229L26.727 81.7404L26.7262 81.8579L26.7243 81.9755L26.7211 82.0931L26.7168 82.2108L26.7112 82.3284L26.7045 82.4461L26.6966 82.5636L26.6875 82.6813L26.6772 82.7988L26.6657 82.9163L26.653 83.0338L26.6391 83.1511L26.624 83.2684L26.6077 83.3856L26.5902 83.5026L26.5716 83.6196L26.5518 83.7363L26.5308 83.853L26.5085 83.9695L26.4851 84.0858L26.4605 84.202L26.4347 84.3179L26.4077 84.4337L26.3795 84.5491L26.3502 84.6644L26.3197 84.7795L26.288 84.8943L26.2551 85.0088L26.2211 85.123L26.1859 85.237L26.1495 85.3507L26.112 85.464L26.0733 85.577L26.0334 85.6897L25.9923 85.802L25.9502 85.914L25.9069 86.0256L25.8624 86.1368L25.8167 86.2476L25.77 86.358L25.7221 86.468L25.6731 86.5776L25.6229 86.6867L25.5716 86.7954L25.5192 86.9036L25.4657 87.0113L25.411 87.1185L25.3553 87.2253L25.2984 87.3315L25.2405 87.4372L25.1815 87.5424L25.1213 87.6471L25.0601 87.7511L24.9978 87.8546L24.9344 87.9576L24.87 88.0599L24.8045 88.1617L24.738 88.2629L24.6703 88.3634L24.6017 88.4633L24.532 88.5626L24.4613 88.6612L24.3896 88.7591L24.3168 88.8564L24.243 88.953L24.1682 89.0489L24.0924 89.1441L24.0156 89.2386L23.9378 89.3323L23.8591 89.4253L23.7794 89.5176L23.6987 89.6091L23.617 89.6999L23.5344 89.7899L23.4508 89.8791L23.3664 89.9675L23.2809 90.0551L23.1946 90.1419L23.1073 90.2279L23.0192 90.313L22.9301 90.3973L22.8402 90.4808L22.7493 90.5633L22.6577 90.6451L22.5651 90.7259L22.4716 90.8059L22.3774 90.8849L22.2823 90.9631L22.1864 91.0403L22.0896 91.1166L21.992 91.192L21.8936 91.2665L21.7945 91.34L21.6945 91.4125L21.5938 91.4841L21.4923 91.5547L21.39 91.6243L21.2871 91.693L21.1833 91.7606L21.0788 91.8273L20.9737 91.8929L20.8678 91.9575L20.7612 92.0211L20.654 92.0836L20.546 92.1452L20.4374 92.2056L20.3282 92.265L20.2183 92.3234L20.1077 92.3807L19.9965 92.4369L19.8848 92.492L19.7724 92.546L19.6594 92.599L19.5458 92.6508L19.4317 92.7015L19.317 92.7511L19.2018 92.7996L19.086 92.847L18.9697 92.8933L18.8529 92.9384L18.7355 92.9823L18.6178 93.0251L18.4995 93.0668L18.3807 93.1073L18.2615 93.1466L18.1418 93.1848L18.0217 93.2218L17.9012 93.2576L17.7803 93.2922L17.659 93.3257L17.5372 93.3579L17.4152 93.389L17.2927 93.4188L17.1699 93.4475L17.0468 93.4749L16.9233 93.5011L16.7995 93.5261L16.6754 93.5499L16.551 93.5725L16.4264 93.5938L16.3015 93.6139L16.1763 93.6328L16.0509 93.6504L15.9252 93.6668L15.7993 93.682L15.6732 93.6959L15.547 93.7086L15.4206 93.72L15.294 93.7301L15.1672 93.739L15.0403 93.7467L14.9133 93.7531L14.7861 93.7582L14.6589 93.7621L14.5316 93.7647L14.4042 93.766L14.2767 93.7661ZM4.94236 81.8121L2.49224 81.8402L2.4949 81.8669L2.50836 81.9896L2.52305 82.1119L2.53898 82.2342L2.5561 82.3559L2.57447 82.4776L2.59406 82.5991L2.61486 82.7203L2.63689 82.8413L2.66008 82.9617L2.68456 83.0823L2.71014 83.2021L2.73701 83.322L2.76503 83.4413L2.79429 83.5605L2.82467 83.6791L2.85627 83.7974L2.88905 83.9154L2.92301 84.0331L2.95811 84.1501L2.99442 84.267L3.03186 84.3833L3.07049 84.4993L3.11018 84.6147L3.15113 84.7298L3.19318 84.8444L3.23634 84.9584L3.28067 85.0721L3.32609 85.1851L3.3726 85.2976L3.42031 85.4098L3.4691 85.5213L3.519 85.6324L3.56996 85.7428L3.62202 85.8527L3.67513 85.9619L3.72941 86.0708L3.78468 86.1789L3.84103 86.2864L3.89845 86.3933L3.95692 86.4996L4.0164 86.6051L4.07697 86.7103L4.1386 86.8147L4.2011 86.9182L4.26483 87.0214L4.3294 87.1236L4.39498 87.2252L4.46163 87.3262L4.52925 87.4265L4.59787 87.526L4.66729 87.6245L4.73794 87.7228L4.80934 87.82L4.88174 87.9165L4.95512 88.0123L5.02938 88.1072L5.10453 88.2013L5.18073 88.2948L5.25766 88.3873L5.3356 88.4791L5.41439 88.57L5.4941 88.6601L5.57457 88.7493L5.65605 88.8378L5.73826 88.9254L5.82142 89.0121L5.90528 89.0979L5.99005 89.1829L6.07559 89.267L6.16197 89.3501L6.24924 89.4325L6.33711 89.5138L6.42573 89.5942L6.5154 89.6739L6.60563 89.7524L6.69651 89.83L6.78833 89.9068L6.88073 89.9825L6.97396 90.0574L7.06782 90.1312L7.16245 90.2041L7.25772 90.276L7.35361 90.3469L7.45021 90.4169L7.54758 90.4858L7.64539 90.5537L7.74402 90.6207L7.84317 90.6866L7.94295 90.7514L8.04337 90.8153L8.14436 90.8782L8.24586 90.94L8.348 91.0007L8.45064 91.0604L8.55392 91.1191L8.65778 91.1767L8.76201 91.2332L8.86682 91.2887L8.97221 91.3431L9.07803 91.3965L9.18437 91.4487L9.29109 91.4999L9.39831 91.55L9.50599 91.5989L9.61417 91.6469L9.72267 91.6936L9.83168 91.7394L9.94107 91.784L10.0508 91.8274L10.1609 91.8698L10.2715 91.9111L10.3823 91.9512L10.4936 91.9902L10.6051 92.0281L10.717 92.0648L10.8292 92.1005L10.9417 92.135L11.0544 92.1683L11.1675 92.2005L11.2808 92.2316L11.3944 92.2616L11.5082 92.2904L11.6223 92.318L11.7365 92.3445L11.851 92.3699L11.9657 92.3941L12.0805 92.4171L12.1955 92.439L12.3107 92.4598L12.426 92.4794L12.5415 92.4978L12.6571 92.5151L12.7728 92.5312L12.8886 92.5462L13.0045 92.56L13.1204 92.5726L13.2365 92.5841L13.3526 92.5945L13.4686 92.6036L13.5848 92.6117L13.701 92.6185L13.8172 92.6242L13.9334 92.6288L14.0495 92.6322L14.1656 92.6344L14.2817 92.6355L14.3978 92.6354L14.5137 92.6342L14.6297 92.6318L14.7455 92.6283L14.8612 92.6236L14.9768 92.6178L15.0922 92.6108L15.2076 92.6027L15.3228 92.5935L15.4379 92.5831L15.5528 92.5716L15.6675 92.5589L15.782 92.5451L15.8963 92.5302L16.0104 92.5142L16.1243 92.497L16.2379 92.4787L16.3513 92.4593L16.4644 92.4388L16.5773 92.4172L16.6899 92.3944L16.8021 92.3706L16.9142 92.3456L17.0258 92.3196L17.1372 92.2924L17.2482 92.2642L17.3588 92.2349L17.4692 92.2044L17.5791 92.173L17.6887 92.1404L17.7979 92.1068L17.9067 92.0721L18.0151 92.0363L18.123 91.9995L18.2305 91.9616L18.3376 91.9227L18.4442 91.8828L18.5504 91.8418L18.6561 91.7998L18.7613 91.7567L18.8659 91.7127L18.9702 91.6676L19.0739 91.6215L19.1771 91.5744L19.2797 91.5263L19.3818 91.4772L19.4833 91.4271L19.5843 91.3761L19.6847 91.324L19.7846 91.271L19.8838 91.2171L19.9824 91.1622L20.0805 91.1063L20.1779 91.0495L20.2747 90.9918L20.3708 90.9331L20.4663 90.8735L20.5611 90.813L20.6553 90.7515L20.7488 90.6892L20.8417 90.626L20.9338 90.5619L21.0252 90.4969L21.116 90.4311L21.206 90.3644L21.2953 90.2968L21.3838 90.2284L21.4716 90.1591L21.5587 90.089L21.645 90.0181L21.7305 89.9464L21.8153 89.8738L21.8993 89.8005L21.9825 89.7263L22.0649 89.6514L22.1465 89.5757L22.2273 89.4993L22.3073 89.422L22.3864 89.344L22.4647 89.2653L22.5422 89.1859L22.6188 89.1057L22.6946 89.0248L22.7695 88.9432L22.8435 88.8609L22.9167 88.7779L22.989 88.6942L23.0604 88.6099L23.131 88.5248L23.2005 88.4392L23.2693 88.3529L23.3371 88.266L23.404 88.1784L23.4699 88.0902L23.5349 88.0015L23.599 87.9121L23.6622 87.8221L23.7244 87.7316L23.7857 87.6405L23.846 87.5489L23.9053 87.4566L23.9637 87.3639L24.0211 87.2706L24.0776 87.1768L24.133 87.0826L24.1875 86.9877L24.2409 86.8925L24.2934 86.7967L24.3449 86.7005L24.3954 86.6039L24.4449 86.5067L24.4934 86.4091L24.5408 86.3111L24.5873 86.2128L24.6327 86.114L24.6771 86.0147L24.7204 85.9152L24.7628 85.8152L24.8041 85.7149L24.8443 85.6142L24.8836 85.5131L24.9218 85.4119L24.9589 85.3102L24.9949 85.2082L25.03 85.1059L25.064 85.0033L25.0969 84.9005L25.1288 84.7973L25.1596 84.694L25.1893 84.5903L25.218 84.4865L25.2456 84.3824L25.2721 84.2781L25.2976 84.1736L25.322 84.0689L25.3453 83.964L25.3676 83.859L25.3888 83.7538L25.4089 83.6484L25.4279 83.5429L25.4459 83.4373L25.4627 83.3316L25.4785 83.2257L25.4932 83.1198L25.5069 83.0138L25.5194 82.9077L25.5309 82.8015L25.5413 82.6953L25.5506 82.589L25.5589 82.4827L25.566 82.3764L25.5721 82.2701L25.5771 82.1638L25.581 82.0575L25.5839 81.9512L25.5856 81.8449L25.5863 81.7387L25.5859 81.6326L25.5845 81.5265L25.582 81.4205L25.5784 81.3146L25.5737 81.2087L25.568 81.103L25.5612 80.9974L25.5534 80.8919L25.5444 80.7866L25.5345 80.6814L25.5234 80.5764L25.5113 80.4715L25.4982 80.3669L25.484 80.2624L25.4687 80.1582L25.4524 80.0541L25.4351 79.9503L25.4167 79.8466L25.3973 79.7433L25.3769 79.6402L25.3554 79.5373L25.3329 79.4347L25.3094 79.3325L25.2849 79.2305L25.2593 79.1288L25.2328 79.0274L25.2051 78.9264L25.1766 78.8257L25.147 78.7253L25.1164 78.6253L25.0848 78.5256L25.0523 78.4263L25.0187 78.3274L24.9842 78.2289L24.9487 78.1308L24.9122 78.0331L24.8747 77.9358L24.8363 77.8389L24.797 77.7425L24.7567 77.6466L24.7154 77.5511L24.6732 77.456L24.6301 77.3615L24.586 77.2675L24.541 77.1738L24.4951 77.0807L24.4483 76.9882L24.4005 76.8961L24.3519 76.8046L24.3024 76.7136L24.2519 76.6231L24.2006 76.5333L24.1485 76.444L24.0954 76.3553L24.0415 76.267L23.9868 76.1795L23.9311 76.0924L23.8746 76.0061L23.8173 75.9204L23.7591 75.8352L23.7001 75.7506L23.6404 75.6668L23.5797 75.5836L23.5183 75.501L23.4562 75.4191L23.3931 75.3378L23.3294 75.2573L23.2647 75.1773L23.1994 75.0981L23.1334 75.0197L23.0665 74.9417L22.9989 74.8646L22.9306 74.7883L22.8615 74.7126L22.7917 74.6377L22.7212 74.5635L22.65 74.4901L22.5782 74.4175L22.5055 74.3455L22.4322 74.2743L22.3582 74.2039L22.2836 74.1342L22.2084 74.0655L22.1325 73.9975L22.0558 73.9301L21.9786 73.8637L21.9008 73.798L21.8224 73.7333L21.7433 73.6692L21.6637 73.6061L21.5834 73.5438L21.5025 73.4822L21.4212 73.4216L21.3392 73.3617L21.2567 73.3027L21.1736 73.2446L21.0899 73.1872L21.0059 73.1309L20.9212 73.0754L20.8361 73.0208L20.7504 72.967L20.6642 72.914L20.5776 72.862L20.4906 72.811L20.4028 72.7607L20.3149 72.7115L20.2264 72.663L20.1375 72.6155L20.0482 72.569L19.9584 72.5233L19.8681 72.4785L19.7779 72.4347L19.6868 72.3918L19.5954 72.3498L19.5038 72.3088L19.4118 72.2687L19.3193 72.2295L19.2267 72.1913L19.1335 72.154L19.0401 72.1176L18.9466 72.0823L18.8524 72.0479L18.7583 72.0144L18.6636 71.9819L18.5688 71.9503L18.4737 71.9197L18.3785 71.8901L18.2827 71.8614L18.187 71.8338L18.091 71.807L17.9948 71.7813L17.8983 71.7565L17.8018 71.7327L17.7049 71.7098L17.6079 71.688L17.5107 71.6671L17.4134 71.6472L17.3161 71.6283L17.2183 71.6103L17.1208 71.5934L17.023 71.5774L16.925 71.5624L16.8271 71.5484L16.729 71.5353L16.631 71.5233L16.5325 71.5122L16.4345 71.5021L16.3361 71.493L16.2379 71.4849L16.1394 71.4778L16.0413 71.4716L15.9428 71.4664L15.8443 71.4622L15.746 71.459L15.648 71.4567L15.5495 71.4555L15.4513 71.4552L15.3532 71.4559L15.2551 71.4575L15.157 71.4602L15.0593 71.4638L14.9613 71.4684L14.8637 71.4739L14.766 71.4805L14.6687 71.4879L14.5713 71.4964L14.4742 71.5058L14.3771 71.5161L14.2803 71.5275L14.1836 71.5398L14.0872 71.553L13.9907 71.5672L13.8947 71.5823L13.799 71.5984L13.7032 71.6154L13.6077 71.6334L13.5127 71.6523L13.4175 71.6721L13.3231 71.6928L13.2285 71.7146L13.1346 71.7371L13.0405 71.7607L12.9472 71.7851L12.854 71.8105L12.7609 71.8368L12.6685 71.8639L12.5763 71.892L12.4842 71.921L12.3929 71.9508L12.3015 71.9817L12.2108 72.0133L12.1202 72.0458L12.0303 72.0792L11.9405 72.1136L11.8512 72.1487L11.7625 72.1847L11.6742 72.2215L11.586 72.2594L11.4986 72.2978L11.4113 72.3374L11.3248 72.3776L11.2387 72.4187L11.1528 72.4607L11.0677 72.5034L10.9829 72.547L10.8985 72.5915L10.815 72.6365L10.7316 72.6826L10.649 72.7294L10.5667 72.777L10.4852 72.8253L10.404 72.8746L10.3235 72.9244L10.2433 72.9752L10.1639 73.0266L10.0852 73.0788L10.0068 73.1318L9.92911 73.1855L9.85198 73.2399L9.77555 73.2952L9.69957 73.351L9.62435 73.4077L9.54964 73.465L9.47563 73.523L9.40226 73.5818L9.32946 73.6412L9.25736 73.7014L9.1859 73.7621L9.11513 73.8235L9.04501 73.8856L8.97545 73.9486L8.90685 74.0118L8.83863 74.0761L8.77137 74.1407L8.70461 74.206L8.63869 74.2719L8.57327 74.3386L8.50887 74.4056L8.44498 74.4735L8.38185 74.5419L8.31955 74.6107L8.25795 74.6801L8.19692 74.7504L8.13679 74.821L8.07741 74.8921L8.01881 74.9639L7.9609 75.0362L7.90394 75.1089L7.84743 75.1823L7.79201 75.256L7.73728 75.3304L7.68325 75.4053L7.63011 75.4805L7.57762 75.5565L7.5262 75.6325L7.47535 75.7093L7.4254 75.7864L7.37621 75.8642L7.32784 75.9422L7.28037 76.0207L7.23379 76.0994L7.18778 76.179L7.14285 76.2585L7.09862 76.3387L7.05529 76.4192L7.01284 76.5L6.97116 76.5813L6.93031 76.6629L6.89041 76.7448L6.85127 76.8272L6.81309 76.9097L6.77567 76.9927L6.738 77.0786L6.70357 77.1594L6.6687 77.2435L6.63491 77.3275L6.60175 77.4121L6.56968 77.4967L6.53837 77.5818L6.50801 77.6669L6.47842 77.7525L6.44985 77.8381L6.42211 77.9241L6.39525 78.0103L6.36935 78.0965L6.34425 78.1832L6.32002 78.2701L6.29677 78.3569L6.27441 78.4438L6.25287 78.5314L6.23232 78.6186L6.2126 78.7063L6.19382 78.7939L6.1759 78.8819L6.15893 78.9697L6.14283 79.0578L6.12766 79.1459L6.11334 79.2343L6.09997 79.3225L6.08749 79.4109L6.0759 79.4995L6.06522 79.588L6.05546 79.6765L6.04659 79.7651L6.03862 79.8537L6.03155 79.9424L6.02538 80.0312L6.02012 80.1197L6.01576 80.2083L6.01229 80.2972L6.00974 80.3856L6.00807 80.4742L6.0073 80.5627L6.00743 80.6514L6.00764 80.6691L8.43995 80.6412L8.4397 80.5909L8.44008 80.5262L8.4411 80.4615L8.44281 80.3967L8.44517 80.3319L8.44822 80.267L8.45191 80.2022L8.45624 80.1373L8.46127 80.0724L8.46693 80.0075L8.4733 79.9426L8.4803 79.8778L8.488 79.8129L8.49633 79.7481L8.50531 79.6833L8.51504 79.6185L8.52535 79.5538L8.53636 79.4892L8.54807 79.4245L8.56041 79.36L8.57346 79.2955L8.58714 79.2311L8.60146 79.1668L8.61648 79.1026L8.6322 79.0385L8.64855 78.9744L8.66554 78.9106L8.68323 78.8468L8.70156 78.7831L8.72059 78.7196L8.74025 78.6562L8.76055 78.5929L8.78155 78.5299L8.80319 78.467L8.82552 78.4042L8.8485 78.3416L8.87211 78.2792L8.89635 78.217L8.9213 78.155L8.94688 78.0931L8.9731 78.0315L9.00001 77.9701L9.02751 77.9089L9.0557 77.848L9.08446 77.7873L9.11392 77.7268L9.14402 77.6666L9.17476 77.6066L9.20613 77.5469L9.23814 77.4874L9.27072 77.4283L9.30401 77.3694L9.33786 77.3108L9.37235 77.2525L9.40748 77.1944L9.44324 77.1367L9.47958 77.0793L9.51655 77.0222L9.55416 76.9655L9.59234 76.909L9.6311 76.853L9.67049 76.7972L9.71051 76.7418L9.75105 76.6868L9.79222 76.6321L9.83403 76.5778L9.87635 76.5239L9.91931 76.4704L9.96283 76.4172L10.0069 76.3645L10.0515 76.3121L10.0968 76.2601L10.1425 76.2086L10.1889 76.1574L10.2358 76.1067L10.2832 76.0564L10.3312 76.0067L10.3798 75.9573L10.4288 75.9083L10.4785 75.8598L10.5286 75.8118L10.5793 75.7642L10.6305 75.7171L10.6822 75.6705L10.7345 75.6244L10.7872 75.5787L10.8404 75.5336L10.8942 75.4889L10.9484 75.4447L11.0032 75.4011L11.0584 75.358L11.1141 75.3153L11.1703 75.2733L11.2269 75.2317L11.2841 75.1907L11.3416 75.1502L11.3996 75.1102L11.4581 75.0709L11.517 75.032L11.5764 74.9937L11.6362 74.9561L11.6964 74.9189L11.7571 74.8823L11.8181 74.8463L11.8796 74.8109L11.9415 74.7761L12.0037 74.7419L12.0664 74.7083L12.1295 74.6752L12.1929 74.6428L12.2567 74.611L12.3209 74.5798L12.3855 74.5492L12.4504 74.5192L12.5157 74.4899L12.5813 74.4613L12.6473 74.4332L12.7136 74.4057L12.7802 74.379L12.8472 74.3528L12.9144 74.3273L12.9819 74.3025L13.0498 74.2783L13.118 74.2548L13.1865 74.232L13.2552 74.2097L13.3242 74.1883L13.3935 74.1674L13.463 74.1473L13.5328 74.1278L13.6029 74.1089L13.6732 74.0909L13.7437 74.0734L13.8145 74.0567L13.8854 74.0407L13.9567 74.0253L14.0281 74.0107L14.0996 73.9967L14.1714 73.9835L14.2435 73.971L14.3156 73.9592L14.3879 73.9481L14.4605 73.9377L14.5331 73.928L14.6059 73.9191L14.6789 73.9108L14.752 73.9033L14.8252 73.8966L14.8985 73.8904L14.972 73.8851L15.0455 73.8805L15.1192 73.8767L15.1929 73.8735L15.2668 73.8711L15.3407 73.8695L15.4147 73.8685L15.4888 73.8684L15.5628 73.8689L15.637 73.8702L15.7112 73.8722L15.7854 73.875L15.8596 73.8785L15.9339 73.8828L16.0082 73.8878L16.0825 73.8935L16.1568 73.9001L16.231 73.9073L16.3052 73.9153L16.3795 73.924L16.4536 73.9335L16.5278 73.9437L16.6018 73.9547L16.6758 73.9664L16.7498 73.9789L16.8237 73.9922L16.8975 74.0061L16.9712 74.0209L17.0448 74.0363L17.1183 74.0525L17.1917 74.0695L17.2649 74.0872L17.3381 74.1056L17.4111 74.1248L17.4839 74.1447L17.5566 74.1654L17.6292 74.1868L17.7016 74.2089L17.7738 74.2319L17.8458 74.2555L17.9176 74.2799L17.9893 74.3049L18.0607 74.3308L18.1319 74.3574L18.2029 74.3846L18.2737 74.4126L18.3442 74.4414L18.4145 74.4709L18.4846 74.501L18.5544 74.5319L18.6239 74.5636L18.6931 74.5959L18.7621 74.629L18.8307 74.6628L18.8992 74.6973L18.9672 74.7324L19.035 74.7683L19.1024 74.8049L19.1696 74.8422L19.2363 74.8802L19.3028 74.9189L19.3689 74.9582L19.4347 74.9982L19.5 75.039L19.5651 75.0804L19.6296 75.1225L19.6939 75.1653L19.7578 75.2087L19.8212 75.2528L19.8843 75.2976L19.947 75.343L20.0092 75.3891L20.071 75.4359L20.1324 75.4832L20.1933 75.5313L20.2538 75.58L20.3139 75.6293L20.3734 75.6792L20.4325 75.7298L20.4912 75.781L20.5493 75.8328L20.607 75.8853L20.6642 75.9383L20.7208 75.9919L20.777 76.0461L20.8326 76.101L20.8878 76.1564L20.9424 76.2125L20.9964 76.2691L21.05 76.3263L21.103 76.3841L21.1554 76.4424L21.2073 76.5013L21.2586 76.5607L21.3094 76.6207L21.3595 76.6812L21.4091 76.7424L21.4581 76.804L21.5065 76.8661L21.5543 76.9288L21.6015 76.992L21.6482 77.0557L21.6941 77.1199L21.7395 77.1846L21.7842 77.2499L21.8283 77.3156L21.8718 77.3818L21.9146 77.4484L21.9568 77.5156L21.9983 77.5831L22.0392 77.6512L22.0793 77.7197L22.1188 77.7887L22.1577 77.8581L22.1959 77.9279L22.2334 77.9982L22.2702 78.0688L22.3062 78.1399L22.3417 78.2114L22.3764 78.2833L22.4104 78.3556L22.4436 78.4283L22.4762 78.5013L22.508 78.5748L22.5392 78.6486L22.5696 78.7227L22.5992 78.7973L22.6282 78.8721L22.6564 78.9473L22.6838 79.0228L22.7105 79.0987L22.7364 79.1748L22.7616 79.2513L22.786 79.328L22.8097 79.4051L22.8325 79.4824L22.8547 79.56L22.876 79.6379L22.8965 79.7161L22.9163 79.7945L22.9354 79.8732L22.9536 79.9521L22.971 80.0312L22.9876 80.1106L23.0035 80.1902L23.0185 80.2699L23.0328 80.35L23.0462 80.4302L23.0588 80.5105L23.0706 80.591L23.0817 80.6718L23.0919 80.7527L23.1013 80.8337L23.1098 80.9148L23.1176 80.9961L23.1246 81.0776L23.1307 81.1591L23.1359 81.2408L23.1404 81.3226L23.144 81.4045L23.1468 81.4864L23.1488 81.5685L23.1499 81.6506L23.1503 81.7328L23.1497 81.8151L23.1483 81.8973L23.1462 81.9796L23.1431 82.062L23.1392 82.1443L23.1345 82.2268L23.129 82.3091L23.1226 82.3915L23.1154 82.4739L23.1073 82.5562L23.0984 82.6386L23.0887 82.7209L23.0781 82.8031L23.0666 82.8853L23.0544 82.9675L23.0412 83.0495L23.0273 83.1315L23.0125 83.2134L22.9969 83.2952L22.9804 83.3769L22.963 83.4584L22.9449 83.5399L22.9259 83.6212L22.9061 83.7024L22.8854 83.7835L22.8639 83.8643L22.8416 83.9451L22.8184 84.0257L22.7944 84.106L22.7696 84.1862L22.7439 84.2662L22.7174 84.3459L22.6901 84.4255L22.662 84.5048L22.633 84.5839L22.6032 84.6628L22.5726 84.7414L22.5412 84.8198L22.509 84.8979L22.4759 84.9757L22.442 85.0533L22.4074 85.1305L22.3719 85.2074L22.3356 85.2841L22.2986 85.3604L22.2607 85.4364L22.2221 85.5121L22.1826 85.5875L22.1424 85.6624L22.1013 85.7371L22.0595 85.8113L22.017 85.8852L21.9736 85.9588L21.9295 86.0319L21.8845 86.1047L21.8388 86.177L21.7925 86.249L21.7452 86.3205L21.6973 86.3915L21.6486 86.4622L21.5991 86.5324L21.549 86.6021L21.4981 86.6714L21.4464 86.7402L21.394 86.8086L21.3409 86.8765L21.2871 86.9439L21.2325 87.0108L21.1772 87.0771L21.1213 87.143L21.0646 87.2084L21.0072 87.2732L20.9491 87.3375L20.8904 87.4013L20.831 87.4645L20.7709 87.5271L20.7101 87.5893L20.6486 87.6508L20.5865 87.7118L20.5238 87.7721L20.4604 87.8319L20.3963 87.8911L20.3316 87.9497L20.2663 88.0076L20.2003 88.065L20.1338 88.1218L20.0666 88.1778L19.9988 88.2334L19.9304 88.2881L19.8613 88.3424L19.7918 88.3958L19.7216 88.4487L19.6508 88.5009L19.5795 88.5524L19.5077 88.6033L19.4352 88.6534L19.3622 88.7029L19.2886 88.7517L19.2145 88.7997L19.14 88.8471L19.0648 88.8937L18.9891 88.9396L18.913 88.9848L18.8363 89.0292L18.7592 89.0729L18.6815 89.1159L18.6034 89.1581L18.5247 89.1996L18.4457 89.2403L18.3661 89.2803L18.2862 89.3194L18.2057 89.3578L18.1248 89.3955L18.0436 89.4323L17.9618 89.4684L17.8797 89.5036L17.7972 89.5381L17.7142 89.5717L17.6309 89.6046L17.5472 89.6366L17.4631 89.6679L17.3786 89.6983L17.2939 89.7278L17.2087 89.7566L17.1232 89.7845L17.0373 89.8116L16.9512 89.8379L16.8648 89.8633L16.778 89.8878L16.6909 89.9115L16.6035 89.9344L16.5159 89.9564L16.428 89.9775L16.3398 89.9978L16.2513 90.0172L16.1626 90.0357L16.0737 90.0534L15.9845 90.0702L15.8951 90.0861L15.8055 90.1011L15.7158 90.1152L15.6258 90.1285L15.5356 90.1409L15.4452 90.1523L15.3547 90.1629L15.264 90.1726L15.1732 90.1814L15.0822 90.1893L14.9911 90.1963L14.8999 90.2023L14.8085 90.2075L14.717 90.2118L14.6255 90.2152L14.5339 90.2176L14.4422 90.2192L14.3504 90.2198L14.2585 90.2195L14.1667 90.2183L14.0748 90.2162L13.9828 90.2131L13.8908 90.2092L13.7988 90.2043L13.7068 90.1985L13.6149 90.1918L13.5228 90.1842L13.431 90.1756L13.339 90.1662L13.2472 90.1558L13.1553 90.1445L13.0636 90.1322L12.9719 90.1191L12.8803 90.105L12.7888 90.09L12.6974 90.0741L12.6061 90.0573L12.5149 90.0395L12.4239 90.0208L12.333 90.0013L12.2422 89.9807L12.1516 89.9593L12.0612 89.937L11.9709 89.9137L11.8808 89.8896L11.791 89.8645L11.7013 89.8385L11.6118 89.8117L11.5226 89.7839L11.4336 89.7552L11.3448 89.7256L11.2563 89.6951L11.168 89.6637L11.08 89.6314L10.9923 89.5982L10.9049 89.5641L10.8178 89.5291L10.731 89.4933L10.6444 89.4565L10.5583 89.4189L10.4724 89.3804L10.3869 89.341L10.3018 89.3008L10.217 89.2596L10.1326 89.2176L10.0486 89.1748L9.96487 89.1311L9.88163 89.0865L9.79878 89.0411L9.71631 88.9948L9.63434 88.9477L9.55276 88.8997L9.47162 88.8509L9.39093 88.8013L9.31069 88.7508L9.23095 88.6995L9.15166 88.6474L9.07288 88.5944L8.99454 88.5407L8.91671 88.4861L8.83946 88.4308L8.76265 88.3746L8.68641 88.3176L8.61069 88.2599L8.53553 88.2013L8.46095 88.1421L8.38688 88.082L8.31338 88.0211L8.24045 87.9595L8.16816 87.8971L8.09644 87.8339L8.0253 87.7701L7.95479 87.7054L7.88485 87.64L7.81561 87.574L7.74695 87.5072L7.67892 87.4396L7.6116 87.3713L7.54484 87.3024L7.47885 87.2327L7.41343 87.1623L7.34878 87.0913L7.28476 87.0196L7.22144 86.9471L7.15882 86.874L7.09691 86.8003L7.03569 86.7259L6.97523 86.6509L6.91548 86.5752L6.85649 86.4989L6.7982 86.4219L6.74067 86.3443L6.68391 86.2662L6.62791 86.1873L6.57267 86.1079L6.51826 86.028L6.46455 85.9474L6.41167 85.8662L6.35958 85.7845L6.30828 85.7022L6.25779 85.6194L6.20812 85.536L6.15926 85.4521L6.11122 85.3676L6.06402 85.2827L6.01765 85.1972L5.97213 85.1112L5.92745 85.0247L5.88362 84.9377L5.84065 84.8502L5.79855 84.7623L5.75732 84.6739L5.71695 84.585L5.67747 84.4957L5.63888 84.4059L5.60116 84.3157L5.56435 84.2252L5.52843 84.1341L5.49342 84.0427L5.45932 83.9508L5.42613 83.8586L5.39385 83.766L5.3625 83.673L5.33207 83.5798L5.30257 83.4861L5.274 83.3921L5.24638 83.2977L5.21969 83.203L5.19395 83.108L5.16916 83.0127L5.14532 82.9171L5.12244 82.8212L5.10051 82.7251L5.07955 82.6287L5.05956 82.532L5.04054 82.435L5.02248 82.3379L5.0054 82.2405L4.9893 82.1428L4.97418 82.045L4.96005 81.9469L4.94689 81.8487L4.94236 81.8121ZM8.54998 81.7706L6.09094 81.7989L6.10254 81.8794L6.11593 81.9659L6.1302 82.0526L6.14529 82.1386L6.1613 82.2248L6.17813 82.3105L6.19583 82.3961L6.21435 82.4813L6.23376 82.5664L6.25402 82.6513L6.27511 82.7359L6.29704 82.8202L6.31985 82.9044L6.34262 82.9853L6.36789 83.0715L6.39315 83.1547L6.41924 83.2375L6.4461 83.3199L6.47384 83.4022L6.50242 83.4841L6.53175 83.5656L6.56185 83.6468L6.59284 83.7276L6.62453 83.808L6.65712 83.8882L6.6904 83.9677L6.72457 84.0472L6.75944 84.1261L6.79508 84.2046L6.83148 84.2826L6.86871 84.3604L6.9067 84.4377L6.94532 84.5144L6.98484 84.591L7.025 84.6667L7.06604 84.7423L7.1076 84.8172L7.15017 84.892L7.19319 84.966L7.23703 85.0396L7.28164 85.1127L7.32689 85.1853L7.37296 85.2576L7.41954 85.3291L7.46695 85.4003L7.515 85.4708L7.56368 85.5408L7.61312 85.6103L7.66327 85.6794L7.71386 85.7477L7.76534 85.8156L7.8174 85.883L7.87009 85.9497L7.92335 86.0158L7.97738 86.0815L8.03191 86.1465L8.08709 86.2109L8.14302 86.2748L8.19934 86.3379L8.25642 86.4006L8.31408 86.4626L8.37224 86.524L8.43098 86.5847L8.49041 86.645L8.55023 86.7044L8.61069 86.7633L8.67178 86.8216L8.73332 86.8791L8.79549 86.936L8.85811 86.9923L8.92123 87.0479L8.98493 87.1029L9.04921 87.1572L9.1138 87.2106L9.17902 87.2635L9.24476 87.3158L9.31088 87.3673L9.37744 87.4181L9.44464 87.4683L9.51216 87.5177L9.58019 87.5664L9.64866 87.6144L9.71758 87.6617L9.78681 87.7083L9.85656 87.7541L9.92675 87.7993L9.99732 87.8437L10.0682 87.8873L10.1396 87.9302L10.2114 87.9723L10.2834 88.0138L10.3559 88.0545L10.4288 88.0944L10.5018 88.1335L10.5754 88.172L10.6493 88.2097L10.7234 88.2466L10.798 88.2827L10.8728 88.318L10.9479 88.3527L11.0233 88.3865L11.099 88.4195L11.175 88.4518L11.2512 88.4833L11.3277 88.514L11.4045 88.5439L11.4815 88.5731L11.5588 88.6014L11.6362 88.629L11.714 88.6558L11.7918 88.6817L11.87 88.7069L11.9483 88.7313L12.0268 88.7549L12.1055 88.7777L12.1843 88.7997L12.2633 88.8209L12.3425 88.8413L12.4218 88.8609L12.5013 88.8797L12.5809 88.8976L12.6606 88.9148L12.7404 88.9312L12.8204 88.9467L12.9004 88.9615L12.9805 88.9755L13.0607 88.9886L13.141 89.0009L13.2213 89.0125L13.3017 89.0232L13.3821 89.0331L13.4626 89.0422L13.5431 89.0505L13.6237 89.058L13.7043 89.0647L13.7848 89.0705L13.8654 89.0756L13.946 89.0799L14.0265 89.0833L14.107 89.086L14.1874 89.0878L14.2678 89.0889L14.3483 89.0891L14.4286 89.0886L14.5088 89.0872L14.589 89.0851L14.6691 89.0822L14.7491 89.0784L14.829 89.0739L14.9088 89.0686L14.9885 89.0625L15.0681 89.0556L15.1475 89.0479L15.2268 89.0394L15.3059 89.0302L15.385 89.0201L15.4637 89.0093L15.5425 88.9977L15.6209 88.9854L15.6992 88.9722L15.7774 88.9583L15.8552 88.9437L15.9329 88.9282L16.0104 88.9121L16.0877 88.8951L16.1646 88.8774L16.2414 88.8589L16.318 88.8397L16.3943 88.8198L16.4703 88.7991L16.5461 88.7776L16.6216 88.7555L16.6968 88.7325L16.7717 88.7089L16.8463 88.6845L16.9206 88.6594L16.9946 88.6336L17.0683 88.6071L17.1417 88.5799L17.2146 88.5519L17.2873 88.5233L17.3597 88.4939L17.4316 88.4639L17.5032 88.4331L17.5745 88.4017L17.6453 88.3696L17.7158 88.3367L17.786 88.3033L17.8557 88.2691L17.925 88.2343L17.9939 88.1989L18.0624 88.1627L18.1305 88.126L18.1981 88.0885L18.2653 88.0504L18.3321 88.0117L18.3985 87.9723L18.4643 87.9324L18.5298 87.8918L18.5948 87.8505L18.6592 87.8087L18.7233 87.7662L18.7868 87.7233L18.8498 87.6796L18.9124 87.6353L18.9744 87.5905L19.036 87.5451L19.0971 87.4991L19.1576 87.4526L19.2176 87.4054L19.2771 87.3577L19.3361 87.3095L19.3944 87.2607L19.4524 87.2114L19.5097 87.1615L19.5665 87.1111L19.6227 87.0602L19.6784 87.0088L19.7335 86.9568L19.788 86.9043L19.842 86.8514L19.8954 86.7979L19.9482 86.7439L20.0004 86.6896L20.0521 86.6346L20.103 86.5793L20.1534 86.5235L20.2033 86.4672L20.2525 86.4104L20.3011 86.3532L20.349 86.2956L20.3963 86.2375L20.443 86.1791L20.4892 86.1202L20.5346 86.0608L20.5794 86.0012L20.6236 85.9411L20.6671 85.8806L20.71 85.8197L20.7522 85.7584L20.7938 85.6967L20.8347 85.6347L20.875 85.5724L20.9146 85.5097L20.9535 85.4466L20.9918 85.3832L21.0293 85.3196L21.0662 85.2555L21.1024 85.1912L21.138 85.1265L21.1729 85.0615L21.207 84.9963L21.2405 84.9307L21.2733 84.8649L21.3054 84.7988L21.3368 84.7325L21.3676 84.6658L21.3975 84.599L21.4268 84.5319L21.4554 84.4645L21.4833 84.3969L21.5105 84.3292L21.5369 84.2611L21.5627 84.1929L21.5878 84.1245L21.6121 84.0559L21.6358 83.987L21.6586 83.9181L21.6808 83.8489L21.7023 83.7796L21.723 83.7101L21.7431 83.6405L21.7623 83.5708L21.781 83.5009L21.7988 83.4309L21.8159 83.3607L21.8323 83.2905L21.8481 83.2201L21.863 83.1496L21.8772 83.0791L21.8907 83.0084L21.9035 82.9378L21.9156 82.867L21.9269 82.7961L21.9375 82.7253L21.9473 82.6543L21.9565 82.5834L21.9649 82.5124L21.9726 82.4414L21.9795 82.3703L21.9858 82.2992L21.9913 82.2282L21.9961 82.1571L22.0001 82.0861L22.0035 82.0151L22.0061 81.944L22.008 81.8731L22.0091 81.8022L22.0096 81.7313L22.0093 81.6605L22.0083 81.5898L22.0066 81.5191L22.0042 81.4485L22.0011 81.3779L21.9972 81.3075L21.9927 81.2372L21.9874 81.167L21.9815 81.0969L21.9748 81.0269L21.9674 80.957L21.9593 80.8873L21.9505 80.8177L21.941 80.7482L21.9309 80.6789L21.92 80.6098L21.9085 80.5408L21.8962 80.4721L21.8833 80.4034L21.8696 80.335L21.8554 80.2668L21.8404 80.1987L21.8247 80.131L21.8084 80.0634L21.7914 79.996L21.7737 79.9288L21.7554 79.8619L21.7364 79.7952L21.7167 79.7288L21.6964 79.6626L21.6755 79.5967L21.6539 79.531L21.6316 79.4656L21.6087 79.4005L21.5851 79.3357L21.5609 79.2711L21.5361 79.2069L21.5107 79.143L21.4846 79.0794L21.4578 79.0161L21.4305 78.9531L21.4026 78.8905L21.3741 78.8281L21.345 78.7662L21.3152 78.7045L21.2848 78.6432L21.254 78.5823L21.2223 78.5216L21.1903 78.4615L21.1575 78.4016L21.1243 78.3422L21.0904 78.2831L21.056 78.2244L21.021 78.1662L20.9854 78.1083L20.9493 78.0508L20.9127 77.9938L20.8754 77.937L20.8378 77.8809L20.7995 77.8251L20.7606 77.7696L20.7213 77.7147L20.6815 77.6603L20.641 77.6061L20.6002 77.5526L20.5588 77.4994L20.5169 77.4467L20.4745 77.3946L20.4316 77.3427L20.3882 77.2914L20.3444 77.2407L20.2999 77.1903L20.2552 77.1405L20.21 77.0912L20.1641 77.0422L20.118 76.994L20.0714 76.9461L20.0243 76.8987L19.9768 76.852L19.9289 76.8057L19.8805 76.7598L19.8317 76.7145L19.7825 76.6699L19.7329 76.6256L19.6828 76.5819L19.6325 76.5389L19.5816 76.4962L19.5304 76.4542L19.4789 76.4127L19.4268 76.3717L19.3747 76.3313L19.3219 76.2915L19.2689 76.2522L19.2154 76.2134L19.1617 76.1753L19.1078 76.1378L19.0532 76.1007L18.9986 76.0643L18.9435 76.0285L18.8881 75.9932L18.8325 75.9586L18.7765 75.9244L18.7202 75.8909L18.6637 75.858L18.6069 75.8257L18.5497 75.7939L18.4925 75.7629L18.4347 75.7323L18.3768 75.7024L18.3187 75.6731L18.2602 75.6443L18.2018 75.6163L18.1427 75.5887L18.0839 75.562L18.0243 75.5356L17.965 75.51L17.9051 75.4849L17.8453 75.4605L17.7852 75.4367L17.7249 75.4135L17.6644 75.391L17.6038 75.3691L17.5429 75.3477L17.482 75.3271L17.4209 75.3071L17.3596 75.2876L17.2981 75.2688L17.2366 75.2506L17.175 75.2331L17.1131 75.2162L17.0513 75.2L16.9892 75.1843L16.9271 75.1693L16.865 75.1549L16.8026 75.1412L16.7402 75.1281L16.6778 75.1156L16.6154 75.1038L16.5528 75.0926L16.49 75.082L16.4275 75.0721L16.3647 75.0628L16.3019 75.0541L16.2392 75.0461L16.1764 75.0387L16.1134 75.0319L16.0509 75.0258L15.9878 75.0203L15.925 75.0154L15.8623 75.0112L15.7994 75.0076L15.7367 75.0046L15.674 75.0023L15.6111 75.0005L15.5486 74.9995L15.4859 74.999L15.4233 74.9992L15.3608 74.9999L15.2985 75.0013L15.2361 75.0034L15.1738 75.006L15.1117 75.0093L15.0495 75.0132L14.9874 75.0177L14.9257 75.0227L14.8638 75.0285L14.8023 75.0348L14.7406 75.0418L14.6792 75.0493L14.618 75.0575L14.5567 75.0662L14.4958 75.0756L14.435 75.0855L14.3744 75.0961L14.3139 75.1072L14.2534 75.119L14.1933 75.1314L14.1334 75.1443L14.0736 75.1578L14.0139 75.1719L13.9547 75.1865L13.8954 75.2018L13.8365 75.2176L13.7777 75.234L13.7193 75.251L13.6609 75.2685L13.6028 75.2866L13.5451 75.3053L13.4876 75.3245L13.4301 75.3443L13.3732 75.3646L13.3163 75.3855L13.2599 75.4069L13.2036 75.4288L13.1475 75.4513L13.092 75.4744L13.0365 75.498L12.9814 75.522L12.9267 75.5467L12.8721 75.5718L12.8178 75.5975L12.764 75.6236L12.7104 75.6504L12.6573 75.6776L12.6044 75.7053L12.5517 75.7335L12.4996 75.7621L12.4476 75.7914L12.3962 75.821L12.3449 75.8513L12.2942 75.8818L12.2436 75.913L12.1935 75.9445L12.1438 75.9766L12.0945 76.0091L12.0455 76.0422L11.9969 76.0756L11.9488 76.1094L11.9009 76.1439L11.8535 76.1786L11.8065 76.2139L11.76 76.2494L11.7137 76.2856L11.668 76.3221L11.6226 76.359L11.5776 76.3964L11.5332 76.434L11.489 76.4723L11.4454 76.5108L11.4022 76.5498L11.3595 76.589L11.3171 76.6289L11.2753 76.6689L11.2337 76.7095L11.1928 76.7503L11.1523 76.7915L11.1122 76.833L11.0726 76.8751L11.0335 76.9174L10.9949 76.96L10.9566 77.0031L10.919 77.0462L10.8817 77.09L10.845 77.134L10.8088 77.1783L10.7729 77.2229L10.7376 77.2678L10.7029 77.3129L10.6686 77.3586L10.6346 77.4045L10.6015 77.4505L10.5686 77.4971L10.5365 77.5436L10.5046 77.5905L10.4733 77.6378L10.4425 77.6853L10.4124 77.733L10.3826 77.7811L10.3534 77.8292L10.3247 77.8779L10.2966 77.9264L10.269 77.9754L10.2418 78.0246L10.2152 78.074L10.1893 78.1236L10.1637 78.1734L10.1387 78.2235L10.1142 78.2737L10.0904 78.3239L10.0669 78.3748L10.0441 78.4253L10.0218 78.4763L10 78.5275L9.97881 78.5788L9.95819 78.6301L9.93808 78.6817L9.91842 78.7335L9.89945 78.7853L9.88093 78.8374L9.86299 78.8895L9.84561 78.9417L9.82881 78.994L9.81252 79.0464L9.79674 79.0992L9.7816 79.1518L9.76696 79.2046L9.7529 79.2575L9.73934 79.3104L9.72636 79.3636L9.71395 79.4166L9.70212 79.4697L9.69079 79.523L9.67997 79.5764L9.66985 79.6295L9.66018 79.683L9.65108 79.7363L9.64249 79.7899L9.63453 79.8432L9.62702 79.897L9.62021 79.9503L9.61385 80.0039L9.60806 80.0574L9.60284 80.1109L9.59813 80.1645L9.594 80.2179L9.59043 80.2715L9.58738 80.325L9.5849 80.3783L9.58292 80.4319L9.58152 80.4852L9.5807 80.5385L9.58038 80.5917L9.58051 80.6281L11.983 80.6005L11.9831 80.5841L11.9835 80.5535L11.9843 80.5228L11.9853 80.4921L11.9868 80.4614L11.9885 80.4306L11.9905 80.3998L11.993 80.369L11.9957 80.3381L11.9988 80.3072L12.0021 80.2763L12.0058 80.2454L12.0099 80.2144L12.0143 80.1835L12.019 80.1526L12.0241 80.1216L12.0295 80.0906L12.0352 80.0597L12.0413 80.0287L12.0477 79.9978L12.0545 79.9669L12.0616 79.936L12.069 79.9051L12.0768 79.8743L12.0849 79.8435L12.0933 79.8127L12.1021 79.782L12.1112 79.7513L12.1207 79.7206L12.1305 79.69L12.1407 79.6595L12.1512 79.6289L12.162 79.5985L12.1731 79.5681L12.1846 79.5378L12.1965 79.5076L12.2086 79.4774L12.2212 79.4473L12.234 79.4174L12.2472 79.3874L12.2607 79.3576L12.2746 79.3278L12.2888 79.2982L12.3034 79.2686L12.3182 79.2392L12.3334 79.2098L12.349 79.1807L12.3649 79.1515L12.3811 79.1225L12.3976 79.0937L12.4145 79.0649L12.4317 79.0363L12.4492 79.0079L12.4671 78.9795L12.4853 78.9513L12.5038 78.9232L12.5225 78.8953L12.5417 78.8676L12.5612 78.8399L12.581 78.8125L12.6011 78.7852L12.6216 78.7581L12.6423 78.7311L12.6634 78.7044L12.6848 78.6778L12.7064 78.6513L12.7285 78.6251L12.7507 78.5991L12.7734 78.5731L12.7963 78.5475L12.8195 78.522L12.8431 78.4967L12.8669 78.4717L12.8911 78.4468L12.9155 78.4222L12.9403 78.3977L12.9653 78.3735L12.9906 78.3495L13.0162 78.3257L13.0421 78.3022L13.0683 78.2789L13.0948 78.2558L13.1215 78.2329L13.1485 78.2104L13.1758 78.188L13.2034 78.1659L13.2313 78.144L13.2594 78.1225L13.2878 78.1011L13.3165 78.08L13.3454 78.0592L13.3746 78.0386L13.404 78.0184L13.4337 77.9983L13.4637 77.9786L13.4939 77.9592L13.5243 77.94L13.555 77.921L13.586 77.9025L13.6172 77.8841L13.6486 77.8661L13.6802 77.8484L13.7121 77.831L13.7442 77.8139L13.7766 77.797L13.8091 77.7805L13.8419 77.7644L13.8749 77.7484L13.9081 77.7329L13.9416 77.7177L13.9752 77.7027L14.009 77.6881L14.0431 77.6738L14.0773 77.6599L14.1117 77.6462L14.1464 77.633L14.1812 77.62L14.2162 77.6074L14.2513 77.5951L14.2867 77.5832L14.3222 77.5716L14.3579 77.5603L14.3938 77.5495L14.4298 77.5389L14.4661 77.5288L14.5025 77.519L14.5389 77.5095L14.5756 77.5003L14.6124 77.4916L14.6494 77.4832L14.6864 77.4752L14.7237 77.4676L14.7611 77.4603L14.7985 77.4534L14.8362 77.4469L14.8739 77.4407L14.9117 77.4349L14.9497 77.4296L14.9878 77.4246L15.0259 77.4199L15.0642 77.4157L15.1026 77.4118L15.1411 77.4083L15.1796 77.4053L15.2183 77.4025L15.257 77.4003L15.2958 77.3984L15.3347 77.3969L15.3736 77.3957L15.4127 77.395L15.4517 77.3947L15.4908 77.3948L15.53 77.3952L15.5693 77.3961L15.6085 77.3974L15.6479 77.399L15.6872 77.4011L15.7266 77.4036L15.766 77.4065L15.8054 77.4098L15.8449 77.4135L15.8843 77.4176L15.9238 77.4222L15.9633 77.4271L16.0028 77.4324L16.0423 77.4381L16.0817 77.4443L16.1212 77.4509L16.1606 77.4579L16.2001 77.4653L16.2395 77.4731L16.2789 77.4813L16.3182 77.49L16.3575 77.499L16.3968 77.5085L16.4361 77.5183L16.4752 77.5286L16.5143 77.5393L16.5533 77.5504L16.5923 77.562L16.6313 77.5739L16.6701 77.5862L16.7089 77.599L16.7476 77.6121L16.7862 77.6257L16.8247 77.6397L16.8631 77.6541L16.9015 77.6689L16.9397 77.6842L16.9778 77.6998L17.0158 77.7158L17.0537 77.7323L17.0914 77.7491L17.1291 77.7664L17.1666 77.7841L17.204 77.8021L17.2412 77.8206L17.2783 77.8395L17.3152 77.8588L17.352 77.8785L17.3886 77.8985L17.4251 77.919L17.4614 77.9399L17.4975 77.9611L17.5335 77.9829L17.5693 78.0049L17.6049 78.0273L17.6403 78.0502L17.6755 78.0734L17.7106 78.097L17.7454 78.121L17.78 78.1455L17.8144 78.1702L17.8486 78.1954L17.8826 78.2209L17.9164 78.2468L17.9499 78.2731L17.9832 78.2997L18.0163 78.3268L18.0491 78.3542L18.0817 78.382L18.114 78.4101L18.1462 78.4386L18.178 78.4675L18.2095 78.4967L18.2409 78.5263L18.272 78.5562L18.3027 78.5865L18.3332 78.6171L18.3635 78.6481L18.3934 78.6794L18.423 78.7111L18.4524 78.7431L18.4815 78.7754L18.5103 78.8081L18.5387 78.8411L18.5669 78.8745L18.5948 78.9082L18.6223 78.9422L18.6495 78.9765L18.6764 79.0111L18.703 79.046L18.7293 79.0813L18.7552 79.1169L18.7808 79.1527L18.806 79.1889L18.8309 79.2254L18.8554 79.2621L18.8797 79.2992L18.9035 79.3366L18.927 79.3742L18.9501 79.4122L18.9729 79.4504L18.9953 79.4888L19.0173 79.5276L19.039 79.5666L19.0603 79.6059L19.0812 79.6455L19.1017 79.6853L19.1219 79.7254L19.1416 79.7657L19.161 79.8063L19.1799 79.8471L19.1984 79.8882L19.2166 79.9294L19.2344 79.9709L19.2517 80.0127L19.2686 80.0547L19.2852 80.0969L19.3013 80.1394L19.317 80.182L19.3323 80.2248L19.3471 80.2678L19.3615 80.3111L19.3755 80.3545L19.389 80.3981L19.4022 80.442L19.4149 80.486L19.4271 80.5301L19.4389 80.5745L19.4503 80.619L19.4612 80.6638L19.4717 80.7086L19.4817 80.7536L19.4913 80.7988L19.5004 80.8441L19.509 80.8896L19.5173 80.9352L19.525 80.981L19.5323 81.0268L19.5391 81.0728L19.5455 81.1189L19.5514 81.1652L19.5568 81.2115L19.5617 81.2579L19.5662 81.3045L19.5701 81.3512L19.5737 81.3979L19.5767 81.4448L19.5793 81.4917L19.5814 81.5387L19.583 81.5858L19.5841 81.6329L19.5847 81.6801L19.5849 81.7274L19.5846 81.7747L19.5838 81.8221L19.5824 81.8695L19.5806 81.917L19.5784 81.9645L19.5756 82.012L19.5723 82.0596L19.5686 82.1071L19.5643 82.1547L19.5595 82.2023L19.5543 82.2499L19.5485 82.2975L19.5423 82.3451L19.5355 82.3927L19.5283 82.4403L19.5206 82.4878L19.5124 82.5353L19.5036 82.5828L19.4944 82.6303L19.4847 82.6777L19.4745 82.7251L19.4638 82.7724L19.4525 82.8196L19.4408 82.8668L19.4287 82.914L19.4159 82.9611L19.4027 83.008L19.389 83.055L19.3748 83.1017L19.3601 83.1485L19.3449 83.1951L19.3293 83.2417L19.3131 83.2881L19.2964 83.3344L19.2793 83.3806L19.2616 83.4267L19.2434 83.4726L19.2248 83.5184L19.2056 83.564L19.186 83.6096L19.1659 83.6549L19.1453 83.7001L19.1242 83.7452L19.1027 83.7901L19.0806 83.8349L19.0581 83.8794L19.035 83.9237L19.0115 83.9679L18.9875 84.0119L18.9631 84.0557L18.9382 84.0993L18.9128 84.1427L18.8869 84.1859L18.8605 84.2289L18.8337 84.2716L18.8064 84.3141L18.7787 84.3564L18.7505 84.3985L18.7218 84.4403L18.6927 84.4819L18.6631 84.5232L18.633 84.5643L18.6026 84.6051L18.5716 84.6456L18.5402 84.6859L18.5084 84.7259L18.476 84.7656L18.4433 84.805L18.4102 84.8442L18.3766 84.8831L18.3425 84.9216L18.308 84.9599L18.2732 84.9978L18.2379 85.0354L18.2021 85.0728L18.1659 85.1098L18.1294 85.1464L18.0924 85.1828L18.055 85.2188L18.0172 85.2544L17.9789 85.2898L17.9403 85.3247L17.9013 85.3594L17.8619 85.3936L17.8221 85.4275L17.7819 85.461L17.7414 85.4942L17.7004 85.527L17.659 85.5594L17.6173 85.5914L17.5753 85.6231L17.5328 85.6543L17.49 85.6852L17.4468 85.7156L17.4033 85.7456L17.3594 85.7753L17.3152 85.8046L17.2706 85.8334L17.2257 85.8617L17.1805 85.8897L17.1349 85.9173L17.089 85.9443L17.0428 85.9711L16.9962 85.9973L16.9493 86.0231L16.9022 86.0484L16.8547 86.0733L16.8069 86.0978L16.7588 86.1218L16.7105 86.1453L16.6618 86.1684L16.6128 86.191L16.5636 86.2131L16.5141 86.2348L16.4644 86.2559L16.4143 86.2767L16.364 86.2969L16.3134 86.3166L16.2626 86.3359L16.2115 86.3546L16.1602 86.3728L16.1087 86.3906L16.057 86.4079L16.005 86.4246L15.9527 86.4409L15.9003 86.4566L15.8477 86.4718L15.7948 86.4866L15.7417 86.5008L15.6884 86.5144L15.635 86.5276L15.5813 86.5402L15.5276 86.5523L15.4735 86.5639L15.4194 86.5749L15.3651 86.5854L15.3106 86.5954L15.2559 86.6048L15.2011 86.6137L15.1462 86.6221L15.0911 86.6299L15.0359 86.6372L14.9806 86.6438L14.9251 86.65L14.8695 86.6556L14.8138 86.6607L14.758 86.6652L14.7022 86.6691L14.6462 86.6725L14.5901 86.6754L14.534 86.6776L14.4777 86.6794L14.4214 86.6805L14.3651 86.681L14.3086 86.6811L14.2521 86.6805L14.1956 86.6794L14.139 86.6777L14.0824 86.6754L14.0258 86.6726L13.9691 86.6692L13.9124 86.6652L13.8557 86.6607L13.799 86.6555L13.7423 86.6499L13.6856 86.6436L13.6289 86.6367L13.5723 86.6293L13.5157 86.6213L13.459 86.6127L13.4024 86.6035L13.3459 86.5939L13.2894 86.5836L13.2329 86.5726L13.1765 86.5612L13.1202 86.5491L13.064 86.5366L13.0078 86.5234L12.9517 86.5096L12.8957 86.4952L12.8398 86.4803L12.784 86.4648L12.7283 86.4488L12.6727 86.4321L12.6172 86.4149L12.5619 86.3971L12.5067 86.3788L12.4516 86.3598L12.3967 86.3403L12.3419 86.3203L12.2873 86.2996L12.2328 86.2784L12.1785 86.2566L12.1244 86.2343L12.0704 86.2114L12.0166 86.1879L11.963 86.1639L11.9097 86.1393L11.8565 86.1142L11.8035 86.0884L11.7508 86.0622L11.6983 86.0354L11.646 86.0081L11.5939 85.9801L11.542 85.9517L11.4904 85.9227L11.4391 85.8931L11.388 85.863L11.3372 85.8324L11.2867 85.8012L11.2363 85.7695L11.1863 85.7373L11.1366 85.7046L11.0872 85.6713L11.038 85.6374L10.9892 85.6031L10.9407 85.5682L10.8924 85.5329L10.8446 85.497L10.797 85.4606L10.7498 85.4236L10.7028 85.3862L10.6563 85.3483L10.61 85.3099L10.5641 85.271L10.5186 85.2315L10.4735 85.1916L10.4287 85.1512L10.3843 85.1103L10.3403 85.0689L10.2966 85.0271L10.2533 84.9848L10.2104 84.942L10.168 84.8987L10.1259 84.855L10.0843 84.8108L10.043 84.7662L10.0022 84.7211L9.96181 84.6755L9.92179 84.6296L9.88227 84.5831L9.8432 84.5363L9.80451 84.489L9.76632 84.4413L9.72859 84.3931L9.6913 84.3446L9.65445 84.2956L9.61811 84.2462L9.58222 84.1964L9.54678 84.1462L9.51184 84.0955L9.47742 84.0446L9.4435 83.9932L9.41002 83.9414L9.37706 83.8893L9.34461 83.8367L9.31266 83.7838L9.28122 83.7305L9.2503 83.6769L9.21988 83.623L9.19003 83.5686L9.1607 83.5139L9.13187 83.4589L9.10361 83.4036L9.07587 83.3479L9.0487 83.2919L9.02203 83.2355L8.99594 83.1789L8.97042 83.122L8.94541 83.0647L8.92098 83.0071L8.89718 82.9493L8.87389 82.8911L8.85117 82.8327L8.82902 82.7741L8.80751 82.7151L8.78651 82.6558L8.76615 82.5963L8.74636 82.5366L8.72714 82.4766L8.70856 82.4163L8.69055 82.3559L8.67318 82.2952L8.65638 82.2342L8.64015 82.1731L8.62456 82.1117L8.60961 82.0501L8.59529 81.9883L8.58154 81.9264L8.56843 81.8642L8.55596 81.8019L8.54998 81.7706ZM13.1702 81.0045L13.3454 81.7155L9.7121 81.7573L9.71987 81.7908L9.73215 81.8413L9.74494 81.8917L9.75818 81.9417L9.77192 81.9917L9.78618 82.0413L9.80101 82.091L9.81615 82.1401L9.83193 82.1894L9.84803 82.2381L9.86477 82.2869L9.88195 82.3354L9.89958 82.3836L9.91765 82.4317L9.93617 82.4793L9.95526 82.5269L9.97473 82.5742L9.99465 82.6212L10.0151 82.6681L10.0359 82.7145L10.0573 82.7608L10.079 82.8067L10.1012 82.8525L10.1238 82.8979L10.1469 82.9432L10.1704 82.988L10.1943 83.0326L10.2187 83.0769L10.2435 83.1209L10.2687 83.1646L10.2943 83.208L10.3203 83.251L10.3468 83.294L10.3736 83.3364L10.4008 83.3785L10.4285 83.4203L10.4565 83.4619L10.485 83.503L10.5138 83.5439L10.5429 83.5844L10.5725 83.6245L10.6024 83.6644L10.6328 83.7039L10.6635 83.743L10.6945 83.7818L10.7258 83.8202L10.7576 83.8582L10.7897 83.8959L10.8222 83.9333L10.855 83.9702L10.8881 84.0068L10.9215 84.043L10.9553 84.0788L10.9895 84.1143L11.0239 84.1493L11.0586 84.184L11.0937 84.2184L11.129 84.2522L11.1647 84.2857L11.2006 84.3188L11.237 84.3516L11.2735 84.3839L11.3103 84.4158L11.3475 84.4473L11.3848 84.4783L11.4225 84.509L11.4603 84.5392L11.4986 84.5691L11.537 84.5985L11.5758 84.6275L11.6148 84.6561L11.6539 84.6842L11.6933 84.712L11.7329 84.7393L11.7729 84.7662L11.813 84.7926L11.8534 84.8186L11.8939 84.8441L11.9346 84.8692L11.9757 84.894L12.0168 84.9182L12.0583 84.942L12.0997 84.9654L12.1415 84.9883L12.1834 85.0108L12.2255 85.0328L12.2677 85.0544L12.3102 85.0755L12.3529 85.0962L12.3955 85.1164L12.4385 85.1362L12.4816 85.1555L12.5248 85.1743L12.5681 85.1927L12.6116 85.2107L12.6552 85.2281L12.6989 85.2452L12.7428 85.2617L12.7868 85.2779L12.8307 85.2935L12.875 85.3086L12.9193 85.3234L12.9636 85.3376L13.008 85.3515L13.0526 85.3648L13.0972 85.3777L13.1419 85.39L13.1867 85.402L13.2315 85.4135L13.2764 85.4245L13.3213 85.435L13.3663 85.4452L13.4114 85.4548L13.4565 85.4639L13.5015 85.4726L13.5466 85.4809L13.5919 85.4887L13.637 85.4959L13.6822 85.5028L13.7275 85.5092L13.7726 85.5151L13.8179 85.5205L13.863 85.5255L13.9083 85.5301L13.9536 85.5342L13.9987 85.5378L14.0439 85.541L14.0891 85.5437L14.1341 85.546L14.1792 85.5477L14.2242 85.5491L14.2692 85.55L14.3142 85.5505L14.359 85.5504L14.4038 85.55L14.4486 85.549L14.4933 85.5477L14.5379 85.5459L14.5825 85.5437L14.6269 85.541L14.6712 85.5378L14.7155 85.5342L14.7597 85.5302L14.8038 85.5258L14.8477 85.5209L14.8917 85.5156L14.9353 85.5099L14.979 85.5036L15.0225 85.497L15.0659 85.49L15.1092 85.4825L15.1523 85.4746L15.1953 85.4663L15.2381 85.4576L15.2809 85.4484L15.3234 85.4389L15.3658 85.4289L15.4079 85.4185L15.4501 85.4077L15.4919 85.3965L15.5338 85.3849L15.5752 85.3729L15.6167 85.3605L15.6578 85.3476L15.6988 85.3344L15.7397 85.3208L15.7803 85.3068L15.8206 85.2924L15.8609 85.2777L15.9009 85.2625L15.9407 85.247L15.9803 85.231L16.0196 85.2148L16.0588 85.1981L16.0978 85.1811L16.1365 85.1637L16.1749 85.1459L16.2131 85.1278L16.2512 85.1093L16.2889 85.0905L16.3263 85.0713L16.3636 85.0518L16.4006 85.0319L16.4374 85.0116L16.4739 84.9911L16.5101 84.9702L16.5461 84.9489L16.5818 84.9274L16.6172 84.9055L16.6524 84.8832L16.6872 84.8607L16.7219 84.8378L16.7561 84.8146L16.7902 84.7911L16.8239 84.7673L16.8573 84.7433L16.8905 84.7188L16.9234 84.6941L16.9559 84.6691L16.9882 84.6438L17.0202 84.6182L17.0517 84.5924L17.0831 84.5662L17.1142 84.5398L17.1448 84.5132L17.1753 84.4861L17.2052 84.459L17.2351 84.4314L17.2645 84.4037L17.2936 84.3757L17.3223 84.3474L17.3508 84.3189L17.3789 84.2902L17.4066 84.2612L17.4341 84.2319L17.4612 84.2025L17.4879 84.1728L17.5143 84.1429L17.5404 84.1128L17.5661 84.0824L17.5915 84.0518L17.6165 84.021L17.6411 83.9901L17.6654 83.9588L17.6894 83.9274L17.713 83.8959L17.7363 83.8641L17.7592 83.8321L17.7817 83.8L17.8039 83.7677L17.8256 83.7352L17.8471 83.7026L17.8682 83.6697L17.8888 83.6367L17.9092 83.6036L17.9291 83.5702L17.9487 83.5368L17.9679 83.5033L17.9868 83.4694L18.0053 83.4355L18.0233 83.4016L18.041 83.3674L18.0584 83.3331L18.0753 83.2988L18.0919 83.2642L18.1082 83.2296L18.1239 83.1949L18.1394 83.16L18.1545 83.125L18.1692 83.09L18.1835 83.0549L18.1974 83.0196L18.2109 82.9842L18.2241 82.9489L18.2369 82.9134L18.2492 82.8779L18.2613 82.8423L18.2729 82.8066L18.2842 82.7708L18.295 82.735L18.3055 82.6992L18.3155 82.6632L18.3253 82.6272L18.3346 82.5913L18.3435 82.5552L18.3521 82.5192L18.3602 82.4831L18.368 82.447L18.3754 82.4108L18.3825 82.3747L18.3891 82.3385L18.3954 82.3023L18.4013 82.2661L18.4068 82.2299L18.4119 82.1938L18.4166 82.1576L18.421 82.1215L18.425 82.0852L18.4286 82.0491L18.4318 82.0129L18.4347 81.9769L18.4372 81.9408L18.4393 81.9047L18.441 81.8688L18.4424 81.8329L18.4433 81.7969L18.444 81.7611L18.4442 81.7253L18.4441 81.6895L18.4436 81.6539L18.4428 81.6181L18.4415 81.5825L18.44 81.5471L18.4381 81.5117L18.4358 81.4763L18.4331 81.4411L18.4301 81.4059L18.4267 81.3708L18.423 81.3358L18.4189 81.3009L18.4145 81.2661L18.4097 81.2314L18.4046 81.1968L18.3991 81.1624L18.3933 81.1279L18.3871 81.0937L18.3806 81.0596L18.3738 81.0255L18.3666 80.9916L18.3591 80.9579L18.3512 80.9243L18.343 80.8908L18.3345 80.8574L18.3257 80.8242L18.3166 80.7911L18.3071 80.7583L18.2972 80.7254L18.2871 80.6928L18.2767 80.6605L18.2659 80.628L18.2548 80.596L18.2435 80.564L18.2317 80.5322L18.2197 80.5007L18.2074 80.4691L18.1948 80.4379L18.1819 80.4068L18.1687 80.3759L18.1551 80.3452L18.1413 80.3146L18.1272 80.2844L18.1129 80.2542L18.0982 80.2242L18.0833 80.1946L18.0681 80.165L18.0526 80.1357L18.0368 80.1065L18.0207 80.0776L18.0044 80.0489L17.9879 80.0205L17.971 79.9922L17.9539 79.9641L17.9365 79.9363L17.9189 79.9088L17.901 79.8814L17.8829 79.8542L17.8646 79.8273L17.846 79.8006L17.8271 79.7742L17.808 79.7479L17.7887 79.722L17.7691 79.6963L17.7493 79.6708L17.7293 79.6456L17.709 79.6206L17.6885 79.5958L17.6679 79.5714L17.6471 79.5471L17.6259 79.5232L17.6046 79.4995L17.5831 79.476L17.5613 79.4528L17.5394 79.4299L17.5174 79.4073L17.495 79.3848L17.4725 79.3627L17.4498 79.3408L17.427 79.3192L17.4039 79.2979L17.3807 79.2769L17.3573 79.256L17.3338 79.2356L17.31 79.2153L17.286 79.1954L17.262 79.1758L17.2377 79.1563L17.2134 79.1373L17.1889 79.1184L17.1642 79.0998L17.1394 79.0816L17.1144 79.0636L17.0894 79.046L17.0641 79.0286L17.0387 79.0114L17.0133 78.9947L16.9876 78.9781L16.9619 78.9618L16.936 78.946L16.9101 78.9303L16.884 78.915L16.8578 78.8999L16.8315 78.8851L16.8051 78.8707L16.7786 78.8565L16.7519 78.8426L16.7253 78.829L16.6985 78.8158L16.6717 78.8028L16.6448 78.79L16.6177 78.7776L16.5906 78.7656L16.5635 78.7538L16.5363 78.7423L16.5089 78.7311L16.4816 78.7202L16.4541 78.7095L16.4268 78.6993L16.399 78.6892L16.3717 78.6796L16.344 78.6702L16.3162 78.6611L16.2886 78.6523L16.2609 78.6438L16.2332 78.6356L16.2052 78.6276L16.1776 78.6201L16.1495 78.6127L16.1219 78.6057L16.0939 78.599L16.0659 78.5926L16.0381 78.5865L16.0103 78.5807L15.9822 78.5751L15.9544 78.5699L15.9263 78.5649L15.8986 78.5603L15.8707 78.5559L15.8428 78.5519L15.8148 78.5481L15.787 78.5446L15.7592 78.5414L15.7315 78.5385L15.7036 78.5359L15.6759 78.5336L15.6482 78.5316L15.6205 78.5298L15.5929 78.5284L15.5653 78.5272L15.5379 78.5263L15.5103 78.5257L15.4827 78.5253L15.4554 78.5253L15.4281 78.5255L15.4009 78.526L15.3737 78.5268L15.3464 78.5279L15.3196 78.5292L15.2922 78.5308L15.2656 78.5327L15.2388 78.5348L15.2118 78.5372L15.1852 78.54L15.1587 78.5429L15.132 78.5461L15.1057 78.5496L15.0793 78.5533L15.0533 78.5573L15.027 78.5616L15.0009 78.5661L14.9751 78.5709L14.9493 78.5759L14.9235 78.5812L14.898 78.5867L14.8724 78.5925L14.8471 78.5985L14.822 78.6047L14.7967 78.6113L14.7718 78.618L14.7468 78.625L14.7221 78.6322L14.6975 78.6397L14.6731 78.6474L14.6487 78.6554L14.6244 78.6636L14.6005 78.6719L14.5766 78.6805L14.5527 78.6894L14.5291 78.6985L14.5055 78.7078L14.4824 78.7173L14.459 78.7271L14.436 78.7369L14.4132 78.7471L14.3905 78.7575L14.3679 78.768L14.3455 78.7788L14.3233 78.7898L14.3012 78.801L14.2794 78.8124L14.2577 78.8239L14.2361 78.8357L14.2147 78.8477L14.1935 78.8598L14.1725 78.8721L14.1516 78.8847L14.131 78.8974L14.1105 78.9103L14.0902 78.9234L14.0701 78.9367L14.0502 78.9501L14.0304 78.9637L14.0109 78.9775L13.9915 78.9914L13.9724 79.0055L13.9534 79.0197L13.9346 79.0342L13.9161 79.0488L13.8977 79.0635L13.8795 79.0784L13.8615 79.0934L13.8437 79.1085L13.8261 79.1239L13.8088 79.1394L13.7915 79.155L13.7746 79.1707L13.7579 79.1866L13.7412 79.2027L13.725 79.2188L13.7089 79.2351L13.6929 79.2514L13.6772 79.2681L13.6617 79.2846L13.6464 79.3014L13.6313 79.3182L13.6165 79.3352L13.6019 79.3523L13.5874 79.3695L13.5732 79.3868L13.5592 79.4042L13.5454 79.4217L13.5319 79.4393L13.5186 79.457L13.5055 79.4748L13.4926 79.4927L13.4799 79.5106L13.4675 79.5286L13.4553 79.5468L13.4432 79.565L13.4315 79.5832L13.4199 79.6017L13.4086 79.6201L13.3975 79.6385L13.3866 79.6571L13.3759 79.6758L13.3655 79.6944L13.3552 79.7131L13.3452 79.7319L13.3355 79.7507L13.3259 79.7697L13.3166 79.7885L13.3076 79.8075L13.2987 79.8265L13.29 79.8456L13.2815 79.8648L13.2734 79.8838L13.2654 79.903L13.2577 79.9223L13.2502 79.9415L13.2428 79.9607L13.2358 79.9799L13.2289 79.9993L13.2222 80.0186L13.2159 80.0378L13.2096 80.0572L13.2036 80.0766L13.1979 80.0958L13.1924 80.1153L13.1871 80.1345L13.182 80.1539L13.1771 80.1733L13.1725 80.1926L13.168 80.212L13.1638 80.2313L13.1598 80.2506L13.156 80.2699L13.1524 80.2891L13.149 80.3085L13.1459 80.3276L13.143 80.347L13.1403 80.3661L13.1377 80.3853L13.1354 80.4044L13.1333 80.4234L13.1315 80.4425L13.1298 80.4615L13.1283 80.4805L13.127 80.4995L13.1259 80.5184L13.1251 80.5373L13.1245 80.556L13.124 80.5748L13.1237 80.5935L13.1237 80.6122L13.1238 80.6308L13.1242 80.6493L13.1247 80.6678L13.1254 80.6862L13.1263 80.7045L13.1275 80.7229L13.1287 80.741L13.1302 80.7591L13.1319 80.7772L13.1338 80.7952L13.1358 80.8132L13.138 80.8309L13.1405 80.8487L13.1431 80.8663L13.1459 80.884L13.1488 80.9014L13.1519 80.9189L13.1552 80.9361L13.1587 80.9535L13.1623 80.9705L13.1662 80.9876L13.1702 81.0045Z" fill="black"/>
</g>
<defs>
<clipPath id="clip0_9092_1920">
<rect width="95" height="28" fill="white" transform="translate(0 95) rotate(-90)"/>
</clipPath>
</defs>
</svg>
