<svg width="29" height="106" viewBox="0 0 29 106" fill="none" xmlns="http://www.w3.org/2000/svg">
<g clip-path="url(#clip0_9092_1900)">
<path d="M9.12566 74.4822L9.12566 71.9177L20.1185 71.9177L20.1185 74.4822L9.12566 74.4822ZM15.9678 70.9004C13.2491 70.9004 11.6269 69.3275 11.6269 66.8998C11.6269 64.472 13.2491 62.8991 15.9678 62.8991C18.6866 62.8991 20.3178 64.4378 20.3178 66.8998C20.3178 69.3617 18.7319 70.9004 15.9678 70.9004ZM15.9678 65.4722C14.4725 65.4722 13.5935 66.0278 13.5935 66.8998C13.5935 67.7717 14.4997 68.3188 15.9678 68.3188C17.436 68.3188 18.3241 67.7802 18.3241 66.8998C18.3241 66.0193 17.4903 65.4722 15.9769 65.4722L15.9678 65.4722ZM20.6532 61.9331L20.6532 59.4712C20.9291 59.354 21.1576 59.1559 21.3046 58.9064C21.4515 58.6569 21.5091 58.3692 21.4688 58.0864C21.4688 57.1119 20.9069 56.599 20.0913 56.599L18.5688 56.599L18.5688 56.6502C19.0354 56.8545 19.4264 57.1861 19.6914 57.6021C19.9563 58.0181 20.0829 58.4994 20.055 58.984C20.055 60.856 18.5416 62.0956 15.9407 62.0956C13.3397 62.0956 11.6994 60.9159 11.6994 58.9498C11.6787 58.45 11.8203 57.9563 12.1053 57.5346C12.3904 57.1129 12.8053 56.7834 13.2944 56.5904L11.781 56.5904L11.781 54.0259L20.0278 54.0259C22.0125 54.0259 23.245 55.6757 23.245 58.112C23.245 60.3773 22.1666 61.7878 20.6622 61.9331L20.6532 61.9331ZM15.9588 56.5904C14.6357 56.5904 13.8019 57.1631 13.8019 58.0693C13.8019 58.9754 14.6266 59.531 15.9588 59.531C17.291 59.531 18.0432 58.984 18.0432 58.0693C18.0432 57.1546 17.3091 56.5904 15.9678 56.5904L15.9588 56.5904ZM15.9588 53.0599C13.24 53.0599 11.6178 51.487 11.6178 49.0593C11.6178 46.6315 13.24 45.0501 15.9588 45.0501C18.6775 45.0501 20.3088 46.5888 20.3088 49.0593C20.3088 51.5298 18.7319 53.0599 15.9678 53.0599L15.9588 53.0599ZM15.9588 47.6317C14.4635 47.6317 13.5844 48.1873 13.5844 49.0593C13.5844 49.9312 14.4997 50.4356 15.9769 50.4356C17.4541 50.4356 18.3332 49.897 18.3332 49.0251C18.3332 48.1531 17.4903 47.6317 15.9769 47.6317L15.9588 47.6317ZM9.80535 44.0756C9.53085 44.0823 9.26042 44.012 9.02834 43.8736C8.79625 43.7351 8.61297 43.5348 8.50172 43.298C8.39047 43.0612 8.35626 42.7986 8.40343 42.5434C8.4506 42.2883 8.57704 42.0521 8.76669 41.8648C8.95635 41.6774 9.2007 41.5475 9.46877 41.4913C9.73684 41.4351 10.0165 41.4553 10.2724 41.5493C10.5283 41.6433 10.7488 41.8068 10.9061 42.0192C11.0633 42.2314 11.1502 42.4831 11.1557 42.742C11.1682 42.9137 11.1429 43.0859 11.0814 43.2479C11.02 43.41 10.9238 43.5582 10.7986 43.6835C10.6735 43.8087 10.5223 43.9082 10.3544 43.9756C10.1867 44.0432 10.0059 44.0772 9.82347 44.0756L9.80535 44.0756ZM11.7991 44.0756L11.7991 41.511L20.1185 41.511L20.1185 44.0756L11.7991 44.0756ZM15.9588 32.2019C18.6775 32.2019 20.2272 33.3388 20.2272 35.2878C20.2612 35.7876 20.1317 36.2852 19.8562 36.7133C19.5806 37.1414 19.1723 37.4793 18.6866 37.6814L18.6866 37.7327L22.7828 37.7327L22.7828 40.2972L11.781 40.2972L11.781 37.7327L13.2672 37.7327L13.2672 37.6814C12.7734 37.4887 12.3545 37.1572 12.0675 36.732C11.7805 36.3068 11.6393 35.8085 11.6632 35.3049C11.6994 33.3388 13.2582 32.1677 15.9769 32.1677L15.9588 32.2019ZM15.9588 34.7664C14.6357 34.7664 13.7928 35.3391 13.7928 36.2367C13.7928 37.1343 14.6447 37.707 15.9588 37.7156C17.2728 37.7241 18.1157 37.1343 18.1157 36.2367C18.1157 35.3391 17.291 34.7664 15.9769 34.7664L15.9588 34.7664ZM11.6088 27.7994C11.6088 25.6709 12.6782 24.3801 14.391 24.3202L14.391 26.654C13.8019 26.654 13.4303 27.1156 13.4303 27.8251C13.4303 28.5346 13.7203 28.8509 14.1463 28.8509C14.5722 28.8509 14.7082 28.5688 14.835 27.9961L15.1885 26.3548C15.5419 24.7904 16.2125 24.1236 17.4722 24.1236C19.1941 24.1236 20.2997 25.6025 20.2997 27.7823C20.2997 29.9622 19.1941 31.3898 17.4994 31.5009L17.4994 29.0304C18.1157 28.9535 18.4782 28.4919 18.4782 27.7396C18.4782 26.9873 18.2153 26.6454 17.7803 26.6454C17.3453 26.6454 17.2547 26.8848 17.1188 27.5002L16.7835 28.9791C16.4482 30.5093 15.5872 31.3128 14.3185 31.3128C12.6872 31.2957 11.6269 29.9194 11.6269 27.7994L11.6088 27.7994ZM20.1003 15.5667L20.1003 18.0372L18.5507 18.0372L18.5507 18.0885C19.0709 18.2244 19.5263 18.5236 19.8413 18.9373C20.1561 19.3511 20.3115 19.8537 20.2816 20.3623C20.3051 20.752 20.2396 21.1418 20.0897 21.5055C19.9397 21.8693 19.7088 22.1984 19.4123 22.4706C19.116 22.7429 18.761 22.9521 18.3716 23.0838C17.9822 23.2156 17.5673 23.267 17.155 23.2346L11.781 23.2346L11.781 20.6701L16.5297 20.6701C17.5175 20.6701 18.0432 20.1914 18.0432 19.3964C18.0435 19.21 18.0017 19.0254 17.9205 18.8553C17.8392 18.686 17.7203 18.5338 17.5718 18.4107C17.4233 18.2885 17.2487 18.1962 17.0596 18.1423C16.8705 18.0885 16.6713 18.0722 16.4753 18.097L11.781 18.097L11.781 15.5325L20.1003 15.5667ZM11.781 14.3272L11.781 11.8481L13.385 11.8481L13.385 11.7969C12.8716 11.6609 12.4205 11.3677 12.1024 10.9642C11.7843 10.5608 11.617 10.0684 11.6269 9.56573C11.5835 9.05368 11.7458 8.54591 12.0817 8.14156C12.4175 7.73808 12.9022 7.46795 13.4394 7.38589L13.4394 7.33459C12.8965 7.17987 12.4238 6.85846 12.0956 6.42164C11.7675 5.98566 11.6025 5.45824 11.6269 4.92396C11.6145 4.57519 11.68 4.22812 11.8192 3.90499C11.9583 3.58101 12.1681 3.28951 12.4347 3.04758C12.7015 2.80566 13.0191 2.61931 13.367 2.50049C13.7149 2.38252 14.0855 2.3338 14.4544 2.35944L20.1185 2.35944L20.1185 4.92396L15.1794 4.92396C14.2732 4.92396 13.8563 5.30863 13.8563 6.0267C13.8548 6.18655 13.8898 6.34556 13.9589 6.49173C14.0279 6.63791 14.1294 6.7687 14.2566 6.8747C14.3837 6.9807 14.5334 7.0602 14.6957 7.10722C14.8581 7.15424 15.0292 7.16705 15.1975 7.14653L20.1185 7.14653L20.1185 9.58282L15.1432 9.58282C14.3094 9.58282 13.8563 9.96751 13.8563 10.6685C13.8564 10.83 13.8928 10.9907 13.9632 11.1378C14.0337 11.2857 14.1366 11.4182 14.265 11.525C14.3934 11.6327 14.5446 11.7131 14.7085 11.7618C14.8724 11.8097 15.0452 11.8251 15.2157 11.8054L20.1185 11.8054L20.1185 14.3699L11.781 14.3272Z" fill="black"/>
<path d="M9.62443 81.6543C8.56988 82.0893 7.58712 82.665 6.7063 83.364C5.36536 84.397 4.27156 85.6863 3.49691 87.1469C2.72227 88.6074 2.28432 90.2063 2.2119 91.838C2.13948 93.4697 2.43423 95.0974 3.07676 96.614C3.71929 98.1305 4.69502 99.5015 5.93974 100.637C7.18444 101.772 8.66992 102.646 10.2984 103.2C11.9268 103.755 13.6614 103.978 15.3878 103.855C17.1143 103.732 18.7935 103.265 20.3149 102.485C21.8364 101.706 23.1656 100.631 24.2151 99.3323C24.9019 98.4989 25.4602 97.5779 25.8735 96.5969C26.4711 95.2214 26.7788 93.7493 26.7797 92.2628C26.7726 89.1945 25.4759 86.254 23.174 84.0859C20.8722 81.9178 17.7529 80.6991 14.5001 80.6969C12.8221 80.6946 11.162 81.0206 9.62443 81.6543ZM4.70348 92.2714C4.70334 90.9365 5.01264 89.6177 5.60973 88.4075C5.74492 88.7026 5.83934 89.0129 5.89068 89.3307C6.05117 90.3765 6.5659 91.3453 7.35805 92.0925C8.1502 92.8398 9.17729 93.3253 10.286 93.4767C10.9078 93.5431 11.4862 93.8099 11.9238 94.2319C12.3613 94.654 12.631 95.2054 12.6876 95.7933C12.8481 96.8391 13.3628 97.8079 14.155 98.5551C14.9471 99.3023 15.9742 99.7879 17.0829 99.9393C17.6741 99.9905 18.2297 100.228 18.6597 100.615C17.1674 101.281 15.5206 101.58 13.8727 101.485C12.2247 101.389 10.6292 100.902 9.23447 100.068C7.83983 99.2349 6.69136 98.0821 5.89597 96.7173C5.10058 95.3526 4.68414 93.8202 4.68536 92.2628L4.70348 92.2714ZM20.8438 99.3409C20.7441 99.2383 20.6535 99.1357 20.5447 99.0331C19.7631 98.2726 18.7312 97.7845 17.6176 97.6483C16.9915 97.5931 16.4068 97.3295 15.9682 96.9046C15.517 96.4957 15.2398 95.9455 15.1888 95.3573C15.0283 94.3115 14.5136 93.3427 13.7214 92.5955C12.9293 91.8483 11.9022 91.3628 10.7935 91.2114C10.1387 91.1744 9.52184 90.9094 9.06255 90.4677C8.62017 90.0487 8.35305 89.4932 8.31036 88.9033C8.17022 87.9426 7.71742 87.0465 7.01443 86.3388C7.72318 85.5329 8.5758 84.8503 9.53381 84.3214C9.5803 84.3539 9.62289 84.3911 9.66068 84.4325C10.1158 84.8405 10.3991 85.3901 10.4582 85.9798C10.6159 87.0267 11.1297 87.9969 11.9223 88.7447C12.715 89.4923 13.7436 89.977 14.8535 90.1257C15.4774 90.186 16.06 90.4478 16.5026 90.8669C16.9453 91.286 17.2207 91.8365 17.2822 92.4252C17.4415 93.4741 17.9552 94.4465 18.747 95.1981C19.5389 95.9496 20.5666 96.4402 21.6776 96.5969C22.1204 96.6428 22.5457 96.7864 22.9191 97.0157C22.367 97.8928 21.666 98.6783 20.8438 99.3409ZM24.3419 92.2714C24.3429 93.1388 24.2148 94.0021 23.9613 94.8359C23.3976 94.5506 22.7833 94.3652 22.1488 94.2888C21.5263 94.2289 20.9448 93.9682 20.5023 93.5509C20.0599 93.1336 19.7836 92.585 19.7201 91.9978C19.5614 90.9505 19.0474 89.9797 18.2551 89.2308C17.4629 88.482 16.4347 87.9951 15.3247 87.8433C14.7022 87.7834 14.1207 87.5227 13.6783 87.1054C13.2358 86.6881 12.9595 86.1395 12.896 85.5523C12.7873 84.7642 12.4762 84.0129 11.9897 83.364C13.4378 83.0036 14.9542 82.9609 16.4225 83.2391C17.8908 83.5174 19.2721 84.1093 20.4603 84.9693C21.6484 85.8292 22.612 86.9344 23.277 88.2003C23.942 89.4661 24.2908 90.8587 24.2966 92.2714L24.3419 92.2714Z" fill="black"/>
</g>
<defs>
<clipPath id="clip0_9092_1900">
<rect width="106" height="29" fill="white" transform="translate(0 106) rotate(-90)"/>
</clipPath>
</defs>
</svg>
