<svg width="29" height="95" viewBox="0 0 29 95" fill="none" xmlns="http://www.w3.org/2000/svg">
<g clip-path="url(#clip0_9092_1935)">
<path d="M18.4551 63.2683L7.17676 63.2683L7.17676 64.9993L18.4551 64.9993L18.4551 63.2683Z" fill="#7B7B7B"/>
<path d="M14.6953 62.2085C16.9995 62.2085 18.6366 60.7613 18.6366 58.5621C18.6366 56.3629 16.9995 54.9157 14.6953 54.9157C12.3911 54.9157 10.7539 56.3629 10.7539 58.5621C10.7539 60.7613 12.3911 62.2085 14.6953 62.2085ZM14.6953 60.4633C13.3461 60.4633 12.4062 59.7114 12.4062 58.5621C12.4062 57.4128 13.3461 56.6609 14.6953 56.6609C16.0293 56.6609 16.9843 57.4128 16.9843 58.5621C16.9843 59.7114 16.0293 60.4633 14.6953 60.4633Z" fill="#7B7B7B"/>
<path d="M14.5427 54.3335C16.7257 54.3335 18.3022 53.014 18.3022 51.0418C18.3022 50.0203 17.8626 49.1406 17.135 48.7007L18.4083 48.7007C19.6362 48.7007 20.4548 49.4243 20.4548 50.6303C20.4548 51.7087 19.8939 52.4465 18.9086 52.5458L18.9086 54.2909C20.8641 54.0639 22.1375 52.6593 22.1375 50.7297C22.1375 48.4595 20.5457 47.0123 18.0748 47.0123L10.9652 47.0123L10.9652 48.5447L11.9809 48.644C11.1926 49.0696 10.7227 49.9493 10.7227 50.9851C10.7227 52.9856 12.3447 54.3335 14.5427 54.3335ZM14.4973 52.5741C13.2542 52.5741 12.3447 51.8364 12.3447 50.7439C12.3447 49.552 13.2694 48.7575 14.4973 48.7575C15.7403 48.7575 16.6953 49.552 16.6953 50.7439C16.6953 51.8222 15.7555 52.5741 14.4973 52.5741Z" fill="#7B7B7B"/>
<path d="M14.6953 46.1558C16.9995 46.1558 18.6366 44.7086 18.6366 42.5094C18.6366 40.3102 16.9995 38.863 14.6953 38.863C12.3911 38.863 10.7539 40.3102 10.7539 42.5094C10.7539 44.7086 12.3911 46.1558 14.6953 46.1558ZM14.6953 44.4106C13.3461 44.4106 12.4062 43.6586 12.4062 42.5094C12.4062 41.3601 13.3461 40.6081 14.6953 40.6081C16.0293 40.6081 16.9843 41.3601 16.9843 42.5094C16.9843 43.6586 16.0293 44.4106 14.6953 44.4106Z" fill="#7B7B7B"/>
<path d="M9.43537 36.9899C9.43537 36.4224 8.95028 35.9542 8.32876 35.9542C7.7224 35.9542 7.2373 36.4224 7.2373 36.9899C7.2373 37.5716 7.7224 38.0115 8.32876 38.0115C8.95028 38.0115 9.43537 37.5716 9.43537 36.9899ZM18.455 37.8554L18.455 36.1244L10.9664 36.1244L10.9664 37.8554L18.455 37.8554Z" fill="#7B7B7B"/>
<path d="M21.9257 34.6079L21.9257 32.9194L17.4234 32.9194C18.1966 32.4795 18.6513 31.5289 18.6513 30.479C18.6513 28.4075 16.9535 27.1731 14.619 27.2015C12.2693 27.2441 10.7383 28.5068 10.7383 30.4932C10.7383 31.5573 11.2385 32.5221 12.1026 32.9478L10.9657 33.0471L10.9657 34.6079L21.9257 34.6079ZM14.71 32.8484C13.3608 32.8484 12.4209 32.0823 12.4209 30.8763C12.4209 29.6703 13.376 28.9467 14.71 28.9467C16.044 28.9467 16.9838 29.6703 16.9838 30.8763C16.9838 32.0823 16.0591 32.8484 14.71 32.8484Z" fill="#7B7B7B"/>
<path d="M16.2107 26.7625C17.6963 26.7057 18.6513 25.6274 18.6513 23.9532C18.6513 22.3073 17.7115 21.1864 16.2562 21.1864C15.1799 21.1864 14.4523 21.8107 14.1491 22.96L13.8307 24.1944C13.6791 24.7193 13.4821 25.074 12.997 25.074C12.4816 25.074 12.1178 24.691 12.1178 24.0667C12.1178 23.414 12.5119 22.9884 13.1637 22.9884L13.1637 21.4135C11.6781 21.4702 10.7383 22.506 10.7383 24.0241C10.7383 25.5281 11.6781 26.6489 13.1031 26.6489C14.0733 26.6489 14.8767 26.124 15.2557 24.7761L15.5892 23.5559C15.7256 23.1019 15.953 22.8181 16.3775 22.8181C16.9687 22.8181 17.2415 23.3431 17.2415 23.9815C17.2415 24.7477 16.8626 25.1875 16.2107 25.1875L16.2107 26.7625Z" fill="#7B7B7B"/>
<path d="M18.6515 17.5952C18.6515 16.6446 18.1815 15.7366 17.4842 15.3251L18.4544 15.2116L18.4544 13.5941L10.9658 13.5941L10.9658 15.3251L14.892 15.3251C16.2412 15.3251 16.9991 15.8075 16.9991 16.9426C16.9991 17.8223 16.5444 18.4324 14.9981 18.4324L10.9658 18.4324L10.9658 20.1633L15.65 20.1633C17.4388 20.1633 18.6515 19.2553 18.6515 17.5952Z" fill="#7B7B7B"/>
<path d="M18.4543 10.3359L14.1491 10.3359C12.9363 10.3359 12.3603 9.66906 12.3603 8.84614C12.3603 8.02322 12.9212 7.48407 13.9823 7.48407L18.4543 7.48407L18.4543 5.79566L14.1642 5.79566C12.9363 5.79566 12.3603 5.143 12.3603 4.32008C12.3603 3.48297 12.9212 2.94381 13.9823 2.94381L18.4543 2.94381L18.4543 1.26959L13.5579 1.26959C11.8297 1.26959 10.7383 2.16345 10.7383 3.86605C10.7383 4.93017 11.284 5.76728 12.1632 6.1078C11.284 6.49089 10.7383 7.25705 10.7383 8.42049C10.7383 9.24341 11.1476 9.98121 11.8146 10.3927L10.9657 10.4778L10.9657 12.0669L18.4543 12.0669L18.4543 10.3359Z" fill="#7B7B7B"/>
<path d="M25.1472 14.4858C25.1472 14.2279 24.9152 14.004 24.6397 14.004C24.357 14.004 24.125 14.2279 24.125 14.4858C24.125 14.7504 24.357 14.9744 24.6397 14.9744C24.9152 14.9744 25.1472 14.7504 25.1472 14.4858Z" fill="#7B7B7B"/>
<path d="M23.2762 13.5063C24.3854 13.5063 25.1322 12.8685 25.1322 11.9388C25.1322 11.1381 24.6174 10.5274 23.8489 10.3985L23.8489 11.0092C24.2767 11.1246 24.5304 11.4774 24.5304 11.8981C24.5304 12.4953 24.0374 12.8753 23.2689 12.8753C22.4859 12.8753 22.0074 12.4749 22.0074 11.8846C22.0074 11.4774 22.2394 11.1246 22.6962 11.016L22.6962 10.4053C21.9204 10.5139 21.3984 11.0838 21.3984 11.8778C21.3984 12.8413 22.1597 13.5063 23.2762 13.5063Z" fill="#7B7B7B"/>
<path d="M23.2695 10.1577C24.3352 10.1577 25.1327 9.47914 25.1327 8.46129C25.1327 7.44343 24.3352 6.76486 23.2695 6.76486C22.2037 6.76486 21.4063 7.44343 21.4063 8.46129C21.4063 9.47914 22.2037 10.1577 23.2695 10.1577ZM23.2695 9.51307C22.5445 9.51307 22.0152 9.09914 22.0152 8.46129C22.0152 7.82343 22.5445 7.4095 23.2695 7.4095C23.9945 7.4095 24.5237 7.82343 24.5237 8.46129C24.5237 9.09914 23.9945 9.51307 23.2695 9.51307Z" fill="#7B7B7B"/>
<path d="M25.053 5.58212L22.9215 5.58212C22.3632 5.58212 22.0008 5.25641 22.0008 4.78141C22.0008 4.32677 22.3125 4.04176 22.8707 4.04176L25.053 4.04176L25.053 3.41747L22.9287 3.41747C22.3632 3.41747 22.0008 3.09855 22.0008 2.61676C22.0008 2.16891 22.3125 1.8839 22.8707 1.8839L25.053 1.8839L25.053 1.2664L22.7257 1.2664C21.9065 1.2664 21.4063 1.71426 21.4063 2.47426C21.4063 2.98998 21.6745 3.39033 22.1095 3.55319C21.6745 3.72283 21.4063 4.09605 21.4063 4.63891C21.4063 5.05283 21.6092 5.41926 21.9572 5.60248L21.5077 5.64997L21.5077 6.21997L25.053 6.21997L25.053 5.58212Z" fill="#7B7B7B"/>
<path fill-rule="evenodd" clip-rule="evenodd" d="M14.7871 93.7661L14.655 93.7649L14.5229 93.7625L14.3907 93.7587L14.2586 93.7538L14.1264 93.7475L13.9943 93.74L13.8622 93.7311L13.7301 93.7211L13.5981 93.7097L13.4661 93.6971L13.3342 93.6832L13.2024 93.668L13.0707 93.6516L12.9392 93.6339L12.8078 93.6149L12.6765 93.5947L12.5454 93.5732L12.4145 93.5504L12.2837 93.5264L12.1532 93.5011L12.0228 93.4745L11.8927 93.4467L11.7628 93.4176L11.6332 93.3873L11.5039 93.3557L11.3748 93.3228L11.246 93.2887L11.1175 93.2533L10.9894 93.2167L10.8616 93.1789L10.7341 93.1398L10.607 93.0995L10.4802 93.0579L10.3539 93.0151L10.2279 92.9711L10.1024 92.9259L9.9773 92.8794L9.8526 92.8317L9.72843 92.7828L9.60465 92.7327L9.48133 92.6814L9.35854 92.6289L9.23628 92.5752L9.11448 92.5202L8.99321 92.4641L8.87253 92.4068L8.75238 92.3484L8.63275 92.2887L8.51379 92.2279L8.39535 92.1659L8.2775 92.1028L8.16032 92.0385L8.04372 91.9731L7.92779 91.9065L7.81251 91.8387L7.6979 91.7699L7.58401 91.6999L7.47071 91.6288L7.3582 91.5566L7.24635 91.4833L7.13523 91.4088L7.0249 91.3333L6.91523 91.2567L6.80641 91.179L6.69832 91.1002L6.59098 91.0204L6.48447 90.9395L6.37877 90.8576L6.27388 90.7746L6.16982 90.6905L6.0666 90.6055L5.96423 90.5194L5.86273 90.4323L5.7621 90.3442L5.66235 90.2551L5.5635 90.165L5.46555 90.0739L5.36852 89.9819L5.27242 89.8888L5.17725 89.7949L5.08304 89.6999L4.98978 89.6041L4.89749 89.5073L4.80618 89.4096L4.71585 89.3109L4.62653 89.2114L4.53822 89.111L4.45093 89.0097L4.36466 88.9075L4.27942 88.8044L4.19525 88.7005L4.11211 88.5957L4.03006 88.4901L3.94907 88.3837L3.86917 88.2765L3.79037 88.1684L3.71265 88.0596L3.63606 87.95L3.56058 87.8395L3.48623 87.7283L3.41302 87.6164L3.34095 87.5037L3.27004 87.3903L3.20029 87.2762L3.1317 87.1613L3.0643 87.0458L2.99807 86.9296L2.93305 86.8127L2.86921 86.6951L2.80659 86.5768L2.74519 86.458L2.685 86.3384L2.62604 86.2183L2.56833 86.0975L2.51185 85.9762L2.45662 85.8542L2.40266 85.7317L2.34995 85.6086L2.29851 85.485L2.24835 85.3608L2.19947 85.2362L2.15188 85.1109L2.10558 84.9852L2.06057 84.859L2.01688 84.7324L1.9745 84.6052L1.93343 84.4776L1.89369 84.3495L1.85527 84.2211L1.81817 84.0922L1.78242 83.9629L1.74801 83.8332L1.71495 83.7031L1.68323 83.5727L1.65287 83.4419L1.62386 83.3108L1.59622 83.1794L1.56995 83.0476L1.54504 82.9155L1.52151 82.7831L1.49936 82.6505L1.47858 82.5176L1.4592 82.3845L1.4412 82.2511L1.42459 82.1175L1.40937 81.9837L1.39555 81.8497L1.38313 81.7155L1.3721 81.5812L1.36249 81.4467L1.31836 80.7235L5.04135 80.6822L5.04106 80.6586L5.0409 80.5587L5.0418 80.4588L5.04375 80.359L5.04674 80.259L5.05079 80.159L5.05588 80.059L5.06203 79.959L5.06923 79.859L5.07748 79.7591L5.08678 79.6591L5.09714 79.5592L5.10856 79.4594L5.12102 79.3596L5.13454 79.2599L5.14911 79.1602L5.16473 79.0607L5.18142 78.9612L5.19915 78.8618L5.21792 78.7627L5.23776 78.6635L5.25864 78.5646L5.28057 78.4658L5.30355 78.3671L5.32757 78.2687L5.35264 78.1704L5.37875 78.0722L5.40591 77.9743L5.43411 77.8767L5.46334 77.7792L5.49361 77.6819L5.52492 77.585L5.55726 77.4882L5.59064 77.3918L5.62504 77.2955L5.66047 77.1996L5.69692 77.104L5.73439 77.0086L5.77289 76.9136L5.8124 76.8189L5.85292 76.7245L5.89446 76.6305L5.937 76.5369L5.98054 76.4435L6.02509 76.3506L6.07064 76.258L6.11717 76.1659L6.16469 76.0741L6.21321 75.9827L6.26271 75.8918L6.31318 75.8013L6.36463 75.7112L6.41705 75.6216L6.47044 75.5325L6.52479 75.4438L6.58009 75.3555L6.63637 75.2678L6.69358 75.1806L6.75171 75.0939L6.81083 75.0077L6.87081 74.922L6.93177 74.8369L6.99366 74.7522L7.0564 74.6682L7.12014 74.5847L7.18473 74.5018L7.25024 74.4195L7.31668 74.3377L7.38397 74.2566L7.45219 74.176L7.5212 74.0961L7.59112 74.0168L7.66198 73.9381L7.73362 73.8601L7.80612 73.7827L7.87948 73.7059L7.95369 73.6299L8.02876 73.5546L8.10462 73.4799L8.18128 73.4058L8.25878 73.3325L8.33708 73.2599L8.41624 73.1881L8.49612 73.1169L8.5768 73.0465L8.65826 72.9768L8.74051 72.9079L8.82349 72.8397L8.90726 72.7723L8.99176 72.7057L9.07698 72.6398L9.16299 72.5747L9.24966 72.5104L9.33706 72.4469L9.42518 72.3843L9.51402 72.3224L9.60353 72.2614L9.69376 72.2012L9.78465 72.1418L9.87613 72.0833L9.96833 72.0256L10.0612 71.9688L10.1547 71.9128L10.2488 71.8578L10.3436 71.8036L10.4389 71.7503L10.5349 71.6979L10.6314 71.6464L10.7286 71.5957L10.8263 71.546L10.9246 71.4972L11.0235 71.4493L11.1229 71.4024L11.2228 71.3564L11.3233 71.3113L11.4243 71.2671L11.5258 71.2239L11.6278 71.1817L11.7303 71.1404L11.8333 71.1001L11.9367 71.0607L12.0406 71.0224L12.145 70.985L12.2498 70.9486L12.355 70.9132L12.4608 70.8788L12.5668 70.8453L12.6733 70.8129L12.7801 70.7815L12.8874 70.7511L12.995 70.7217L13.103 70.6933L13.2113 70.666L13.32 70.6397L13.429 70.6144L13.5383 70.5901L13.6479 70.5669L13.7578 70.5448L13.868 70.5236L13.9785 70.5036L14.0892 70.4846L14.2002 70.4666L14.3114 70.4497L14.4229 70.4338L14.5346 70.419L14.6464 70.4053L14.7585 70.3927L14.8708 70.3811L14.9832 70.3706L15.0958 70.3611L15.2086 70.3527L15.3215 70.3455L15.4345 70.3393L15.5476 70.3342L15.6609 70.3301L15.7742 70.3272L15.8876 70.3253L16.0011 70.3246L16.1147 70.3249L16.2283 70.3263L16.342 70.3288L16.4556 70.3324L16.5693 70.3371L16.683 70.3428L16.7967 70.3497L16.9104 70.3577L17.024 70.3668L17.1377 70.3769L17.2512 70.3882L17.3647 70.4006L17.4781 70.414L17.5914 70.4285L17.7046 70.4442L17.8177 70.4609L17.9307 70.4787L18.0435 70.4977L18.1562 70.5176L18.2688 70.5387L18.3812 70.5609L18.4933 70.5843L18.6054 70.6086L18.7172 70.634L18.8288 70.6606L18.9401 70.6883L19.0512 70.717L19.1621 70.7468L19.2727 70.7776L19.3831 70.8095L19.4931 70.8426L19.6029 70.8767L19.7123 70.9118L19.8214 70.9481L19.9302 70.9854L20.0386 71.0237L20.1467 71.0632L20.2545 71.1036L20.3619 71.1451L20.4688 71.1877L20.5755 71.2313L20.6816 71.276L20.7874 71.3217L20.8927 71.3684L20.9976 71.4162L21.102 71.465L21.206 71.5148L21.3095 71.5657L21.4125 71.6175L21.515 71.6705L21.617 71.7243L21.7185 71.7792L21.8194 71.8351L21.9198 71.892L22.0197 71.9499L22.119 72.0088L22.2177 72.0686L22.3159 72.1294L22.4134 72.1912L22.5104 72.2539L22.6067 72.3176L22.7024 72.3823L22.7975 72.4479L22.892 72.5145L22.9858 72.582L23.0788 72.6504L23.1713 72.7197L23.2631 72.79L23.3541 72.8612L23.4444 72.9333L23.5341 73.0063L23.623 73.0802L23.7112 73.1549L23.7986 73.2306L23.8853 73.3071L23.9712 73.3845L24.0563 73.4627L24.1407 73.5418L24.2243 73.6218L24.3071 73.7025L24.389 73.7842L24.4702 73.8666L24.5505 73.9499L24.6299 74.0339L24.7086 74.1188L24.7864 74.2044L24.8633 74.2909L24.9393 74.3781L25.0145 74.4661L25.0888 74.5548L25.1622 74.6443L25.2346 74.7346L25.3062 74.8256L25.3768 74.9172L25.4465 75.0097L25.5153 75.1029L25.5831 75.1967L25.65 75.2912L25.7159 75.3865L25.7808 75.4823L25.8448 75.5789L25.9078 75.6761L25.9697 75.774L26.0308 75.8725L26.0908 75.9716L26.1497 76.0714L26.2077 76.1717L26.2646 76.2727L26.3204 76.3742L26.3753 76.4764L26.4291 76.5791L26.4819 76.6823L26.5336 76.7862L26.5842 76.8905L26.6338 76.9954L26.6822 77.1008L26.7296 77.2068L26.7759 77.3132L26.8212 77.4201L26.8652 77.5275L26.9083 77.6354L26.9501 77.7437L26.9909 77.8525L27.0306 77.9617L27.0691 78.0713L27.1065 78.1814L27.1427 78.2919L27.1779 78.4028L27.2118 78.514L27.2446 78.6256L27.2763 78.7376L27.3068 78.85L27.3361 78.9626L27.3643 79.0757L27.3913 79.189L27.4171 79.3027L27.4418 79.4166L27.4652 79.5309L27.4875 79.6454L27.5085 79.7601L27.5284 79.8751L27.5471 79.9904L27.5646 80.1059L27.5809 80.2216L27.596 80.3375L27.6098 80.4537L27.6225 80.5699L27.6339 80.6864L27.6442 80.803L27.6532 80.9198L27.661 81.0367L27.6676 81.1538L27.6729 81.2709L27.677 81.3881L27.6799 81.5055L27.6815 81.6229L27.682 81.7404L27.6812 81.8579L27.6792 81.9755L27.6759 82.0931L27.6714 82.2108L27.6656 82.3284L27.6587 82.4461L27.6505 82.5636L27.6411 82.6813L27.6304 82.7988L27.6185 82.9163L27.6053 83.0338L27.591 83.1511L27.5754 83.2684L27.5585 83.3856L27.5404 83.5026L27.521 83.6196L27.5005 83.7363L27.4787 83.853L27.4557 83.9695L27.4314 84.0858L27.406 84.202L27.3792 84.3179L27.3513 84.4337L27.3221 84.5491L27.2917 84.6644L27.2601 84.7795L27.2273 84.8943L27.1933 85.0088L27.158 85.123L27.1216 85.237L27.0839 85.3507L27.045 85.464L27.0049 85.577L26.9636 85.6897L26.9211 85.802L26.8774 85.914L26.8326 86.0256L26.7865 86.1368L26.7392 86.2476L26.6908 86.358L26.6412 86.468L26.5904 86.5776L26.5385 86.6867L26.4853 86.7954L26.431 86.9036L26.3756 87.0113L26.319 87.1185L26.2613 87.2253L26.2024 87.3315L26.1424 87.4372L26.0813 87.5424L26.019 87.6471L25.9556 87.7511L25.891 87.8546L25.8254 87.9576L25.7587 88.0599L25.6908 88.1617L25.6219 88.2629L25.5519 88.3634L25.4808 88.4633L25.4086 88.5626L25.3354 88.6612L25.2611 88.7591L25.1857 88.8564L25.1093 88.953L25.0318 89.0489L24.9533 89.1441L24.8738 89.2386L24.7932 89.3323L24.7117 89.4253L24.6291 89.5176L24.5455 89.6091L24.461 89.6999L24.3753 89.7899L24.2888 89.8791L24.2013 89.9675L24.1128 90.0551L24.0234 90.1419L23.933 90.2279L23.8417 90.313L23.7495 90.3973L23.6563 90.4808L23.5623 90.5633L23.4673 90.6451L23.3714 90.7259L23.2747 90.8059L23.177 90.8849L23.0785 90.9631L22.9792 91.0403L22.8789 91.1166L22.7779 91.192L22.676 91.2665L22.5733 91.34L22.4698 91.4125L22.3654 91.4841L22.2603 91.5547L22.1544 91.6243L22.0478 91.693L21.9403 91.7606L21.8321 91.8273L21.7232 91.8929L21.6135 91.9575L21.5031 92.0211L21.3921 92.0836L21.2802 92.1452L21.1678 92.2056L21.0546 92.265L20.9408 92.3234L20.8263 92.3807L20.7111 92.4369L20.5954 92.492L20.479 92.546L20.362 92.599L20.2444 92.6508L20.1262 92.7015L20.0073 92.7511L19.888 92.7996L19.7681 92.847L19.6477 92.8933L19.5267 92.9384L19.4051 92.9823L19.2831 93.0251L19.1606 93.0668L19.0376 93.1073L18.9142 93.1466L18.7902 93.1848L18.6658 93.2218L18.541 93.2576L18.4158 93.2922L18.2901 93.3257L18.164 93.3579L18.0376 93.389L17.9108 93.4188L17.7836 93.4475L17.656 93.4749L17.5281 93.5011L17.3999 93.5261L17.2714 93.5499L17.1426 93.5725L17.0135 93.5938L16.8841 93.6139L16.7545 93.6328L16.6246 93.6504L16.4944 93.6668L16.364 93.682L16.2335 93.6959L16.1027 93.7086L15.9718 93.72L15.8406 93.7301L15.7093 93.739L15.5779 93.7467L15.4464 93.7531L15.3147 93.7582L15.1829 93.7621L15.051 93.7647L14.9191 93.766L14.7871 93.7661ZM5.11933 81.8121L2.5817 81.8402L2.58445 81.8669L2.5984 81.9896L2.61361 82.1119L2.63012 82.2342L2.64784 82.3559L2.66687 82.4776L2.68716 82.5991L2.7087 82.7203L2.73152 82.8413L2.75553 82.9617L2.78089 83.0823L2.80738 83.2021L2.83522 83.322L2.86423 83.4413L2.89454 83.5605L2.926 83.6791L2.95873 83.7974L2.99268 83.9154L3.02786 84.0331L3.06421 84.1501L3.10182 84.267L3.14059 84.3833L3.1806 84.4993L3.22171 84.6147L3.26413 84.7298L3.30767 84.8444L3.35237 84.9584L3.39829 85.0721L3.44533 85.1851L3.4935 85.2976L3.54292 85.4098L3.59345 85.5213L3.64513 85.6324L3.69791 85.7428L3.75183 85.8527L3.80684 85.9619L3.86306 86.0708L3.92031 86.1789L3.97867 86.2864L4.03813 86.3933L4.09869 86.4996L4.16029 86.6051L4.22303 86.7103L4.28686 86.8147L4.35159 86.9182L4.4176 87.0214L4.48447 87.1236L4.55239 87.2252L4.62143 87.3262L4.69147 87.4265L4.76253 87.526L4.83443 87.6245L4.9076 87.7228L4.98156 87.82L5.05654 87.9165L5.13254 88.0123L5.20945 88.1072L5.28729 88.2013L5.36621 88.2948L5.44589 88.3873L5.52662 88.4791L5.60822 88.57L5.69077 88.6601L5.77411 88.7493L5.85851 88.8378L5.94365 88.9254L6.02978 89.0121L6.11664 89.0979L6.20444 89.1829L6.29303 89.267L6.38249 89.3501L6.47288 89.4325L6.56389 89.5138L6.65568 89.5942L6.74854 89.6739L6.842 89.7524L6.93612 89.83L7.03123 89.9068L7.12693 89.9825L7.22348 90.0574L7.3207 90.1312L7.41871 90.2041L7.51737 90.276L7.6167 90.3469L7.71675 90.4169L7.81759 90.4858L7.91889 90.5537L8.02105 90.6207L8.12374 90.6866L8.22708 90.7514L8.33109 90.8153L8.43568 90.8782L8.54081 90.94L8.64659 91.0007L8.7529 91.0604L8.85987 91.1191L8.96744 91.1767L9.0754 91.2332L9.18395 91.2887L9.2931 91.3431L9.4027 91.3965L9.51284 91.4487L9.62337 91.4999L9.73442 91.55L9.84594 91.5989L9.95799 91.6469L10.0704 91.6936L10.1833 91.7394L10.2966 91.784L10.4102 91.8274L10.5243 91.8698L10.6388 91.9111L10.7536 91.9512L10.8688 91.9902L10.9843 92.0281L11.1002 92.0648L11.2164 92.1005L11.3329 92.135L11.4496 92.1683L11.5668 92.2005L11.6841 92.2316L11.8018 92.2616L11.9196 92.2904L12.0378 92.318L12.1561 92.3445L12.2747 92.3699L12.3935 92.3941L12.5124 92.4171L12.6315 92.439L12.7508 92.4598L12.8702 92.4794L12.9899 92.4978L13.1096 92.5151L13.2294 92.5312L13.3493 92.5462L13.4694 92.56L13.5894 92.5726L13.7097 92.5841L13.8299 92.5945L13.9501 92.6036L14.0704 92.6117L14.1908 92.6185L14.3111 92.6242L14.4314 92.6288L14.5517 92.6322L14.672 92.6344L14.7922 92.6355L14.9124 92.6354L15.0325 92.6342L15.1526 92.6318L15.2726 92.6283L15.3924 92.6236L15.5121 92.6178L15.6317 92.6108L15.7512 92.6027L15.8705 92.5935L15.9897 92.5831L16.1087 92.5716L16.2275 92.5589L16.3461 92.5451L16.4645 92.5302L16.5826 92.5142L16.7006 92.497L16.8183 92.4787L16.9357 92.4593L17.0529 92.4388L17.1698 92.4172L17.2864 92.3944L17.4027 92.3706L17.5187 92.3456L17.6344 92.3196L17.7497 92.2924L17.8647 92.2642L17.9793 92.2349L18.0935 92.2044L18.2074 92.173L18.3209 92.1404L18.434 92.1068L18.5467 92.0721L18.6589 92.0363L18.7707 91.9995L18.8821 91.9616L18.9929 91.9227L19.1034 91.8828L19.2133 91.8418L19.3228 91.7998L19.4318 91.7567L19.5402 91.7127L19.6481 91.6676L19.7556 91.6215L19.8624 91.5744L19.9687 91.5263L20.0744 91.4772L20.1796 91.4271L20.2842 91.3761L20.3882 91.324L20.4916 91.271L20.5944 91.2171L20.6966 91.1622L20.7981 91.1063L20.899 91.0495L20.9992 90.9918L21.0988 90.9331L21.1977 90.8735L21.2959 90.813L21.3935 90.7515L21.4903 90.6892L21.5865 90.626L21.6819 90.5619L21.7766 90.4969L21.8706 90.4311L21.9638 90.3644L22.0563 90.2968L22.1479 90.2284L22.2389 90.1591L22.3291 90.089L22.4185 90.0181L22.5071 89.9464L22.5949 89.8738L22.6819 89.8005L22.768 89.7263L22.8534 89.6514L22.9379 89.5757L23.0216 89.4993L23.1044 89.422L23.1863 89.344L23.2675 89.2653L23.3477 89.1859L23.4271 89.1057L23.5056 89.0248L23.5832 88.9432L23.6598 88.8609L23.7356 88.7779L23.8105 88.6942L23.8844 88.6099L23.9575 88.5248L24.0296 88.4392L24.1008 88.3529L24.171 88.266L24.2403 88.1784L24.3086 88.0902L24.3759 88.0015L24.4423 87.9121L24.5077 87.8221L24.5721 87.7316L24.6356 87.6405L24.6981 87.5489L24.7595 87.4566L24.82 87.3639L24.8795 87.2706L24.9379 87.1768L24.9953 87.0826L25.0518 86.9877L25.1071 86.8925L25.1615 86.7967L25.2148 86.7005L25.2672 86.6039L25.3184 86.5067L25.3686 86.4091L25.4178 86.3111L25.4659 86.2128L25.5129 86.114L25.5589 86.0147L25.6038 85.9152L25.6476 85.8152L25.6904 85.7149L25.7321 85.6142L25.7727 85.5131L25.8123 85.4119L25.8507 85.3102L25.8881 85.2082L25.9244 85.1059L25.9596 85.0033L25.9937 84.9005L26.0267 84.7973L26.0586 84.694L26.0894 84.5903L26.1191 84.4865L26.1477 84.3824L26.1752 84.2781L26.2015 84.1736L26.2269 84.0689L26.251 83.964L26.274 83.859L26.296 83.7538L26.3168 83.6484L26.3365 83.5429L26.3551 83.4373L26.3726 83.3316L26.3889 83.2257L26.4041 83.1198L26.4183 83.0138L26.4313 82.9077L26.4432 82.8015L26.454 82.6953L26.4636 82.589L26.4722 82.4827L26.4795 82.3764L26.4859 82.2701L26.491 82.1638L26.4951 82.0575L26.4981 81.9512L26.4998 81.8449L26.5006 81.7387L26.5002 81.6326L26.4987 81.5265L26.4961 81.4205L26.4923 81.3146L26.4875 81.2087L26.4816 81.103L26.4745 80.9974L26.4664 80.8919L26.4572 80.7866L26.4469 80.6814L26.4354 80.5764L26.4229 80.4715L26.4093 80.3669L26.3946 80.2624L26.3788 80.1582L26.3619 80.0541L26.344 79.9503L26.3249 79.8466L26.3048 79.7433L26.2837 79.6402L26.2615 79.5373L26.2381 79.4347L26.2138 79.3325L26.1884 79.2305L26.1619 79.1288L26.1344 79.0274L26.1058 78.9264L26.0762 78.8257L26.0455 78.7253L26.0138 78.6253L25.9811 78.5256L25.9475 78.4263L25.9127 78.3274L25.8769 78.2289L25.8402 78.1308L25.8023 78.0331L25.7636 77.9358L25.7238 77.8389L25.683 77.7425L25.6413 77.6466L25.5985 77.5511L25.5548 77.456L25.5102 77.3615L25.4646 77.2675L25.418 77.1738L25.3704 77.0807L25.3219 76.9882L25.2724 76.8961L25.2221 76.8046L25.1708 76.7136L25.1185 76.6231L25.0654 76.5333L25.0114 76.444L24.9565 76.3553L24.9006 76.267L24.8439 76.1795L24.7862 76.0924L24.7278 76.0061L24.6684 75.9204L24.6081 75.8352L24.547 75.7506L24.4851 75.6668L24.4223 75.5836L24.3587 75.501L24.2943 75.4191L24.229 75.3378L24.163 75.2573L24.0961 75.1773L24.0285 75.0981L23.96 75.0197L23.8908 74.9417L23.8207 74.8646L23.75 74.7883L23.6784 74.7126L23.6062 74.6377L23.5331 74.5635L23.4594 74.4901L23.385 74.4175L23.3097 74.3455L23.2338 74.2743L23.1572 74.2039L23.0799 74.1342L23.002 74.0655L22.9234 73.9975L22.8439 73.9301L22.7641 73.8637L22.6834 73.798L22.6022 73.7333L22.5203 73.6692L22.4378 73.6061L22.3547 73.5438L22.2709 73.4822L22.1867 73.4216L22.1017 73.3617L22.0163 73.3027L21.9302 73.2446L21.8436 73.1872L21.7566 73.1309L21.6688 73.0754L21.5807 73.0208L21.4919 72.967L21.4026 72.914L21.313 72.862L21.2228 72.811L21.132 72.7607L21.0409 72.7115L20.9492 72.663L20.8571 72.6155L20.7647 72.569L20.6716 72.5233L20.5782 72.4785L20.4847 72.4347L20.3903 72.3918L20.2957 72.3498L20.2008 72.3088L20.1055 72.2687L20.0098 72.2295L19.9138 72.1913L19.8173 72.154L19.7206 72.1176L19.6238 72.0823L19.5262 72.0479L19.4287 72.0144L19.3307 71.9819L19.2325 71.9503L19.1339 71.9197L19.0354 71.8901L18.9361 71.8614L18.837 71.8338L18.7375 71.807L18.6379 71.7813L18.538 71.7565L18.438 71.7327L18.3377 71.7098L18.2372 71.688L18.1366 71.6671L18.0357 71.6472L17.935 71.6283L17.8337 71.6103L17.7328 71.5934L17.6314 71.5774L17.53 71.5624L17.4285 71.5484L17.3269 71.5353L17.2254 71.5233L17.1234 71.5122L17.0219 71.5021L16.92 71.493L16.8183 71.4849L16.7162 71.4778L16.6146 71.4716L16.5126 71.4664L16.4106 71.4622L16.3089 71.459L16.2073 71.4567L16.1053 71.4555L16.0036 71.4552L15.9019 71.4559L15.8004 71.4575L15.6988 71.4602L15.5976 71.4638L15.4961 71.4684L15.395 71.4739L15.2939 71.4805L15.1931 71.4879L15.0921 71.4964L14.9916 71.5058L14.891 71.5161L14.7908 71.5275L14.6906 71.5398L14.5907 71.553L14.4908 71.5672L14.3914 71.5823L14.2922 71.5984L14.193 71.6154L14.0942 71.6334L13.9957 71.6523L13.8972 71.6721L13.7994 71.6928L13.7014 71.7146L13.6041 71.7371L13.5067 71.7607L13.41 71.7851L13.3135 71.8105L13.2171 71.8368L13.1214 71.8639L13.0259 71.892L12.9306 71.921L12.8359 71.9508L12.7413 71.9817L12.6473 72.0133L12.5536 72.0458L12.4604 72.0792L12.3674 72.1136L12.275 72.1487L12.1831 72.1847L12.0916 72.2215L12.0002 72.2594L11.9098 72.2978L11.8193 72.3374L11.7298 72.3776L11.6405 72.4187L11.5516 72.4607L11.4634 72.5034L11.3756 72.547L11.2882 72.5915L11.2017 72.6365L11.1154 72.6826L11.0297 72.7294L10.9445 72.777L10.8601 72.8253L10.776 72.8746L10.6926 72.9244L10.6096 72.9752L10.5274 73.0266L10.4458 73.0788L10.3646 73.1318L10.2842 73.1855L10.2043 73.2399L10.1251 73.2952L10.0464 73.351L9.96853 73.4077L9.89115 73.465L9.8145 73.523L9.73851 73.5818L9.66311 73.6412L9.58843 73.7014L9.51442 73.7621L9.44113 73.8235L9.3685 73.8856L9.29646 73.9486L9.22541 74.0118L9.15475 74.0761L9.08509 74.1407L9.01595 74.206L8.94767 74.2719L8.87991 74.3386L8.81321 74.4056L8.74704 74.4735L8.68166 74.5419L8.61713 74.6107L8.55333 74.6801L8.49012 74.7504L8.42784 74.821L8.36635 74.8921L8.30565 74.9639L8.24567 75.0362L8.18668 75.1089L8.12815 75.1823L8.07075 75.256L8.01406 75.3304L7.95811 75.4053L7.90307 75.4805L7.8487 75.5565L7.79544 75.6325L7.74278 75.7093L7.69104 75.7864L7.6401 75.8642L7.59 75.9422L7.54084 76.0207L7.49259 76.0994L7.44494 76.179L7.39841 76.2585L7.3526 76.3387L7.30772 76.4192L7.26376 76.5L7.22058 76.5813L7.17827 76.6629L7.13695 76.7448L7.09641 76.8272L7.05687 76.9097L7.01811 76.9927L6.97909 77.0786L6.94344 77.1594L6.90732 77.2435L6.87232 77.3275L6.83798 77.4121L6.80476 77.4967L6.77234 77.5818L6.7409 77.6669L6.71025 77.7525L6.68066 77.8381L6.65192 77.9241L6.62411 78.0103L6.59728 78.0965L6.57129 78.1832L6.54619 78.2701L6.52211 78.3569L6.49895 78.4438L6.47664 78.5314L6.45536 78.6186L6.43493 78.7063L6.41549 78.7939L6.39693 78.8819L6.37934 78.9697L6.36267 79.0578L6.34696 79.1459L6.33213 79.2343L6.31828 79.3225L6.30535 79.4109L6.29335 79.4995L6.28229 79.588L6.27218 79.6765L6.26299 79.7651L6.25474 79.8537L6.24742 79.9424L6.24102 80.0312L6.23558 80.1197L6.23106 80.2083L6.22747 80.2972L6.22482 80.3856L6.2231 80.4742L6.22231 80.5627L6.22244 80.6514L6.22265 80.6691L8.74183 80.6412L8.74157 80.5909L8.74196 80.5262L8.74302 80.4615L8.7448 80.3967L8.74724 80.3319L8.7504 80.267L8.75422 80.2022L8.7587 80.1373L8.76391 80.0724L8.76978 80.0075L8.77637 79.9426L8.78362 79.8778L8.79159 79.8129L8.80023 79.7481L8.80952 79.6833L8.8196 79.6185L8.83028 79.5538L8.84168 79.4892L8.85381 79.4245L8.8666 79.36L8.88011 79.2955L8.89428 79.2311L8.90911 79.1668L8.92466 79.1026L8.94094 79.0385L8.95788 78.9744L8.97548 78.9106L8.9938 78.8468L9.01278 78.7831L9.03249 78.7196L9.05286 78.6562L9.07388 78.5929L9.09563 78.5299L9.11804 78.467L9.14117 78.4042L9.16497 78.3416L9.18942 78.2792L9.21453 78.217L9.24037 78.155L9.26686 78.0931L9.29402 78.0315L9.3219 77.9701L9.35037 77.9089L9.37957 77.848L9.40936 77.7873L9.43987 77.7268L9.47105 77.6666L9.50288 77.6066L9.53538 77.5469L9.56853 77.4874L9.60228 77.4283L9.63675 77.3694L9.67181 77.3108L9.70753 77.2525L9.74391 77.1944L9.78095 77.1367L9.81859 77.0793L9.85688 77.0222L9.89583 76.9655L9.93538 76.909L9.97552 76.853L10.0163 76.7972L10.0578 76.7418L10.0998 76.6868L10.1424 76.6321L10.1857 76.5778L10.2295 76.5239L10.274 76.4704L10.3191 76.4172L10.3647 76.3645L10.411 76.3121L10.4578 76.2601L10.5052 76.2086L10.5532 76.1574L10.6018 76.1067L10.651 76.0564L10.7007 76.0067L10.7509 75.9573L10.8018 75.9083L10.8532 75.8598L10.9051 75.8118L10.9576 75.7642L11.0106 75.7171L11.0642 75.6705L11.1183 75.6244L11.173 75.5787L11.2281 75.5336L11.2837 75.4889L11.3399 75.4447L11.3966 75.4011L11.4538 75.358L11.5115 75.3153L11.5697 75.2733L11.6283 75.2317L11.6875 75.1907L11.7471 75.1502L11.8072 75.1102L11.8678 75.0709L11.9288 75.032L11.9903 74.9937L12.0522 74.9561L12.1146 74.9189L12.1774 74.8823L12.2406 74.8463L12.3043 74.8109L12.3684 74.7761L12.4329 74.7419L12.4978 74.7083L12.5631 74.6752L12.6288 74.6428L12.6949 74.611L12.7614 74.5798L12.8283 74.5492L12.8956 74.5192L12.9631 74.4899L13.0311 74.4613L13.0994 74.4332L13.1681 74.4057L13.2371 74.379L13.3064 74.3528L13.3761 74.3273L13.446 74.3025L13.5164 74.2783L13.5869 74.2548L13.6579 74.232L13.729 74.2097L13.8006 74.1883L13.8723 74.1674L13.9443 74.1473L14.0166 74.1278L14.0892 74.1089L14.162 74.0909L14.235 74.0734L14.3083 74.0567L14.3818 74.0407L14.4556 74.0253L14.5295 74.0107L14.6037 73.9967L14.678 73.9835L14.7526 73.971L14.8274 73.9592L14.9022 73.9481L14.9774 73.9377L15.0526 73.928L15.128 73.9191L15.2036 73.9108L15.2793 73.9033L15.3551 73.8966L15.4311 73.8904L15.5071 73.8851L15.5833 73.8805L15.6596 73.8767L15.736 73.8735L15.8125 73.8711L15.889 73.8695L15.9657 73.8685L16.0424 73.8684L16.1191 73.8689L16.1959 73.8702L16.2727 73.8722L16.3497 73.875L16.4265 73.8785L16.5034 73.8828L16.5804 73.8878L16.6573 73.8935L16.7342 73.9001L16.8111 73.9073L16.888 73.9153L16.9649 73.924L17.0417 73.9335L17.1185 73.9437L17.1952 73.9547L17.2719 73.9664L17.3484 73.9789L17.425 73.9922L17.5014 74.0061L17.5777 74.0209L17.654 74.0363L17.7301 74.0525L17.8061 74.0695L17.882 74.0872L17.9578 74.1056L18.0334 74.1248L18.1088 74.1447L18.1841 74.1654L18.2592 74.1868L18.3342 74.2089L18.409 74.2319L18.4836 74.2555L18.558 74.2799L18.6322 74.3049L18.7062 74.3308L18.7799 74.3574L18.8535 74.3846L18.9268 74.4126L18.9999 74.4414L19.0726 74.4709L19.1452 74.501L19.2175 74.5319L19.2895 74.5636L19.3612 74.5959L19.4326 74.629L19.5037 74.6628L19.5746 74.6973L19.645 74.7324L19.7152 74.7683L19.7851 74.8049L19.8546 74.8422L19.9238 74.8802L19.9926 74.9189L20.0611 74.9582L20.1292 74.9982L20.1969 75.039L20.2643 75.0804L20.3312 75.1225L20.3977 75.1653L20.4639 75.2087L20.5296 75.2528L20.5949 75.2976L20.6598 75.343L20.7243 75.3891L20.7883 75.4359L20.8518 75.4832L20.915 75.5313L20.9776 75.58L21.0398 75.6293L21.1015 75.6792L21.1627 75.7298L21.2234 75.781L21.2837 75.8328L21.3434 75.8853L21.4026 75.9383L21.4613 75.9919L21.5195 76.0461L21.5771 76.101L21.6342 76.1564L21.6908 76.2125L21.7468 76.2691L21.8022 76.3263L21.8571 76.3841L21.9114 76.4424L21.9652 76.5013L22.0183 76.5607L22.0709 76.6207L22.1228 76.6812L22.1742 76.7424L22.2249 76.804L22.2751 76.8661L22.3246 76.9288L22.3735 76.992L22.4218 77.0557L22.4694 77.1199L22.5164 77.1846L22.5627 77.2499L22.6084 77.3156L22.6534 77.3818L22.6978 77.4484L22.7414 77.5156L22.7844 77.5831L22.8267 77.6512L22.8683 77.7197L22.9093 77.7887L22.9495 77.8581L22.9891 77.9279L23.0279 77.9982L23.066 78.0688L23.1034 78.1399L23.1401 78.2114L23.176 78.2833L23.2112 78.3556L23.2457 78.4283L23.2794 78.5013L23.3124 78.5748L23.3446 78.6486L23.3761 78.7227L23.4068 78.7973L23.4368 78.8721L23.466 78.9473L23.4944 79.0228L23.522 79.0987L23.5489 79.1748L23.5749 79.2513L23.6002 79.328L23.6248 79.4051L23.6484 79.4824L23.6714 79.56L23.6934 79.6379L23.7147 79.7161L23.7352 79.7945L23.7549 79.8732L23.7738 79.9521L23.7918 80.0312L23.809 80.1106L23.8255 80.1902L23.8411 80.2699L23.8558 80.35L23.8697 80.4302L23.8828 80.5105L23.8951 80.591L23.9065 80.6718L23.9171 80.7527L23.9268 80.8337L23.9357 80.9148L23.9437 80.9961L23.9509 81.0776L23.9572 81.1591L23.9627 81.2408L23.9673 81.3226L23.971 81.4045L23.9739 81.4864L23.976 81.5685L23.9772 81.6506L23.9775 81.7328L23.977 81.8151L23.9755 81.8973L23.9733 81.9796L23.9701 82.062L23.9661 82.1443L23.9612 82.2268L23.9555 82.3091L23.9489 82.3915L23.9414 82.4739L23.933 82.5562L23.9238 82.6386L23.9137 82.7209L23.9028 82.8031L23.8909 82.8853L23.8782 82.9675L23.8646 83.0495L23.8502 83.1315L23.8348 83.2134L23.8187 83.2952L23.8016 83.3769L23.7836 83.4584L23.7648 83.5399L23.7452 83.6212L23.7246 83.7024L23.7032 83.7835L23.6809 83.8643L23.6578 83.9451L23.6338 84.0257L23.6089 84.106L23.5832 84.1862L23.5567 84.2662L23.5292 84.3459L23.5009 84.4255L23.4718 84.5048L23.4418 84.5839L23.411 84.6628L23.3793 84.7414L23.3467 84.8198L23.3133 84.8979L23.2791 84.9757L23.244 85.0533L23.2082 85.1305L23.1714 85.2074L23.1338 85.2841L23.0954 85.3604L23.0562 85.4364L23.0162 85.5121L22.9753 85.5875L22.9336 85.6624L22.8911 85.7371L22.8478 85.8113L22.8037 85.8852L22.7588 85.9588L22.7131 86.0319L22.6666 86.1047L22.6193 86.177L22.5712 86.249L22.5223 86.3205L22.4727 86.3915L22.4222 86.4622L22.371 86.5324L22.319 86.6021L22.2663 86.6714L22.2128 86.7402L22.1585 86.8086L22.1035 86.8765L22.0478 86.9439L21.9913 87.0108L21.934 87.0771L21.8761 87.143L21.8173 87.2084L21.758 87.2732L21.6978 87.3375L21.6369 87.4013L21.5754 87.4645L21.5132 87.5271L21.4502 87.5893L21.3866 87.6508L21.3222 87.7118L21.2572 87.7721L21.1915 87.8319L21.1252 87.8911L21.0582 87.9497L20.9906 88.0076L20.9222 88.065L20.8533 88.1218L20.7837 88.1778L20.7135 88.2334L20.6426 88.2881L20.5711 88.3424L20.4991 88.3958L20.4264 88.4487L20.3531 88.5009L20.2792 88.5524L20.2048 88.6033L20.1297 88.6534L20.0541 88.7029L19.9779 88.7517L19.9012 88.7997L19.824 88.8471L19.7461 88.8937L19.6678 88.9396L19.5889 88.9848L19.5095 89.0292L19.4296 89.0729L19.3491 89.1159L19.2682 89.1581L19.1868 89.1996L19.1049 89.2403L19.0225 89.2803L18.9397 89.3194L18.8564 89.3578L18.7726 89.3955L18.6884 89.4323L18.6037 89.4684L18.5187 89.5036L18.4332 89.5381L18.3473 89.5717L18.261 89.6046L18.1743 89.6366L18.0872 89.6679L17.9998 89.6983L17.912 89.7278L17.8237 89.7566L17.7352 89.7845L17.6463 89.8116L17.557 89.8379L17.4675 89.8633L17.3776 89.8878L17.2875 89.9115L17.197 89.9344L17.1062 89.9564L17.0151 89.9775L16.9238 89.9978L16.8322 90.0172L16.7403 90.0357L16.6482 90.0534L16.5559 90.0702L16.4633 90.0861L16.3705 90.1011L16.2775 90.1152L16.1843 90.1285L16.0909 90.1409L15.9973 90.1523L15.9035 90.1629L15.8096 90.1726L15.7155 90.1814L15.6213 90.1893L15.5269 90.1963L15.4325 90.2023L15.3378 90.2075L15.2431 90.2118L15.1483 90.2152L15.0534 90.2176L14.9584 90.2192L14.8633 90.2198L14.7682 90.2195L14.6731 90.2183L14.5779 90.2162L14.4826 90.2131L14.3873 90.2092L14.2921 90.2043L14.1968 90.1985L14.1016 90.1918L14.0063 90.1842L13.9111 90.1756L13.8158 90.1662L13.7207 90.1558L13.6256 90.1445L13.5306 90.1322L13.4356 90.1191L13.3408 90.105L13.246 90.09L13.1513 90.0741L13.0568 90.0573L12.9623 90.0395L12.8681 90.0208L12.7739 90.0013L12.6799 89.9807L12.586 89.9593L12.4924 89.937L12.3989 89.9137L12.3056 89.8896L12.2125 89.8645L12.1197 89.8385L12.027 89.8117L11.9345 89.7839L11.8424 89.7552L11.7504 89.7256L11.6588 89.6951L11.5674 89.6637L11.4762 89.6314L11.3854 89.5982L11.2948 89.5641L11.2046 89.5291L11.1147 89.4933L11.0251 89.4565L10.9358 89.4189L10.8469 89.3804L10.7583 89.341L10.6701 89.3008L10.5823 89.2596L10.4949 89.2176L10.4079 89.1748L10.3212 89.1311L10.235 89.0865L10.1492 89.0411L10.0638 88.9948L9.97888 88.9477L9.89438 88.8997L9.81035 88.8509L9.72678 88.8013L9.64367 88.7508L9.56108 88.6995L9.47896 88.6474L9.39736 88.5944L9.31623 88.5407L9.23562 88.4861L9.15561 88.4308L9.07606 88.3746L8.9971 88.3176L8.91867 88.2599L8.84083 88.2013L8.76358 88.1421L8.68686 88.082L8.61074 88.0211L8.53521 87.9595L8.46033 87.8971L8.38605 87.8339L8.31237 87.7701L8.23934 87.7054L8.16691 87.64L8.0952 87.574L8.02408 87.5072L7.95362 87.4396L7.88389 87.3713L7.81475 87.3024L7.74641 87.2327L7.67865 87.1623L7.61169 87.0913L7.54538 87.0196L7.4798 86.9471L7.41495 86.874L7.35082 86.8003L7.28742 86.7259L7.2248 86.6509L7.16291 86.5752L7.10182 86.4989L7.04144 86.4219L6.98186 86.3443L6.92307 86.2662L6.86507 86.1873L6.80786 86.1079L6.75151 86.028L6.69588 85.9474L6.64111 85.8662L6.58716 85.7845L6.53403 85.7022L6.48174 85.6194L6.43029 85.536L6.37968 85.4521L6.32993 85.3676L6.28104 85.2827L6.23302 85.1972L6.18587 85.1112L6.1396 85.0247L6.0942 84.9377L6.0497 84.8502L6.0061 84.7623L5.96339 84.6739L5.92158 84.585L5.88069 84.4957L5.84072 84.4059L5.80166 84.3157L5.76353 84.2252L5.72633 84.1341L5.69007 84.0427L5.65475 83.9508L5.62037 83.8586L5.58694 83.766L5.55447 83.673L5.52296 83.5798L5.4924 83.4861L5.46282 83.3921L5.4342 83.2977L5.40656 83.203L5.3799 83.108L5.35422 83.0127L5.32953 82.9171L5.30584 82.8212L5.28313 82.7251L5.26142 82.6287L5.24071 82.532L5.22101 82.435L5.20231 82.3379L5.18462 82.2405L5.16794 82.1428L5.15228 82.045L5.13765 81.9469L5.12402 81.8487L5.11933 81.8121ZM8.85579 81.7706L6.30892 81.7989L6.32094 81.8794L6.33481 81.9659L6.34959 82.0526L6.36522 82.1386L6.3818 82.2248L6.39923 82.3105L6.41756 82.3961L6.43675 82.4813L6.45684 82.5664L6.47783 82.6513L6.49968 82.7359L6.52239 82.8202L6.54601 82.9044L6.5696 82.9853L6.59577 83.0715L6.62193 83.1547L6.64895 83.2375L6.67677 83.3199L6.70551 83.4022L6.7351 83.4841L6.76548 83.5656L6.79666 83.6468L6.82876 83.7276L6.86158 83.808L6.89532 83.8882L6.92979 83.9677L6.96519 84.0472L7.0013 84.1261L7.03821 84.2046L7.07591 84.2826L7.11447 84.3604L7.15382 84.4377L7.19383 84.5144L7.23475 84.591L7.27634 84.6667L7.31885 84.7423L7.36189 84.8172L7.40599 84.892L7.45054 84.966L7.49595 85.0396L7.54215 85.1127L7.58902 85.1853L7.63673 85.2576L7.68498 85.3291L7.73408 85.4003L7.78384 85.4708L7.83426 85.5408L7.88547 85.6103L7.93741 85.6794L7.98981 85.7477L8.04313 85.8156L8.09704 85.883L8.15162 85.9497L8.20678 86.0158L8.26274 86.0815L8.31922 86.1465L8.37637 86.2109L8.4343 86.2748L8.49263 86.3379L8.55175 86.4006L8.61146 86.4626L8.6717 86.524L8.73254 86.5847L8.7941 86.645L8.85605 86.7044L8.91867 86.7633L8.98194 86.8216L9.04567 86.8791L9.11007 86.936L9.17492 86.9923L9.2403 87.0479L9.30628 87.1029L9.37285 87.1572L9.43974 87.2106L9.5073 87.2635L9.57538 87.3158L9.64386 87.3673L9.7128 87.4181L9.7824 87.4683L9.85233 87.5177L9.92279 87.5664L9.99371 87.6144L10.0651 87.6617L10.1368 87.7083L10.209 87.7541L10.2817 87.7993L10.3548 87.8437L10.4282 87.8873L10.5021 87.9302L10.5765 87.9723L10.6512 88.0138L10.7262 88.0545L10.8017 88.0944L10.8774 88.1335L10.9535 88.172L11.0301 88.2097L11.1068 88.2466L11.1841 88.2827L11.2616 88.318L11.3393 88.3527L11.4175 88.3865L11.4958 88.4195L11.5745 88.4518L11.6535 88.4833L11.7327 88.514L11.8122 88.5439L11.892 88.5731L11.972 88.6014L12.0522 88.629L12.1328 88.6558L12.2134 88.6817L12.2943 88.7069L12.3755 88.7313L12.4568 88.7549L12.5383 88.7777L12.6199 88.7997L12.7017 88.8209L12.7838 88.8413L12.8659 88.8609L12.9482 88.8797L13.0307 88.8976L13.1132 88.9148L13.1959 88.9312L13.2787 88.9467L13.3615 88.9615L13.4446 88.9755L13.5276 88.9886L13.6108 89.0009L13.6939 89.0125L13.7772 89.0232L13.8605 89.0331L13.9439 89.0422L14.0273 89.0505L14.1107 89.058L14.1942 89.0647L14.2775 89.0705L14.361 89.0756L14.4445 89.0799L14.5279 89.0833L14.6112 89.086L14.6945 89.0878L14.7779 89.0889L14.8612 89.0891L14.9443 89.0886L15.0274 89.0872L15.1105 89.0851L15.1934 89.0822L15.2763 89.0784L15.3591 89.0739L15.4417 89.0686L15.5243 89.0625L15.6067 89.0556L15.6889 89.0479L15.771 89.0394L15.853 89.0302L15.9349 89.0201L16.0165 89.0093L16.098 88.9977L16.1792 88.9854L16.2603 88.9722L16.3413 88.9583L16.4219 88.9437L16.5024 88.9282L16.5826 88.9121L16.6627 88.8951L16.7424 88.8774L16.822 88.8589L16.9012 88.8397L16.9803 88.8198L17.059 88.7991L17.1375 88.7776L17.2156 88.7555L17.2935 88.7325L17.3712 88.7089L17.4484 88.6845L17.5253 88.6594L17.602 88.6336L17.6783 88.6071L17.7543 88.5799L17.8299 88.5519L17.9052 88.5233L17.9801 88.4939L18.0547 88.4639L18.1288 88.4331L18.2026 88.4017L18.276 88.3696L18.349 88.3367L18.4216 88.3033L18.4938 88.2691L18.5656 88.2343L18.637 88.1989L18.7079 88.1627L18.7785 88.126L18.8485 88.0885L18.9181 88.0504L18.9873 88.0117L19.056 87.9723L19.1242 87.9324L19.192 87.8918L19.2593 87.8505L19.326 87.8087L19.3924 87.7662L19.4582 87.7233L19.5235 87.6796L19.5883 87.6353L19.6526 87.5905L19.7163 87.5451L19.7796 87.4991L19.8422 87.4526L19.9044 87.4054L19.966 87.3577L20.0271 87.3095L20.0876 87.2607L20.1476 87.2114L20.2069 87.1615L20.2658 87.1111L20.324 87.0602L20.3816 87.0088L20.4387 86.9568L20.4952 86.9043L20.5511 86.8514L20.6064 86.7979L20.6611 86.7439L20.7151 86.6896L20.7687 86.6346L20.8215 86.5793L20.8737 86.5235L20.9253 86.4672L20.9762 86.4104L21.0266 86.3532L21.0762 86.2956L21.1252 86.2375L21.1736 86.1791L21.2214 86.1202L21.2684 86.0608L21.3148 86.0012L21.3606 85.9411L21.4057 85.8806L21.4501 85.8197L21.4939 85.7584L21.5369 85.6967L21.5793 85.6347L21.621 85.5724L21.662 85.5097L21.7023 85.4466L21.7419 85.3832L21.7808 85.3196L21.8191 85.2555L21.8566 85.1912L21.8934 85.1265L21.9295 85.0615L21.9648 84.9963L21.9996 84.9307L22.0335 84.8649L22.0668 84.7988L22.0993 84.7325L22.1311 84.6658L22.1622 84.599L22.1925 84.5319L22.2222 84.4645L22.251 84.3969L22.2792 84.3292L22.3066 84.2611L22.3333 84.1929L22.3592 84.1245L22.3844 84.0559L22.4089 83.987L22.4326 83.9181L22.4556 83.8489L22.4778 83.7796L22.4993 83.7101L22.5201 83.6405L22.54 83.5708L22.5593 83.5009L22.5778 83.4309L22.5955 83.3607L22.6125 83.2905L22.6288 83.2201L22.6443 83.1496L22.659 83.0791L22.673 83.0084L22.6862 82.9378L22.6987 82.867L22.7104 82.7961L22.7214 82.7253L22.7316 82.6543L22.7411 82.5834L22.7498 82.5124L22.7578 82.4414L22.765 82.3703L22.7714 82.2992L22.7771 82.2282L22.7821 82.1571L22.7863 82.0861L22.7898 82.0151L22.7925 81.944L22.7944 81.8731L22.7956 81.8022L22.7961 81.7313L22.7958 81.6605L22.7948 81.5898L22.7931 81.5191L22.7906 81.4485L22.7873 81.3779L22.7833 81.3075L22.7786 81.2372L22.7732 81.167L22.767 81.0969L22.76 81.0269L22.7524 80.957L22.744 80.8873L22.7349 80.8177L22.7251 80.7482L22.7146 80.6789L22.7034 80.6098L22.6914 80.5408L22.6787 80.4721L22.6653 80.4034L22.6512 80.335L22.6364 80.2668L22.6208 80.1987L22.6046 80.131L22.5877 80.0634L22.5701 79.996L22.5518 79.9288L22.5328 79.8619L22.5131 79.7952L22.4928 79.7288L22.4717 79.6626L22.4501 79.5967L22.4277 79.531L22.4046 79.4656L22.3809 79.4005L22.3565 79.3357L22.3314 79.2711L22.3057 79.2069L22.2794 79.143L22.2523 79.0794L22.2247 79.0161L22.1964 78.9531L22.1674 78.8905L22.1379 78.8281L22.1077 78.7662L22.0769 78.7045L22.0455 78.6432L22.0135 78.5823L21.9807 78.5216L21.9475 78.4615L21.9136 78.4016L21.8792 78.3422L21.8441 78.2831L21.8084 78.2244L21.7722 78.1662L21.7353 78.1083L21.698 78.0508L21.66 77.9938L21.6215 77.937L21.5824 77.8809L21.5428 77.8251L21.5025 77.7696L21.4618 77.7147L21.4206 77.6603L21.3786 77.6061L21.3364 77.5526L21.2935 77.4994L21.2501 77.4467L21.2062 77.3946L21.1617 77.3427L21.1168 77.2914L21.0714 77.2407L21.0254 77.1903L20.979 77.1405L20.9322 77.0912L20.8847 77.0422L20.837 76.994L20.7887 76.9461L20.7399 76.8987L20.6908 76.852L20.6411 76.8057L20.591 76.7598L20.5404 76.7145L20.4895 76.6699L20.4381 76.6256L20.3863 76.5819L20.3341 76.5389L20.2814 76.4962L20.2284 76.4542L20.175 76.4127L20.1211 76.3717L20.0671 76.3313L20.0124 76.2915L19.9575 76.2522L19.9022 76.2134L19.8465 76.1753L19.7906 76.1378L19.7342 76.1007L19.6775 76.0643L19.6205 76.0285L19.5631 75.9932L19.5056 75.9586L19.4476 75.9244L19.3892 75.8909L19.3307 75.858L19.2719 75.8257L19.2126 75.7939L19.1534 75.7629L19.0935 75.7323L19.0336 75.7024L18.9734 75.6731L18.9128 75.6443L18.8523 75.6163L18.7911 75.5887L18.7302 75.562L18.6685 75.5356L18.607 75.51L18.545 75.4849L18.4831 75.4605L18.4208 75.4367L18.3584 75.4135L18.2957 75.391L18.233 75.3691L18.1699 75.3477L18.1068 75.3271L18.0435 75.3071L17.98 75.2876L17.9164 75.2688L17.8526 75.2506L17.7888 75.2331L17.7248 75.2162L17.6607 75.2L17.5965 75.1843L17.5321 75.1693L17.4678 75.1549L17.4031 75.1412L17.3386 75.1281L17.2739 75.1156L17.2092 75.1038L17.1444 75.0926L17.0794 75.082L17.0146 75.0721L16.9496 75.0628L16.8846 75.0541L16.8196 75.0461L16.7546 75.0387L16.6893 75.0319L16.6246 75.0258L16.5592 75.0203L16.4942 75.0154L16.4293 75.0112L16.3642 75.0076L16.2992 75.0046L16.2342 75.0023L16.1691 75.0005L16.1044 74.9995L16.0394 74.999L15.9746 74.9992L15.9098 74.9999L15.8453 75.0013L15.7807 75.0034L15.7161 75.006L15.6519 75.0093L15.5874 75.0132L15.5232 75.0177L15.4592 75.0227L15.3951 75.0285L15.3314 75.0348L15.2675 75.0418L15.204 75.0493L15.1405 75.0575L15.0771 75.0662L15.0139 75.0756L14.951 75.0855L14.8882 75.0961L14.8256 75.1072L14.7629 75.119L14.7007 75.1314L14.6387 75.1443L14.5767 75.1578L14.5149 75.1719L14.4536 75.1865L14.3921 75.2018L14.3311 75.2176L14.2702 75.234L14.2097 75.251L14.1493 75.2685L14.0891 75.2866L14.0293 75.3053L13.9697 75.3245L13.9102 75.3443L13.8512 75.3646L13.7924 75.3855L13.7339 75.4069L13.6756 75.4288L13.6175 75.4513L13.56 75.4744L13.5025 75.498L13.4455 75.522L13.3888 75.5467L13.3323 75.5718L13.276 75.5975L13.2204 75.6236L13.1648 75.6504L13.1098 75.6776L13.0551 75.7053L13.0004 75.7335L12.9464 75.7621L12.8927 75.7914L12.8393 75.821L12.7862 75.8513L12.7337 75.8818L12.6813 75.913L12.6295 75.9445L12.578 75.9766L12.5269 76.0091L12.4761 76.0422L12.4258 76.0756L12.376 76.1094L12.3264 76.1439L12.2773 76.1786L12.2286 76.2139L12.1804 76.2494L12.1325 76.2856L12.0851 76.3221L12.0381 76.359L11.9915 76.3964L11.9455 76.434L11.8998 76.4723L11.8547 76.5108L11.8098 76.5498L11.7657 76.589L11.7217 76.6289L11.6784 76.6689L11.6354 76.7095L11.593 76.7503L11.5511 76.7915L11.5096 76.833L11.4685 76.8751L11.428 76.9174L11.388 76.96L11.3483 77.0031L11.3095 77.0462L11.2708 77.09L11.2327 77.134L11.1952 77.1783L11.1581 77.2229L11.1215 77.2678L11.0856 77.3129L11.05 77.3586L11.0149 77.4045L10.9806 77.4505L10.9465 77.4971L10.9132 77.5436L10.8803 77.5905L10.8478 77.6378L10.8159 77.6853L10.7847 77.733L10.7538 77.7811L10.7237 77.8292L10.6939 77.8779L10.6648 77.9264L10.6362 77.9754L10.608 78.0246L10.5805 78.074L10.5536 78.1236L10.5271 78.1734L10.5012 78.2235L10.4759 78.2737L10.4512 78.3239L10.4269 78.3748L10.4033 78.4253L10.3802 78.4763L10.3576 78.5275L10.3356 78.5788L10.3143 78.6301L10.2935 78.6817L10.2731 78.7335L10.2535 78.7853L10.2343 78.8374L10.2157 78.8895L10.1977 78.9417L10.1803 78.994L10.1634 79.0464L10.1471 79.0992L10.1314 79.1518L10.1162 79.2046L10.1017 79.2575L10.0876 79.3104L10.0742 79.3636L10.0613 79.4166L10.0491 79.4697L10.0373 79.523L10.0261 79.5764L10.0157 79.6295L10.0056 79.683L9.99621 79.7363L9.98732 79.7899L9.97908 79.8432L9.9713 79.897L9.96425 79.9503L9.95766 80.0039L9.95166 80.0574L9.94625 80.1109L9.94138 80.1645L9.93709 80.2179L9.9334 80.2715L9.93024 80.325L9.92767 80.3783L9.92563 80.4319L9.92418 80.4852L9.92332 80.5385L9.92299 80.5917L9.92312 80.6281L12.4115 80.6005L12.4115 80.5841L12.412 80.5535L12.4128 80.5228L12.4138 80.4921L12.4153 80.4614L12.4171 80.4306L12.4192 80.3998L12.4217 80.369L12.4246 80.3381L12.4277 80.3072L12.4312 80.2763L12.435 80.2454L12.4393 80.2144L12.4438 80.1835L12.4487 80.1526L12.454 80.1216L12.4596 80.0906L12.4655 80.0597L12.4718 80.0287L12.4784 79.9978L12.4855 79.9669L12.4928 79.936L12.5005 79.9051L12.5085 79.8743L12.5169 79.8435L12.5257 79.8127L12.5348 79.782L12.5442 79.7513L12.554 79.7206L12.5642 79.69L12.5747 79.6595L12.5856 79.6289L12.5968 79.5985L12.6083 79.5681L12.6203 79.5378L12.6325 79.5076L12.6451 79.4774L12.6581 79.4473L12.6714 79.4174L12.685 79.3874L12.6991 79.3576L12.7134 79.3278L12.7281 79.2982L12.7432 79.2686L12.7586 79.2392L12.7743 79.2098L12.7905 79.1807L12.8069 79.1515L12.8237 79.1225L12.8409 79.0937L12.8583 79.0649L12.8761 79.0363L12.8942 79.0079L12.9128 78.9795L12.9316 78.9513L12.9508 78.9232L12.9702 78.8953L12.9901 78.8676L13.0103 78.8399L13.0308 78.8125L13.0516 78.7852L13.0728 78.7581L13.0943 78.7311L13.1161 78.7044L13.1382 78.6778L13.1607 78.6513L13.1835 78.6251L13.2066 78.5991L13.23 78.5731L13.2538 78.5475L13.2778 78.522L13.3022 78.4967L13.3269 78.4717L13.3519 78.4468L13.3772 78.4222L13.4029 78.3977L13.4288 78.3735L13.455 78.3495L13.4815 78.3257L13.5083 78.3022L13.5355 78.2789L13.5629 78.2558L13.5906 78.2329L13.6186 78.2104L13.6469 78.188L13.6754 78.1659L13.7043 78.144L13.7334 78.1225L13.7628 78.1011L13.7925 78.08L13.8224 78.0592L13.8527 78.0386L13.8831 78.0184L13.9139 77.9983L13.945 77.9786L13.9763 77.9592L14.0078 77.94L14.0396 77.921L14.0716 77.9025L14.1039 77.8841L14.1365 77.8661L14.1692 77.8484L14.2023 77.831L14.2356 77.8139L14.269 77.797L14.3028 77.7805L14.3367 77.7644L14.3709 77.7484L14.4053 77.7329L14.4399 77.7177L14.4747 77.7027L14.5098 77.6881L14.5451 77.6738L14.5805 77.6599L14.6162 77.6462L14.652 77.633L14.6881 77.62L14.7243 77.6074L14.7608 77.5951L14.7974 77.5832L14.8342 77.5716L14.8712 77.5603L14.9084 77.5495L14.9457 77.5389L14.9832 77.5288L15.0209 77.519L15.0586 77.5095L15.0966 77.5003L15.1347 77.4916L15.173 77.4832L15.2114 77.4752L15.25 77.4676L15.2887 77.4603L15.3275 77.4534L15.3665 77.4469L15.4056 77.4407L15.4447 77.4349L15.4841 77.4296L15.5235 77.4246L15.563 77.4199L15.6027 77.4157L15.6424 77.4118L15.6823 77.4083L15.7222 77.4053L15.7623 77.4025L15.8023 77.4003L15.8425 77.3984L15.8828 77.3969L15.9232 77.3957L15.9636 77.395L16.004 77.3947L16.0445 77.3948L16.0851 77.3952L16.1258 77.3961L16.1664 77.3974L16.2072 77.399L16.2479 77.4011L16.2887 77.4036L16.3295 77.4065L16.3703 77.4098L16.4112 77.4135L16.4521 77.4176L16.4929 77.4222L16.5339 77.4271L16.5748 77.4324L16.6157 77.4381L16.6565 77.4443L16.6974 77.4509L16.7383 77.4579L16.7791 77.4653L16.8199 77.4731L16.8607 77.4813L16.9014 77.49L16.9422 77.499L16.9828 77.5085L17.0235 77.5183L17.064 77.5286L17.1046 77.5393L17.145 77.5504L17.1854 77.562L17.2257 77.5739L17.2659 77.5862L17.3061 77.599L17.3462 77.6121L17.3861 77.6257L17.4261 77.6397L17.4658 77.6541L17.5056 77.6689L17.5451 77.6842L17.5846 77.6998L17.6239 77.7158L17.6632 77.7323L17.7023 77.7491L17.7413 77.7664L17.7801 77.7841L17.8188 77.8021L17.8574 77.8206L17.8958 77.8395L17.934 77.8588L17.9721 77.8785L18.0101 77.8985L18.0479 77.919L18.0855 77.9399L18.1229 77.9611L18.1602 77.9829L18.1972 78.0049L18.2341 78.0273L18.2708 78.0502L18.3072 78.0734L18.3435 78.097L18.3796 78.121L18.4154 78.1455L18.4511 78.1702L18.4865 78.1954L18.5217 78.2209L18.5567 78.2468L18.5914 78.2731L18.6259 78.2997L18.6602 78.3268L18.6942 78.3542L18.7279 78.382L18.7614 78.4101L18.7947 78.4386L18.8276 78.4675L18.8603 78.4967L18.8928 78.5263L18.925 78.5562L18.9568 78.5865L18.9885 78.6171L19.0198 78.6481L19.0507 78.6794L19.0815 78.7111L19.1119 78.7431L19.142 78.7754L19.1718 78.8081L19.2013 78.8411L19.2305 78.8745L19.2593 78.9082L19.2878 78.9422L19.316 78.9765L19.3439 79.0111L19.3715 79.046L19.3986 79.0813L19.4254 79.1169L19.452 79.1527L19.4781 79.1889L19.5039 79.2254L19.5293 79.2621L19.5544 79.2992L19.5791 79.3366L19.6035 79.3742L19.6274 79.4122L19.651 79.4504L19.6742 79.4888L19.697 79.5276L19.7195 79.5666L19.7415 79.6059L19.7631 79.6455L19.7844 79.6853L19.8053 79.7254L19.8257 79.7657L19.8457 79.8063L19.8654 79.8471L19.8846 79.8882L19.9034 79.9294L19.9218 79.9709L19.9397 80.0127L19.9573 80.0547L19.9744 80.0969L19.9911 80.1394L20.0073 80.182L20.0232 80.2248L20.0385 80.2678L20.0535 80.3111L20.0679 80.3545L20.082 80.3981L20.0956 80.442L20.1087 80.486L20.1214 80.5301L20.1336 80.5745L20.1454 80.619L20.1567 80.6638L20.1676 80.7086L20.1779 80.7536L20.1879 80.7988L20.1973 80.8441L20.2063 80.8896L20.2148 80.9352L20.2228 80.981L20.2303 81.0268L20.2374 81.0728L20.244 81.1189L20.2501 81.1652L20.2557 81.2115L20.2608 81.2579L20.2654 81.3045L20.2695 81.3512L20.2732 81.3979L20.2763 81.4448L20.279 81.4917L20.2812 81.5387L20.2828 81.5858L20.284 81.6329L20.2846 81.6801L20.2848 81.7274L20.2845 81.7747L20.2836 81.8221L20.2822 81.8695L20.2804 81.917L20.278 81.9645L20.2751 82.012L20.2718 82.0596L20.2679 82.1071L20.2635 82.1547L20.2585 82.2023L20.2531 82.2499L20.2471 82.2975L20.2407 82.3451L20.2337 82.3927L20.2262 82.4403L20.2182 82.4878L20.2097 82.5353L20.2007 82.5828L20.1911 82.6303L20.1811 82.6777L20.1705 82.7251L20.1594 82.7724L20.1477 82.8196L20.1356 82.8668L20.123 82.914L20.1098 82.9611L20.0961 83.008L20.082 83.055L20.0673 83.1017L20.052 83.1485L20.0363 83.1951L20.0201 83.2417L20.0033 83.2881L19.9861 83.3344L19.9683 83.3806L19.9499 83.4267L19.9312 83.4726L19.9118 83.5184L19.892 83.564L19.8717 83.6096L19.8509 83.6549L19.8295 83.7001L19.8077 83.7452L19.7854 83.7901L19.7625 83.8349L19.7392 83.8794L19.7153 83.9237L19.691 83.9679L19.6661 84.0119L19.6408 84.0557L19.615 84.0993L19.5887 84.1427L19.5619 84.1859L19.5346 84.2289L19.5068 84.2716L19.4786 84.3141L19.4498 84.3564L19.4206 84.3985L19.3909 84.4403L19.3607 84.4819L19.3301 84.5232L19.299 84.5643L19.2674 84.6051L19.2353 84.6456L19.2028 84.6859L19.1698 84.7259L19.1364 84.7656L19.1025 84.805L19.0681 84.8442L19.0333 84.8831L18.9981 84.9216L18.9624 84.9599L18.9262 84.9978L18.8897 85.0354L18.8526 85.0728L18.8152 85.1098L18.7773 85.1464L18.739 85.1828L18.7002 85.2188L18.6611 85.2544L18.6215 85.2898L18.5815 85.3247L18.5411 85.3594L18.5003 85.3936L18.4591 85.4275L18.4174 85.461L18.3754 85.4942L18.333 85.527L18.2901 85.5594L18.247 85.5914L18.2034 85.6231L18.1594 85.6543L18.1151 85.6852L18.0704 85.7156L18.0253 85.7456L17.9798 85.7753L17.934 85.8046L17.8879 85.8334L17.8414 85.8617L17.7945 85.8897L17.7473 85.9173L17.6998 85.9443L17.6519 85.9711L17.6037 85.9973L17.5551 86.0231L17.5063 86.0484L17.4571 86.0733L17.4076 86.0978L17.3578 86.1218L17.3077 86.1453L17.2574 86.1684L17.2066 86.191L17.1557 86.2131L17.1044 86.2348L17.0528 86.2559L17.001 86.2767L16.9489 86.2969L16.8965 86.3166L16.8439 86.3359L16.791 86.3546L16.7379 86.3728L16.6845 86.3906L16.6309 86.4079L16.577 86.4246L16.5229 86.4409L16.4686 86.4566L16.4141 86.4718L16.3593 86.4866L16.3044 86.5008L16.2492 86.5144L16.1938 86.5276L16.1383 86.5402L16.0826 86.5523L16.0266 86.5639L15.9705 86.5749L15.9143 86.5854L15.8578 86.5954L15.8012 86.6048L15.7445 86.6137L15.6876 86.6221L15.6305 86.6299L15.5734 86.6372L15.516 86.6438L15.4586 86.65L15.401 86.6556L15.3434 86.6607L15.2856 86.6652L15.2277 86.6691L15.1697 86.6725L15.1116 86.6754L15.0535 86.6776L14.9952 86.6794L14.9369 86.6805L14.8786 86.681L14.8201 86.6811L14.7616 86.6805L14.703 86.6794L14.6445 86.6777L14.5858 86.6754L14.5271 86.6726L14.4685 86.6692L14.4098 86.6652L14.351 86.6607L14.2923 86.6555L14.2336 86.6499L14.1748 86.6436L14.1161 86.6367L14.0575 86.6293L13.9988 86.6213L13.9401 86.6127L13.8816 86.6035L13.823 86.5939L13.7644 86.5836L13.706 86.5726L13.6476 86.5612L13.5892 86.5491L13.531 86.5366L13.4729 86.5234L13.4147 86.5096L13.3567 86.4952L13.2989 86.4803L13.241 86.4648L13.1833 86.4488L13.1258 86.4321L13.0683 86.4149L13.011 86.3971L12.9538 86.3788L12.8967 86.3598L12.8399 86.3403L12.7831 86.3203L12.7266 86.2996L12.6701 86.2784L12.6139 86.2566L12.5578 86.2343L12.5019 86.2114L12.4463 86.1879L12.3908 86.1639L12.3355 86.1393L12.2804 86.1142L12.2255 86.0884L12.1709 86.0622L12.1165 86.0354L12.0623 86.0081L12.0084 85.9801L11.9547 85.9517L11.9012 85.9227L11.8481 85.8931L11.7952 85.863L11.7425 85.8324L11.6902 85.8012L11.6381 85.7695L11.5863 85.7373L11.5348 85.7046L11.4836 85.6713L11.4327 85.6374L11.3821 85.6031L11.3319 85.5682L11.2819 85.5329L11.2323 85.497L11.183 85.4606L11.1341 85.4236L11.0855 85.3862L11.0373 85.3483L10.9894 85.3099L10.9419 85.271L10.8948 85.2315L10.848 85.1916L10.8016 85.1512L10.7556 85.1103L10.71 85.0689L10.6648 85.0271L10.62 84.9848L10.5756 84.942L10.5316 84.8987L10.488 84.855L10.4449 84.8108L10.4021 84.7662L10.3598 84.7211L10.318 84.6755L10.2766 84.6296L10.2357 84.5831L10.1952 84.5363L10.1551 84.489L10.1156 84.4413L10.0765 84.3931L10.0379 84.3446L9.99971 84.2956L9.96207 84.2462L9.9249 84.1964L9.88819 84.1462L9.85201 84.0955L9.81635 84.0446L9.78122 83.9932L9.74655 83.9414L9.71241 83.8893L9.6788 83.8367L9.64571 83.7838L9.61315 83.7305L9.58112 83.6769L9.54961 83.623L9.5187 83.5686L9.48832 83.5139L9.45846 83.4589L9.4292 83.4036L9.40046 83.3479L9.37232 83.2919L9.3447 83.2355L9.31768 83.1789L9.29125 83.122L9.26535 83.0647L9.24004 83.0071L9.21539 82.9493L9.19127 82.8911L9.16774 82.8327L9.1448 82.7741L9.12252 82.7151L9.10077 82.6558L9.07968 82.5963L9.05918 82.5366L9.03928 82.4766L9.02003 82.4163L9.00138 82.3559L8.98339 82.2952L8.96599 82.2342L8.94918 82.1731L8.93303 82.1117L8.91755 82.0501L8.90272 81.9883L8.88848 81.9264L8.8749 81.8642L8.86198 81.8019L8.85579 81.7706ZM13.641 81.0045L13.8225 81.7155L10.0594 81.7573L10.0675 81.7908L10.0802 81.8413L10.0934 81.8917L10.1071 81.9417L10.1214 81.9917L10.1361 82.0413L10.1515 82.091L10.1672 82.1401L10.1835 82.1894L10.2002 82.2381L10.2175 82.2869L10.2353 82.3354L10.2536 82.3836L10.2723 82.4317L10.2915 82.4793L10.3113 82.5269L10.3314 82.5742L10.3521 82.6212L10.3733 82.6681L10.3948 82.7145L10.4169 82.7608L10.4394 82.8067L10.4625 82.8525L10.4859 82.8979L10.5098 82.9432L10.5341 82.988L10.5589 83.0326L10.5841 83.0769L10.6098 83.1209L10.6359 83.1646L10.6624 83.208L10.6893 83.251L10.7168 83.294L10.7445 83.3364L10.7728 83.3785L10.8014 83.4203L10.8304 83.4619L10.8599 83.503L10.8897 83.5439L10.9199 83.5844L10.9505 83.6245L10.9816 83.6644L11.013 83.7039L11.0448 83.743L11.0769 83.7818L11.1094 83.8202L11.1422 83.8582L11.1755 83.8959L11.2092 83.9333L11.2431 83.9702L11.2774 84.0068L11.312 84.043L11.347 84.0788L11.3824 84.1143L11.4181 84.1493L11.454 84.184L11.4904 84.2184L11.527 84.2522L11.5639 84.2857L11.6011 84.3188L11.6388 84.3516L11.6766 84.3839L11.7147 84.4158L11.7532 84.4473L11.7918 84.4783L11.8309 84.509L11.8701 84.5392L11.9098 84.5691L11.9495 84.5985L11.9896 84.6275L12.03 84.6561L12.0706 84.6842L12.1114 84.712L12.1524 84.7393L12.1938 84.7662L12.2353 84.7926L12.2772 84.8186L12.3191 84.8441L12.3613 84.8692L12.4038 84.894L12.4464 84.9182L12.4894 84.942L12.5323 84.9654L12.5756 84.9883L12.619 85.0108L12.6626 85.0328L12.7063 85.0544L12.7503 85.0755L12.7945 85.0962L12.8387 85.1164L12.8832 85.1362L12.9278 85.1555L12.9725 85.1743L13.0174 85.1927L13.0625 85.2107L13.1076 85.2281L13.1529 85.2452L13.1983 85.2617L13.2439 85.2779L13.2894 85.2935L13.3352 85.3086L13.3811 85.3234L13.427 85.3376L13.4731 85.3515L13.5193 85.3648L13.5655 85.3777L13.6117 85.39L13.6581 85.402L13.7045 85.4135L13.751 85.4245L13.7975 85.435L13.8441 85.4452L13.8908 85.4548L13.9375 85.4639L13.9842 85.4726L14.0309 85.4809L14.0778 85.4887L14.1245 85.4959L14.1713 85.5028L14.2182 85.5092L14.2649 85.5151L14.3119 85.5205L14.3586 85.5255L14.4055 85.5301L14.4524 85.5342L14.4991 85.5378L14.5459 85.541L14.5927 85.5437L14.6394 85.546L14.686 85.5477L14.7326 85.5491L14.7793 85.55L14.8258 85.5505L14.8723 85.5504L14.9187 85.55L14.9651 85.549L15.0114 85.5477L15.0576 85.5459L15.1037 85.5437L15.1497 85.541L15.1957 85.5378L15.2415 85.5342L15.2873 85.5302L15.333 85.5258L15.3784 85.5209L15.424 85.5156L15.4692 85.5099L15.5145 85.5036L15.5595 85.497L15.6044 85.49L15.6493 85.4825L15.6939 85.4746L15.7385 85.4663L15.7828 85.4576L15.8271 85.4484L15.8711 85.4389L15.915 85.4289L15.9587 85.4185L16.0024 85.4077L16.0457 85.3965L16.089 85.3849L16.132 85.3729L16.1749 85.3605L16.2175 85.3476L16.2599 85.3344L16.3023 85.3208L16.3443 85.3068L16.3861 85.2924L16.4278 85.2777L16.4693 85.2625L16.5105 85.247L16.5515 85.231L16.5922 85.2148L16.6328 85.1981L16.6731 85.1811L16.7132 85.1637L16.753 85.1459L16.7926 85.1278L16.832 85.1093L16.8711 85.0905L16.9099 85.0713L16.9485 85.0518L16.9868 85.0319L17.0249 85.0116L17.0627 84.9911L17.1002 84.9702L17.1375 84.9489L17.1744 84.9274L17.2111 84.9055L17.2475 84.8832L17.2836 84.8607L17.3196 84.8378L17.355 84.8146L17.3903 84.7911L17.4252 84.7673L17.4598 84.7433L17.4942 84.7188L17.5282 84.6941L17.5619 84.6691L17.5953 84.6438L17.6285 84.6182L17.6612 84.5924L17.6937 84.5662L17.7258 84.5398L17.7576 84.5132L17.7891 84.4861L17.8202 84.459L17.8511 84.4314L17.8815 84.4037L17.9116 84.3757L17.9414 84.3474L17.9709 84.3189L18 84.2902L18.0288 84.2612L18.0572 84.2319L18.0852 84.2025L18.1129 84.1728L18.1403 84.1429L18.1673 84.1128L18.1939 84.0824L18.2202 84.0518L18.2461 84.021L18.2716 83.9901L18.2968 83.9588L18.3217 83.9274L18.3461 83.8959L18.3702 83.8641L18.3939 83.8321L18.4172 83.8L18.4402 83.7677L18.4627 83.7352L18.4849 83.7026L18.5068 83.6697L18.5281 83.6367L18.5492 83.6036L18.5699 83.5702L18.5902 83.5368L18.6101 83.5033L18.6296 83.4694L18.6488 83.4355L18.6675 83.4016L18.6858 83.3674L18.7038 83.3331L18.7213 83.2988L18.7385 83.2642L18.7553 83.2296L18.7717 83.1949L18.7877 83.16L18.8033 83.125L18.8185 83.09L18.8334 83.0549L18.8477 83.0196L18.8618 82.9842L18.8754 82.9489L18.8887 82.9134L18.9015 82.8779L18.9139 82.8423L18.926 82.8066L18.9376 82.7708L18.9488 82.735L18.9597 82.6992L18.9701 82.6632L18.9802 82.6272L18.9898 82.5913L18.9991 82.5552L19.008 82.5192L19.0164 82.4831L19.0245 82.447L19.0322 82.4108L19.0395 82.3747L19.0463 82.3385L19.0528 82.3023L19.0589 82.2661L19.0646 82.2299L19.0699 82.1938L19.0748 82.1576L19.0793 82.1215L19.0835 82.0852L19.0872 82.0491L19.0905 82.0129L19.0935 81.9769L19.0961 81.9408L19.0983 81.9047L19.1 81.8688L19.1015 81.8329L19.1025 81.7969L19.1031 81.7611L19.1034 81.7253L19.1033 81.6895L19.1028 81.6539L19.1019 81.6181L19.1006 81.5825L19.099 81.5471L19.097 81.5117L19.0946 81.4763L19.0919 81.4411L19.0888 81.4059L19.0853 81.3708L19.0815 81.3358L19.0772 81.3009L19.0726 81.2661L19.0677 81.2314L19.0623 81.1968L19.0567 81.1624L19.0507 81.1279L19.0443 81.0937L19.0376 81.0596L19.0304 81.0255L19.023 80.9916L19.0152 80.9579L19.0071 80.9243L18.9986 80.8908L18.9898 80.8574L18.9807 80.8242L18.9712 80.7911L18.9614 80.7583L18.9511 80.7254L18.9407 80.6928L18.9299 80.6605L18.9187 80.628L18.9072 80.596L18.8955 80.564L18.8833 80.5322L18.8709 80.5007L18.8581 80.4691L18.845 80.4379L18.8317 80.4068L18.818 80.3759L18.804 80.3452L18.7897 80.3146L18.7751 80.2844L18.7602 80.2542L18.7451 80.2242L18.7296 80.1946L18.7138 80.165L18.6978 80.1357L18.6815 80.1065L18.6648 80.0776L18.6479 80.0489L18.6308 80.0205L18.6133 79.9922L18.5956 79.9641L18.5776 79.9363L18.5593 79.9088L18.5408 79.8814L18.5221 79.8542L18.503 79.8273L18.4838 79.8006L18.4642 79.7742L18.4444 79.7479L18.4245 79.722L18.4042 79.6963L18.3837 79.6708L18.3629 79.6456L18.342 79.6206L18.3207 79.5958L18.2994 79.5714L18.2778 79.5471L18.2559 79.5232L18.2338 79.4995L18.2115 79.476L18.189 79.4528L18.1663 79.4299L18.1434 79.4073L18.1203 79.3848L18.097 79.3627L18.0735 79.3408L18.0498 79.3192L18.0259 79.2979L18.0019 79.2769L17.9776 79.256L17.9533 79.2356L17.9286 79.2153L17.9039 79.1954L17.879 79.1758L17.8538 79.1563L17.8287 79.1373L17.8032 79.1184L17.7777 79.0998L17.752 79.0816L17.7261 79.0636L17.7002 79.046L17.674 79.0286L17.6477 79.0114L17.6214 78.9947L17.5947 78.9781L17.5681 78.9618L17.5414 78.946L17.5145 78.9303L17.4874 78.915L17.4603 78.8999L17.4331 78.8851L17.4057 78.8707L17.3783 78.8565L17.3507 78.8426L17.3231 78.829L17.2954 78.8158L17.2676 78.8028L17.2397 78.79L17.2116 78.7776L17.1836 78.7656L17.1555 78.7538L17.1273 78.7423L17.099 78.7311L17.0707 78.7202L17.0422 78.7095L17.0139 78.6993L16.9851 78.6892L16.9569 78.6796L16.9281 78.6702L16.8994 78.6611L16.8708 78.6523L16.8421 78.6438L16.8134 78.6356L16.7844 78.6276L16.7558 78.6201L16.7267 78.6127L16.6981 78.6057L16.6691 78.599L16.6401 78.5926L16.6113 78.5865L16.5826 78.5807L16.5534 78.5751L16.5246 78.5699L16.4956 78.5649L16.4668 78.5603L16.438 78.5559L16.409 78.5519L16.3801 78.5481L16.3512 78.5446L16.3225 78.5414L16.2938 78.5385L16.2649 78.5359L16.2362 78.5336L16.2075 78.5316L16.1788 78.5298L16.1502 78.5284L16.1217 78.5272L16.0933 78.5263L16.0647 78.5257L16.0361 78.5253L16.0078 78.5253L15.9796 78.5255L15.9514 78.526L15.9232 78.5268L15.8949 78.5279L15.8672 78.5292L15.8389 78.5308L15.8112 78.5327L15.7835 78.5348L15.7555 78.5372L15.7279 78.54L15.7006 78.5429L15.6728 78.5461L15.6457 78.5496L15.6183 78.5533L15.5914 78.5573L15.5641 78.5616L15.5371 78.5661L15.5104 78.5709L15.4837 78.5759L15.4569 78.5812L15.4305 78.5867L15.4041 78.5925L15.3778 78.5985L15.3518 78.6047L15.3256 78.6113L15.2999 78.618L15.2739 78.625L15.2484 78.6322L15.2229 78.6397L15.1976 78.6474L15.1723 78.6554L15.1471 78.6636L15.1224 78.6719L15.0976 78.6805L15.0729 78.6894L15.0485 78.6985L15.024 78.7078L15 78.7173L14.9758 78.7271L14.9521 78.7369L14.9285 78.7471L14.9049 78.7575L14.8815 78.768L14.8583 78.7788L14.8353 78.7898L14.8125 78.801L14.7898 78.8124L14.7673 78.8239L14.745 78.8357L14.7228 78.8477L14.7009 78.8598L14.6791 78.8721L14.6574 78.8847L14.6361 78.8974L14.6149 78.9103L14.5939 78.9234L14.573 78.9367L14.5524 78.9501L14.5319 78.9637L14.5117 78.9775L14.4917 78.9914L14.4718 79.0055L14.4522 79.0197L14.4327 79.0342L14.4135 79.0488L14.3945 79.0635L14.3756 79.0784L14.357 79.0934L14.3386 79.1085L14.3204 79.1239L14.3024 79.1394L14.2845 79.155L14.267 79.1707L14.2497 79.1866L14.2325 79.2027L14.2156 79.2188L14.1989 79.2351L14.1824 79.2514L14.1661 79.2681L14.1501 79.2846L14.1342 79.3014L14.1186 79.3182L14.1032 79.3352L14.0881 79.3523L14.0732 79.3695L14.0585 79.3868L14.044 79.4042L14.0297 79.4217L14.0157 79.4393L14.0018 79.457L13.9883 79.4748L13.9749 79.4927L13.9618 79.5106L13.9489 79.5286L13.9363 79.5468L13.9238 79.565L13.9116 79.5832L13.8996 79.6017L13.8879 79.6201L13.8764 79.6385L13.8651 79.6571L13.8541 79.6758L13.8433 79.6944L13.8326 79.7131L13.8223 79.7319L13.8122 79.7507L13.8023 79.7697L13.7926 79.7885L13.7833 79.8075L13.7741 79.8265L13.7651 79.8456L13.7563 79.8648L13.7479 79.8838L13.7397 79.903L13.7316 79.9223L13.7238 79.9415L13.7163 79.9607L13.7089 79.9799L13.7018 79.9993L13.6949 80.0186L13.6883 80.0378L13.6818 80.0572L13.6757 80.0766L13.6697 80.0958L13.664 80.1153L13.6585 80.1345L13.6532 80.1539L13.6482 80.1733L13.6434 80.1926L13.6387 80.212L13.6344 80.2313L13.6302 80.2506L13.6263 80.2699L13.6226 80.2891L13.6191 80.3085L13.6159 80.3276L13.6128 80.347L13.61 80.3661L13.6074 80.3853L13.605 80.4044L13.6028 80.4234L13.6009 80.4425L13.5991 80.4615L13.5976 80.4805L13.5963 80.4995L13.5952 80.5184L13.5943 80.5373L13.5937 80.556L13.5931 80.5748L13.5929 80.5935L13.5928 80.6122L13.593 80.6308L13.5933 80.6493L13.5939 80.6678L13.5947 80.6862L13.5956 80.7045L13.5968 80.7229L13.5981 80.741L13.5996 80.7591L13.6014 80.7772L13.6033 80.7952L13.6054 80.8132L13.6077 80.8309L13.6102 80.8487L13.6129 80.8663L13.6158 80.884L13.6188 80.9014L13.6221 80.9189L13.6255 80.9361L13.6291 80.9535L13.6329 80.9705L13.6368 80.9876L13.641 81.0045Z" fill="#7B7B7B"/>
</g>
<defs>
<clipPath id="clip0_9092_1935">
<rect width="95" height="29" fill="white" transform="translate(0 95) rotate(-90)"/>
</clipPath>
</defs>
</svg>
