<svg width="27" height="103" viewBox="0 0 27 103" fill="none" xmlns="http://www.w3.org/2000/svg">
<g clip-path="url(#clip0_9092_1906)">
<path d="M9.4502 79.1853C9.4502 78.9044 9.55048 78.8108 9.82048 78.8108L15.9302 78.8108L15.9302 75.6349C15.9302 75.3618 16.0305 75.2604 16.3005 75.2604L16.8405 75.2604C17.1105 75.2604 17.2108 75.3618 17.2108 75.6349L17.2108 79.8174C17.2108 80.0905 17.1105 80.1997 16.8405 80.1997L9.82048 80.1997C9.55048 80.1997 9.4502 80.0905 9.4502 79.8174L9.4502 79.1853Z" fill="black"/>
<path d="M12.1424 72.4902C10.3604 72.4902 9.28809 71.351 9.28809 69.369C9.28809 67.3871 10.3604 66.2478 12.1424 66.2478L14.5184 66.2478C16.3004 66.2478 17.3727 67.3949 17.3727 69.369C17.3727 71.3432 16.3004 72.4902 14.5184 72.4902L12.1424 72.4902ZM12.1424 67.5587C11.1395 67.5587 10.5995 68.1908 10.5995 69.33C10.5995 70.4692 11.1472 71.0935 12.1424 71.0935L14.5338 71.0935C15.5444 71.0935 16.0767 70.4692 16.0767 69.33C16.0767 68.1908 15.5212 67.5587 14.5338 67.5587L12.1424 67.5587Z" fill="black"/>
<path d="M12.9597 56.9544C12.9597 56.6501 13.06 56.5799 13.33 56.5799L14.7957 56.5799C15.1409 56.5716 15.4837 56.6416 15.7986 56.7847C16.1137 56.9279 16.393 57.1405 16.6163 57.407C17.1374 58.069 17.3959 58.9036 17.3414 59.7479C17.3414 61.7689 16.2691 62.8691 14.4871 62.8691L12.0957 62.8691C10.3368 62.8691 9.25684 61.7299 9.25684 59.7479C9.25684 58.1873 9.86626 57.1729 11.0851 56.7438C11.1309 56.7197 11.1816 56.7069 11.2332 56.7062C11.2848 56.7054 11.3358 56.7169 11.3822 56.7396C11.4286 56.7623 11.4692 56.7957 11.5007 56.8371C11.5321 56.8784 11.5536 56.9267 11.5634 56.9779L11.7717 57.5865C11.8643 57.8518 11.8103 57.961 11.5403 58.0547C11.2108 58.184 10.9332 58.4206 10.7516 58.7273C10.57 59.034 10.4946 59.393 10.5374 59.7479C10.5374 60.895 11.0851 61.5192 12.0803 61.5192L14.5334 61.5192C15.544 61.5192 16.0763 60.8872 16.0763 59.7479C16.0763 58.6087 15.5594 57.9064 14.8034 57.9064L14.2326 57.9064L14.2326 59.5997C14.2326 59.8806 14.1245 59.982 13.8545 59.982L13.33 59.982C13.06 59.982 12.9597 59.8806 12.9597 59.5997L12.9597 56.9544Z" fill="black"/>
<path d="M12.1424 53.3572C10.3604 53.3572 9.28809 52.2179 9.28809 50.236C9.28809 48.254 10.3604 47.1148 12.1424 47.1148L14.5184 47.1148C16.3004 47.1148 17.3727 48.2618 17.3727 50.236C17.3727 52.2101 16.3004 53.3572 14.5184 53.3572L12.1424 53.3572ZM12.1424 48.4335C11.1395 48.4335 10.5995 49.0655 10.5995 50.197C10.5995 51.3284 11.1472 51.9682 12.1424 51.9682L14.5338 51.9682C15.5444 51.9682 16.0767 51.3362 16.0767 50.197C16.0767 49.0577 15.5212 48.4335 14.5338 48.4335L12.1424 48.4335Z" fill="black"/>
<path d="M9.67391 43.4392C9.5042 43.4392 9.4502 43.3846 9.4502 43.2129L9.4502 42.854C9.4502 42.6823 9.5042 42.6433 9.67391 42.6433L16.9871 42.6433C17.1568 42.6433 17.2108 42.6433 17.2108 42.854L17.2108 43.2129C17.2108 43.3846 17.1568 43.4392 16.9871 43.4392L9.67391 43.4392Z" fill="black"/>
<path d="M9.4502 35.5351C9.4502 34.8852 9.70538 34.2621 10.1597 33.8026C10.6139 33.343 11.23 33.0849 11.8725 33.0849C12.5149 33.0849 13.1311 33.343 13.5853 33.8026C14.0396 34.2621 14.2948 34.8852 14.2948 35.5351L14.2948 37.876L16.9871 37.876C17.1568 37.876 17.2108 37.915 17.2108 38.0788L17.2108 38.4456C17.2108 38.6095 17.1568 38.6719 16.9871 38.6719L9.67391 38.6719C9.5042 38.6719 9.4502 38.6095 9.4502 38.4456L9.4502 35.5351ZM13.5311 35.6053C13.5311 35.3819 13.4875 35.1607 13.4031 34.9543C13.3185 34.748 13.1946 34.5604 13.0385 34.4024C12.8824 34.2445 12.6969 34.1192 12.4929 34.0337C12.2889 33.9482 12.0702 33.9042 11.8493 33.9042C11.6285 33.9042 11.4098 33.9482 11.2057 34.0337C11.0018 34.1192 10.8163 34.2445 10.6602 34.4024C10.504 34.5604 10.3802 34.748 10.2956 34.9543C10.2111 35.1607 10.1676 35.3819 10.1676 35.6053L10.1676 37.9462L13.5311 37.9462L13.5311 35.6053Z" fill="black"/>
<path d="M9.2961 26.9907C9.23038 26.3883 9.35851 25.7805 9.66145 25.2575C9.96447 24.7349 10.4261 24.3245 10.9778 24.088C11.1012 24.0256 11.2015 24.088 11.2632 24.2129L11.4175 24.5562C11.4715 24.6967 11.4638 24.7513 11.3172 24.8371C10.9078 25.0139 10.5645 25.3179 10.3371 25.705C10.1097 26.0922 10.0098 26.5425 10.0521 26.9907C10.0521 28.3095 10.569 29.0273 11.4947 29.0273C11.7776 29.035 12.0537 28.9389 12.272 28.7567C12.4904 28.5746 12.6362 28.3187 12.6827 28.0364C12.818 27.6167 12.9009 27.1815 12.9295 26.7411C12.9576 26.2079 13.0642 25.6819 13.2458 25.1804C13.3661 24.7958 13.6134 24.4649 13.9464 24.2433C14.2793 24.0217 14.6775 23.9226 15.0741 23.9632C16.5167 23.9632 17.3884 25.0244 17.3884 26.9751C17.4607 27.615 17.3142 28.2606 16.9731 28.8044C16.632 29.3482 16.1169 29.7574 15.5138 29.9637C15.4864 29.9775 15.4562 29.9849 15.4255 29.9856C15.3948 29.9862 15.3644 29.9799 15.3364 29.9672C15.3084 29.9546 15.2835 29.9358 15.2635 29.9122C15.2434 29.8887 15.2289 29.861 15.2207 29.8311L15.0972 29.4877C15.0863 29.4607 15.081 29.4316 15.0818 29.4024C15.0826 29.3733 15.0894 29.3445 15.1017 29.3181C15.1141 29.2917 15.1317 29.2681 15.1535 29.249C15.1753 29.2298 15.2008 29.2155 15.2284 29.2068C15.6642 29.0323 16.0337 28.7218 16.2834 28.3206C16.533 27.9194 16.6499 27.4481 16.617 26.9751C16.617 25.5004 16.1078 24.7747 15.0741 24.7747C14.8024 24.7606 14.5346 24.8449 14.3185 25.0124C14.1024 25.1795 13.9519 25.4188 13.8938 25.6876C13.7748 26.0914 13.7023 26.5077 13.6778 26.9283L13.5698 27.771C13.5145 28.0348 13.4449 28.2953 13.3615 28.5514C13.286 28.8043 13.1629 29.0401 12.999 29.2458C12.8137 29.4528 12.5856 29.616 12.331 29.7239C12.0763 29.8318 11.8014 29.8817 11.5255 29.8701C10.1755 29.8154 9.2961 28.7932 9.2961 26.9907Z" fill="black"/>
<path d="M14.5725 19.7573C15.118 19.7246 15.6305 19.4819 16.0052 19.0792C16.3799 18.6766 16.5885 18.1444 16.5885 17.592C16.5885 17.0395 16.3799 16.5074 16.0052 16.1047C15.6305 15.7021 15.118 15.4602 14.5725 15.4266L9.67391 15.4266C9.5042 15.4266 9.4502 15.372 9.4502 15.2004L9.4502 14.8414C9.4502 14.6697 9.5042 14.6151 9.67391 14.6151L14.5648 14.6151C16.3159 14.6151 17.3728 15.6607 17.3728 17.5881C17.3728 19.5154 16.3159 20.561 14.5648 20.561L9.67391 20.561C9.5042 20.561 9.4502 20.5064 9.4502 20.3426L9.4502 19.9758C9.4502 19.8119 9.5042 19.7573 9.67391 19.7573L14.5725 19.7573Z" fill="black"/>
<path d="M9.45054 3.84698C9.45054 3.67532 9.50453 3.62069 9.67425 3.62069L16.9874 3.62069C17.1571 3.62069 17.2111 3.67532 17.2111 3.84698L17.2111 4.17471C17.2111 4.33857 17.1571 4.39319 16.9874 4.39319L12.5362 4.39319C11.8886 4.39319 11.2417 4.34872 10.6 4.26054L10.6 4.30736C11.1868 4.55081 11.7564 4.83563 12.3048 5.15789L15.2285 6.83555C15.2793 6.85583 15.3226 6.89172 15.353 6.93776C15.3832 6.9838 15.399 7.03764 15.3982 7.09304L15.3982 7.31153C15.3986 7.36771 15.3826 7.42233 15.3525 7.46993C15.3223 7.51675 15.2793 7.5542 15.2285 7.57683L12.274 9.27789C11.7334 9.57987 11.1713 9.84049 10.5922 10.0582L10.5922 10.105C11.2399 10.0254 11.8916 9.98329 12.544 9.98017L16.9874 9.98017C17.1571 9.98017 17.2111 10.0348 17.2111 10.2065L17.2111 10.5108C17.2111 10.6824 17.1571 10.7371 16.9874 10.7371L9.67425 10.7371C9.50453 10.7371 9.45053 10.6824 9.45053 10.5108L9.45053 10.2299C9.44467 10.1659 9.45848 10.1011 9.49026 10.0457C9.52205 9.98953 9.57018 9.94505 9.62796 9.91774L14.4263 7.18668L9.67425 4.47123C9.51225 4.38539 9.48911 4.33857 9.48911 4.1669L9.45054 3.84698Z" fill="black"/>
<path d="M16.0382 93.0669L21.6156 93.0669C21.8294 93.0669 22.0345 93.1528 22.1856 93.3057C22.3368 93.4586 22.4217 93.666 22.4217 93.8823C22.4217 94.0985 22.3368 94.3059 22.1856 94.4588C22.0345 94.6118 21.8294 94.6977 21.6156 94.6977L16.0459 94.6977C16.2098 94.4706 16.3013 94.1985 16.3082 93.9174C16.3168 93.611 16.2215 93.3109 16.0382 93.0669ZM14.4259 86.1222C14.4259 86.3291 14.5072 86.5276 14.6518 86.6739C14.7965 86.8202 14.9927 86.9025 15.1973 86.9025L16.1693 86.9025C16.3831 86.9025 16.5882 86.8166 16.7393 86.6636C16.8905 86.5108 16.9755 86.3034 16.9755 86.0871C16.9755 85.8708 16.8905 85.6633 16.7393 85.5105C16.5882 85.3575 16.3831 85.2716 16.1693 85.2716L15.2359 85.2716C15.1253 85.2655 15.0146 85.2836 14.9116 85.3247C14.8085 85.3657 14.7153 85.4287 14.6385 85.5095C14.5617 85.5902 14.5029 85.6867 14.4661 85.7923C14.4295 85.8981 14.4158 86.0106 14.4259 86.1222ZM18.1519 96.469C18.1435 96.7498 18.0522 97.0216 17.8896 97.2493L23.4825 97.2493C23.6973 97.2493 23.9033 97.163 24.0552 97.0093C24.2071 96.8557 24.2925 96.6473 24.2925 96.43C24.2925 96.2127 24.2071 96.0043 24.0552 95.8506C23.9033 95.697 23.6973 95.6106 23.4825 95.6106L17.9282 95.6106C18.091 95.8655 18.1694 96.1661 18.1519 96.469ZM12.7519 88.666C12.7466 88.7717 12.7628 88.8773 12.7992 88.9766C12.8356 89.0758 12.8916 89.1664 12.9637 89.2431C13.0359 89.3198 13.1227 89.3807 13.2189 89.4224C13.3151 89.464 13.4187 89.4854 13.5233 89.4853L17.8202 89.4853C18.035 89.4853 18.2411 89.399 18.393 89.2453C18.5448 89.0916 18.6302 88.8833 18.6302 88.666C18.6302 88.4486 18.5448 88.2402 18.393 88.0866C18.2411 87.9329 18.035 87.8466 17.8202 87.8466L13.5773 87.8466C13.466 87.8404 13.3547 87.8586 13.251 87.9002C13.1473 87.9417 13.0537 88.0053 12.9768 88.087C12.8998 88.1686 12.8411 88.266 12.805 88.3727C12.7689 88.4794 12.756 88.5928 12.7673 88.705L12.7519 88.666ZM14.4027 91.2566C14.4007 91.5505 14.3092 91.8366 14.1405 92.0759L19.7487 92.0759C19.9636 92.0759 20.1696 91.9896 20.3215 91.8359C20.4734 91.6822 20.5587 91.4739 20.5587 91.2566C20.5587 91.0392 20.4734 90.8309 20.3215 90.6772C20.1696 90.5235 19.9636 90.4372 19.7487 90.4372L14.1482 90.4372C14.3305 90.6848 14.4255 90.987 14.4182 91.2956L14.4027 91.2566ZM18.6996 98.2403L3.03188 98.2403C2.8409 98.2423 2.65844 98.3205 2.52411 98.4578C2.38978 98.5952 2.31445 98.7806 2.31445 98.9738L2.31445 99.1454C2.31445 99.3386 2.38978 99.524 2.52411 99.6613C2.65844 99.7987 2.8409 99.8769 3.03188 99.8789L18.6996 99.8789C18.8919 99.8789 19.0764 99.8016 19.2124 99.6641C19.3484 99.5265 19.4247 99.34 19.4247 99.1454L19.4247 98.9738C19.4247 98.7792 19.3484 98.5927 19.2124 98.4551C19.0764 98.3175 18.8919 98.2403 18.6996 98.2403ZM17.5579 96.3831L17.5579 96.5548C17.5579 96.7493 17.4815 96.9359 17.3455 97.0735C17.2095 97.211 17.0251 97.2883 16.8327 97.2883L4.89874 97.2883C4.70776 97.2862 4.52529 97.2081 4.39097 97.0707C4.25664 96.9334 4.1813 96.748 4.18131 96.5548L4.18131 96.3831C4.1813 96.19 4.25664 96.0046 4.39097 95.8672C4.52529 95.7299 4.70776 95.6517 4.89874 95.6497L16.8482 95.6497C17.0405 95.6497 17.2249 95.7269 17.3609 95.8645C17.4969 96.002 17.5733 96.1886 17.5733 96.3831L17.5579 96.3831ZM15.7219 93.8003L15.7219 93.9798C15.7219 94.1722 15.6463 94.3569 15.5117 94.4929C15.3772 94.629 15.1948 94.7055 15.0045 94.7055L6.75017 94.7055C6.6553 94.7065 6.56118 94.6885 6.47325 94.6525C6.38531 94.6165 6.30532 94.5632 6.23788 94.4958C6.17044 94.4283 6.1169 94.3479 6.08037 94.2593C6.04383 94.1708 6.02502 94.0758 6.02502 93.9798L6.02502 93.8003C6.02706 93.6071 6.10435 93.4226 6.24012 93.2867C6.37589 93.1508 6.55918 93.0747 6.75017 93.0747L15.0045 93.0747C15.1948 93.0747 15.3772 93.1511 15.5117 93.2872C15.6463 93.4233 15.7219 93.6078 15.7219 93.8003ZM13.8319 91.2175L13.8319 91.3814C13.8319 91.5746 13.7566 91.76 13.6222 91.8973C13.4879 92.0347 13.3055 92.1129 13.1145 92.1149L8.67102 92.1149C8.57197 92.1213 8.47269 92.1071 8.37927 92.0731C8.28593 92.0391 8.20038 91.9861 8.12809 91.9173C8.05573 91.8486 7.99818 91.7655 7.95884 91.6733C7.91958 91.5812 7.89936 91.4818 7.8996 91.3814L7.8996 91.2097C7.8996 91.0152 7.97597 90.8286 8.11197 90.6911C8.24797 90.5535 8.43242 90.4763 8.62474 90.4763L13.099 90.4763C13.1949 90.4752 13.29 90.4934 13.3789 90.5299C13.4678 90.5662 13.5486 90.6201 13.6168 90.6883C13.6849 90.7565 13.739 90.8377 13.776 90.9273C13.8129 91.0168 13.8319 91.1127 13.8319 91.2097L13.8319 91.2175ZM12.1733 88.6269L12.1733 88.7986C12.1733 88.9931 12.0969 89.1797 11.9609 89.3173C11.8249 89.4548 11.6405 89.5321 11.4482 89.5321L10.2987 89.5321C10.1077 89.5301 9.92529 89.4519 9.79098 89.3145C9.6566 89.1772 9.58131 88.9918 9.58131 88.7986L9.58131 88.6269C9.58131 88.4337 9.6566 88.2483 9.79098 88.111C9.92529 87.9737 10.1077 87.8955 10.2987 87.8935L11.4482 87.8935C11.6392 87.8935 11.8225 87.9696 11.9582 88.1055C12.094 88.2414 12.1713 88.4259 12.1733 88.6191L12.1733 88.6269Z" fill="black"/>
</g>
<defs>
<clipPath id="clip0_9092_1906">
<rect width="103" height="27" fill="white" transform="translate(0 103) rotate(-90)"/>
</clipPath>
</defs>
</svg>
