<svg width="27" height="91" viewBox="0 0 27 91" fill="none" xmlns="http://www.w3.org/2000/svg">
<g clip-path="url(#clip0_9092_1917)">
<path d="M7.68834 74.9854L7.68834 73.6066L17.0843 73.6066L17.0843 69.4702L18.4343 69.4702L18.4343 74.9854L7.68834 74.9854ZM7.68834 65.1753C7.68834 64.3572 7.92587 63.5575 8.3709 62.8772C8.81592 62.197 9.4484 61.6668 10.1885 61.3538C10.9285 61.0407 11.7429 60.9588 12.5284 61.1184C13.3141 61.278 14.0357 61.6719 14.6021 62.2505C15.1686 62.8289 15.5542 63.566 15.7105 64.3683C15.8668 65.1707 15.7866 66.0023 15.4801 66.7582C15.1735 67.514 14.6544 68.16 13.9884 68.6145C13.3224 69.069 12.5394 69.3116 11.7383 69.3116C11.2065 69.3116 10.6798 69.2046 10.1885 68.9968C9.69707 68.7889 9.25062 68.4842 8.87458 68.1001C8.49847 67.716 8.20012 67.2601 7.99661 66.7582C7.7931 66.2564 7.68834 65.7184 7.68834 65.1753ZM14.4383 65.1753C14.4383 64.6299 14.28 64.0967 13.9833 63.6432C13.6866 63.1898 13.2649 62.8363 12.7716 62.6276C12.2782 62.4189 11.7354 62.3643 11.2116 62.4707C10.6878 62.5771 10.2068 62.8397 9.82917 63.2254C9.45157 63.611 9.1944 64.1024 9.09024 64.6373C8.98602 65.1722 9.03948 65.7267 9.24387 66.2305C9.4482 66.7344 9.79427 67.1651 10.2383 67.4681C10.6823 67.7711 11.2043 67.9329 11.7383 67.9329C12.4521 67.9292 13.1354 67.6371 13.6388 67.1203C14.1422 66.6036 14.4248 65.9042 14.4248 65.1753L14.4383 65.1753ZM17.0978 67.9329L17.0978 62.4177L18.4478 62.4177L18.4478 67.9329L17.0978 67.9329ZM18.4478 50.2844L18.4478 51.6632L17.4826 51.6632C18.092 52.5523 18.4195 53.6111 18.4208 54.6965C18.4269 55.622 18.2048 56.5342 17.7751 57.349C17.3452 58.1639 16.7216 58.8551 15.9615 59.3591C15.2015 59.8631 14.3295 60.1637 13.4258 60.233C12.5221 60.3024 11.6159 60.1384 10.7906 59.7562C9.96531 59.3739 9.24745 58.7856 8.70327 58.0456C8.15901 57.3056 7.80585 56.4376 7.67639 55.5216C7.54686 54.6055 7.6452 53.6709 7.96225 52.8039C8.2793 51.9368 8.80485 51.1652 9.49059 50.5601L10.3748 51.5735C9.87102 52.0338 9.48802 52.6154 9.26075 53.2656C9.03341 53.9157 8.96901 54.6136 9.07344 55.2956C9.17786 55.9777 9.44779 56.6221 9.85853 57.1704C10.2693 57.7186 10.8078 58.1531 11.4252 58.4342C12.0425 58.7154 12.7188 58.8344 13.3927 58.7802C14.0665 58.726 14.7164 58.5005 15.283 58.1241C15.8496 57.7477 16.315 57.2325 16.6367 56.6253C16.9584 56.0183 17.1262 55.3385 17.1248 54.6482C17.126 54.0753 17.006 53.5089 16.773 52.9878C16.5399 52.4666 16.1995 52.003 15.7748 51.6287L15.7748 55.3514L14.4248 55.3514L14.4248 50.2706L18.4478 50.2844ZM7.71534 45.2104C7.71534 44.3923 7.95287 43.5926 8.3979 42.9124C8.84292 42.2322 9.4754 41.702 10.2155 41.3889C10.9555 41.0759 11.7699 40.9939 12.5554 41.1535C13.3411 41.3131 14.0627 41.7071 14.6291 42.2856C15.1956 42.8641 15.5812 43.6011 15.7375 44.4035C15.8938 45.2058 15.8136 46.0375 15.5071 46.7933C15.2005 47.5492 14.6814 48.1952 14.0154 48.6497C13.3494 49.1042 12.5664 49.3468 11.7653 49.3468C11.2301 49.3504 10.6994 49.2457 10.2041 49.0386C9.70868 48.8315 9.25839 48.5261 8.87931 48.1402C8.50016 47.7543 8.19972 47.2954 7.99526 46.7902C7.79087 46.2849 7.68651 45.7433 7.68834 45.1966L7.71534 45.2104ZM14.4653 45.2104C14.4653 44.665 14.307 44.1319 14.0103 43.6784C13.7136 43.2249 13.2919 42.8714 12.7986 42.6628C12.3052 42.454 11.7624 42.3994 11.2386 42.5059C10.7148 42.6122 10.2338 42.8749 9.85617 43.2605C9.47857 43.6462 9.2214 44.1375 9.11724 44.6724C9.01302 45.2074 9.06648 45.7618 9.27087 46.2657C9.4752 46.7696 9.82127 47.2003 10.2653 47.5033C10.7093 47.8063 11.2313 47.968 11.7653 47.968C12.4767 47.9571 13.1552 47.6599 13.6532 47.1409C14.1511 46.622 14.4285 45.9233 14.4248 45.1966L14.4653 45.2104ZM17.1248 47.968L17.1248 42.4529L18.4748 42.4529L18.4748 47.968L17.1248 47.968ZM7.68834 39.6056L7.68834 38.2269L18.4208 38.2269L18.4208 39.6056L7.68834 39.6056ZM7.68834 36.3172L7.68834 34.9385C7.68098 34.8674 7.68098 34.7958 7.68834 34.7247C7.62698 34.1473 7.68543 33.5631 7.85979 33.0103C8.03421 32.4575 8.32061 31.9483 8.70043 31.516C9.08025 31.0837 9.54499 30.738 10.0643 30.5013C10.5837 30.2646 11.146 30.1423 11.7147 30.1423C12.2834 30.1423 12.8457 30.2646 13.3651 30.5013C13.8844 30.738 14.3492 31.0837 14.729 31.516C15.1088 31.9483 15.3952 32.4575 15.5696 33.0103C15.744 33.5631 15.8024 34.1473 15.7411 34.7247L15.7411 34.9385L18.4411 34.9385L18.4411 36.3172L7.68834 36.3172ZM9.03834 34.9385L14.3776 34.9385L14.3776 34.7247C14.4283 34.3353 14.3971 33.9393 14.2858 33.5632C14.1745 33.1871 13.9859 32.8397 13.7325 32.5441C13.4791 32.2485 13.1668 32.0117 12.8164 31.8494C12.4661 31.6871 12.0859 31.6032 11.7012 31.6032C11.3165 31.6032 10.9363 31.6871 10.586 31.8494C10.2357 32.0117 9.92333 32.2485 9.66993 32.5441C9.41647 32.8397 9.22788 33.1871 9.11657 33.5632C9.00533 33.9393 8.97408 34.3353 9.02484 34.7247C9.03246 34.7998 9.04833 34.8739 9.07209 34.9454L9.03834 34.9385ZM8.46459 25.0043L9.25434 26.0246C9.07425 26.2006 8.94708 26.4255 8.88781 26.6728C8.82855 26.92 8.83962 27.1795 8.91974 27.4205C8.99979 27.6617 9.14559 27.8744 9.33999 28.0338C9.53439 28.1931 9.76929 28.2926 10.0171 28.3203L10.1251 28.3203C10.7191 28.3203 11.1173 27.8997 11.1713 27.0794C11.3603 23.9219 12.8116 22.4742 14.7286 22.4742L14.8501 22.4742C15.6088 22.5558 16.3286 22.8581 16.924 23.3454C17.5193 23.8327 17.965 24.4843 18.2082 25.2228C18.4513 25.9614 18.4817 26.7557 18.2956 27.5113C18.1096 28.267 17.7149 28.9522 17.1586 29.4853L16.3621 28.4306C16.6197 28.1851 16.822 27.8853 16.9549 27.5519C17.0877 27.2186 17.1481 26.8598 17.1316 26.5003C17.1659 25.8362 16.9476 25.1844 16.5225 24.6809C16.0974 24.1773 15.4982 23.8609 14.8501 23.7978L14.7556 23.7978C12.9533 23.7978 12.6226 25.6041 12.4741 27.169C12.3391 28.6167 11.4548 29.6577 10.1791 29.6577L10.1251 29.6577C9.46089 29.6067 8.84124 29.2971 8.39412 28.7929C7.94693 28.2888 7.70636 27.6285 7.72209 26.9484C7.71169 26.588 7.77534 26.2294 7.90906 25.8957C8.04278 25.562 8.24352 25.2607 8.49834 25.0112L8.46459 25.0043ZM17.0506 17.0763C17.0506 15.3597 15.2348 14.0016 13.0006 14.0016L7.60059 14.0016L7.60059 12.6228L13.0006 12.6228C15.9706 12.6228 18.3668 14.6082 18.3668 17.0487C18.3668 19.4891 15.9706 21.4746 13.0006 21.4746L7.60059 21.4746L7.60059 20.0958L13.0006 20.0958C15.2686 20.151 17.0843 18.7928 17.0843 17.0831L17.0506 17.0763ZM18.4006 2.04057L18.4006 3.41937L11.7181 3.41936L15.7681 6.59747L11.7181 9.77557L18.4208 9.77557L18.4208 11.1544L7.68834 11.1544L13.5541 6.60436L7.68834 2.05435L18.4006 2.04057Z" fill="#7B7B7B"/>
<path d="M6.07532 81.6036C5.10144 81.6036 4.16745 81.9987 3.47882 82.7021C2.79019 83.4054 2.40332 84.3593 2.40332 85.3539C2.40332 86.3486 2.79019 87.3025 3.47882 88.0058C4.16745 88.7091 5.10144 89.1042 6.07532 89.1042L17.1791 89.1042L19.3458 86.0158L24.6243 86.0158L24.6243 84.6921L19.3458 84.6921L17.1791 81.6036L6.07532 81.6036ZM12.2853 82.9273L14.0133 84.6921L12.3933 84.6921L10.6653 82.9273L12.2853 82.9273ZM10.6653 87.753L12.3933 85.9882L14.0133 85.9882L12.2853 87.753L10.6653 87.753ZM8.82932 82.9273L11.2053 85.3539L8.77532 87.7806L7.15532 87.7806L9.53132 85.3539L7.15532 82.9273L8.82932 82.9273ZM3.69932 85.3539C3.70163 84.8203 3.87518 84.302 4.19337 83.8787C4.51157 83.4554 4.95687 83.1502 5.46107 83.01L7.74932 85.3539L5.46107 87.6979C4.95185 87.5628 4.50051 87.2599 4.17709 86.8361C3.85367 86.4122 3.67623 85.8913 3.67231 85.3539L3.69932 85.3539ZM16.5243 87.7806L14.0943 87.7806L15.8223 86.0158L17.7528 86.0158L16.5243 87.7806ZM17.7596 84.6921L15.8223 84.6921L14.0943 82.9273L16.5176 82.9273L17.7596 84.6921Z" fill="#7B7B7B"/>
</g>
<defs>
<clipPath id="clip0_9092_1917">
<rect width="91" height="27" fill="white" transform="translate(0 91) rotate(-90)"/>
</clipPath>
</defs>
</svg>
