<svg width="24" height="99" viewBox="0 0 24 99" fill="none" xmlns="http://www.w3.org/2000/svg">
<path d="M18.5313 6.54185L8.25132 11.055C7.88662 11.207 7.6055 11.3513 7.40795 11.4881C7.21041 11.6249 7.06605 11.7844 6.97487 11.9668C6.8837 12.1339 6.82291 12.3618 6.79252 12.6506L6.72414 13.1064L6.1543 13.1064C6.16949 12.7721 6.18469 12.3922 6.19988 11.9668C6.21508 11.5261 6.22268 11.093 6.22268 10.6675L6.22268 10.6219L6.22268 10.5308C6.22268 10.0445 6.22268 9.57341 6.22268 9.11754C6.20748 8.66166 6.19988 8.24378 6.19988 7.86389C6.18469 7.46879 6.17709 7.14968 6.17709 6.90655L6.74694 6.90655L6.79252 7.33963C6.85331 7.93227 7.01286 8.28937 7.27119 8.41093C7.52952 8.5325 8.01579 8.45652 8.72999 8.183L15.4086 5.2654L15.6137 5.56172L10.7358 3.69263C9.82409 3.32793 9.09469 3.11518 8.54764 3.0544C7.9854 2.99362 7.56751 3.062 7.29398 3.25955C7.00526 3.4419 6.83051 3.74581 6.76973 4.1713L6.72414 4.42203L6.1543 4.42203C6.16949 4.04213 6.18469 3.65464 6.19988 3.25955C6.21508 2.84926 6.22268 2.45417 6.22268 2.07427C6.22268 1.66398 6.21508 1.29168 6.19988 0.957376C6.18469 0.607871 6.16949 0.288759 6.1543 3.8147e-05L6.72414 3.81538e-05L6.79252 0.273569C6.8685 0.623074 7.02046 0.934582 7.2484 1.20811C7.47633 1.46644 7.84103 1.73237 8.3425 2.00589C8.84396 2.26422 9.55056 2.58333 10.4623 2.96323L18.5313 6.06318L18.5313 6.54185ZM23.318 9.86973C23.318 10.5839 23.1356 11.1614 22.7709 11.6021C22.4214 12.0275 21.958 12.2403 21.3805 12.2403C20.8943 12.2403 20.5068 12.0959 20.218 11.8072C19.9293 11.5185 19.785 11.1386 19.785 10.6675C19.785 10.318 19.8685 10.0445 20.0357 9.84694C20.218 9.64939 20.4536 9.55062 20.7423 9.55062C20.9702 9.55062 21.1754 9.58861 21.3577 9.66459C21.5401 9.74057 21.7072 9.82414 21.8592 9.91532C22.0111 9.9913 22.1631 10.0293 22.3151 10.0293C22.5734 10.0293 22.7026 9.86973 22.7026 9.55062C22.7026 9.14033 22.5582 8.78323 22.2695 8.47931C21.996 8.1602 21.5781 7.89428 21.0158 7.68153L17.8247 6.40509L18.0754 5.88083L21.0614 7.08889C21.5781 7.28644 22.0035 7.51438 22.3379 7.77271C22.6722 8.03104 22.9153 8.33495 23.0673 8.68446C23.2344 9.01877 23.318 9.41386 23.318 9.86973Z" fill="#263C30"/>
<path d="M5.8352 19.3091C5.8352 18.3366 6.08593 17.4932 6.58739 16.779C7.07366 16.0648 7.77267 15.5178 8.68442 15.1379C9.59617 14.7428 10.6827 14.5453 11.9439 14.5453C13.2508 14.5453 14.3753 14.758 15.3174 15.1835C16.2595 15.609 16.9813 16.2244 17.4828 17.0298C17.9843 17.8199 18.235 18.7621 18.235 19.8562C18.235 20.692 18.0602 21.4062 17.7107 21.9988C17.3612 22.5762 16.9661 22.9637 16.5255 23.1613L15.9784 23.0017C16.3735 22.8346 16.7154 22.5307 17.0041 22.09C17.2929 21.6341 17.4372 21.1023 17.4372 20.4944C17.4372 19.4307 16.9737 18.6177 16.0468 18.0555C15.1199 17.478 13.7826 17.1893 12.0351 17.1893C10.3636 17.1893 9.07191 17.4552 8.16016 17.9871C7.23322 18.519 6.76974 19.2788 6.76974 20.2665C6.76974 20.9047 6.95969 21.4745 7.33959 21.976C7.70429 22.4775 8.21335 22.8498 8.86677 23.0929L8.47927 23.2297C7.6739 22.9713 7.03567 22.5003 6.5646 21.8165C6.07833 21.1174 5.8352 20.2817 5.8352 19.3091ZM12.0123 25.3267L2.68966 25.3267C2.05144 25.3267 1.61076 25.4483 1.36763 25.6914C1.1093 25.9193 0.94974 26.3524 0.888957 26.9906L0.84337 27.5149L0.250732 27.5149C0.281123 27.1806 0.303917 26.8919 0.319113 26.6487C0.319113 26.4056 0.319113 26.1473 0.319113 25.8737C0.319113 25.2811 0.296319 24.7341 0.250732 24.2326C0.189948 23.7159 0.106371 23.2525 5.57216e-08 22.8422L0.250732 22.8422L12.0123 22.8422L12.0123 25.3267ZM16.8218 22.8422C16.8826 23.1765 16.9889 23.5184 17.1409 23.8679C17.2777 24.2022 17.4448 24.5137 17.6424 24.8024C17.8247 25.076 18.0299 25.3191 18.2578 25.5318L17.7791 25.9421C17.612 25.775 17.4372 25.6534 17.2549 25.5774C17.0725 25.4863 16.8598 25.4255 16.6166 25.3951C16.3735 25.3495 16.0848 25.3267 15.7505 25.3267L12.0123 25.3267L12.0123 22.8422L17.8703 22.8422L16.8218 22.8422Z" fill="#263C30"/>
<path d="M17.8023 35.3021C17.8023 35.9252 17.8099 36.5026 17.8251 37.0345C17.8403 37.5663 17.8555 38.1286 17.8707 38.7212L17.3009 38.7212L17.2553 38.1286C17.1945 37.5359 17.0426 37.1256 16.7994 36.8977C16.5411 36.6546 16.108 36.533 15.5002 36.533L12.0127 36.533L12.0127 34.0485L15.5002 34.0485C15.9105 34.0485 16.2372 33.9953 16.4803 33.8889C16.7082 33.7825 16.883 33.6002 17.0046 33.3419C17.1109 33.0835 17.1869 32.734 17.2325 32.2934L17.3009 31.4728L17.8707 31.4728C17.8555 31.9135 17.8479 32.3389 17.8479 32.7492C17.8327 33.1595 17.8251 33.5698 17.8251 33.9801C17.8099 34.3904 17.8023 34.8311 17.8023 35.3021ZM12.0127 36.533L8.54808 36.533C7.92505 36.533 7.49197 36.6546 7.24884 36.8977C6.99051 37.1256 6.82336 37.5587 6.74738 38.1969L6.70179 38.7212L6.13195 38.7212C6.14714 38.3869 6.16234 38.0982 6.17753 37.855C6.17753 37.6119 6.17753 37.3536 6.17753 37.08C6.17753 36.4874 6.15474 35.9404 6.10915 35.4389C6.04837 34.9222 5.96479 34.4588 5.85842 34.0485L6.13195 34.0485L12.0127 34.0485L12.0127 36.533ZM9.75615 29.9C9.75615 30.2343 9.65738 30.5078 9.45983 30.7206C9.26229 30.9181 9.01156 31.0169 8.70764 31.0169C8.4949 31.0169 8.31255 30.9789 8.16059 30.9029C7.99343 30.8118 7.83388 30.7282 7.68192 30.6522C7.51477 30.5762 7.35521 30.5382 7.20325 30.5382C6.86894 30.5382 6.70179 30.7662 6.70179 31.222C6.70179 31.5716 6.78537 31.9363 6.95252 32.3162C7.10448 32.696 7.32482 33.0455 7.61354 33.3647C7.88706 33.6686 8.20618 33.9117 8.57088 34.0941L7.95545 34.1396C7.27163 33.7446 6.73978 33.2279 6.35988 32.5897C5.97999 31.9514 5.79004 31.2828 5.79004 30.5838C5.79004 29.9 5.97999 29.3606 6.35988 28.9655C6.73978 28.5552 7.26403 28.35 7.93265 28.35C8.4797 28.35 8.92038 28.4944 9.25469 28.7831C9.589 29.0566 9.75615 29.4289 9.75615 29.9Z" fill="#263C30"/>
<path d="M12.0127 44.8969L8.82161 44.8969C8.00103 44.8969 7.3932 45.1021 6.99811 45.5124C6.60302 45.9075 6.40547 46.5001 6.40547 47.2903C6.40547 47.8677 6.49664 48.354 6.679 48.7491C6.86134 49.1442 7.08168 49.3417 7.34001 49.3417C7.49197 49.3417 7.65913 49.2885 7.84148 49.1822C8.02383 49.0606 8.22137 48.9466 8.43411 48.8403C8.64686 48.7187 8.87479 48.6579 9.11793 48.6579C9.42184 48.6579 9.67257 48.7795 9.87012 49.0226C10.0525 49.2505 10.1436 49.5621 10.1436 49.9572C10.1436 50.3826 10.0145 50.7321 9.75615 51.0057C9.48263 51.264 9.12552 51.3932 8.68484 51.3932C8.1226 51.3932 7.62873 51.188 7.20325 50.7777C6.76257 50.3522 6.42067 49.7824 6.17753 49.0682C5.9192 48.354 5.79004 47.541 5.79004 46.6293C5.79004 45.1401 6.13954 44.0688 6.83855 43.4153C7.53756 42.7467 8.64686 42.4124 10.1664 42.4124L12.0127 42.4124L12.0127 44.8969ZM18.1898 48.5895C18.1898 49.5925 17.9315 50.3902 17.4148 50.9829C16.8982 51.5755 16.1916 51.8718 15.295 51.8718C14.596 51.8718 14.0338 51.7047 13.6083 51.3704C13.1676 51.0361 12.8181 50.603 12.5598 50.0711C12.3015 49.5393 12.0887 48.977 11.9216 48.3844C11.7392 47.7917 11.5721 47.2295 11.4201 46.6976C11.2529 46.1658 11.0554 45.7327 10.8275 45.3984C10.5995 45.0489 10.2956 44.8741 9.91571 44.8741L10.7135 44.8058C11.0174 44.9121 11.2757 45.1325 11.4885 45.4668C11.686 45.7859 11.876 46.1582 12.0583 46.5837C12.2407 47.0092 12.4458 47.427 12.6738 47.8373C12.9017 48.2324 13.198 48.5667 13.5627 48.8403C13.9274 49.0986 14.3985 49.2278 14.9759 49.2278C15.5838 49.2278 16.07 49.0682 16.4347 48.7491C16.7842 48.4148 16.959 47.9437 16.959 47.3359C16.959 46.8344 16.8298 46.3633 16.5715 45.9227C16.298 45.482 15.8953 45.0945 15.3634 44.7602L16.0016 44.7602C16.7462 45.2161 17.3009 45.7631 17.6656 46.4013C18.0151 47.0396 18.1898 47.769 18.1898 48.5895ZM16.298 42.4124C16.6627 42.4124 16.9286 42.3592 17.0957 42.2529C17.2477 42.1313 17.3237 41.9489 17.3237 41.7058C17.3237 41.4627 17.2629 41.2271 17.1413 40.9992C17.0198 40.7561 16.883 40.5281 16.731 40.3154L17.2097 40.0419C17.5136 40.4218 17.7492 40.8169 17.9163 41.2271C18.0987 41.6374 18.1898 42.1161 18.1898 42.6632C18.1898 43.4229 18.0227 43.9852 17.6884 44.3499C17.3389 44.7146 16.8146 44.8969 16.1156 44.8969L12.0127 44.8969L12.0127 42.4124L16.298 42.4124Z" fill="#263C30"/>
<path d="M18.1898 59.5289C18.1898 60.623 17.9391 61.5804 17.4376 62.401C16.9362 63.2063 16.2296 63.837 15.3178 64.2928C14.3909 64.7335 13.2892 64.9539 12.0127 64.9539C10.7363 64.9539 9.63458 64.7259 8.70764 64.27C7.7655 63.8142 7.04369 63.1683 6.54223 62.3326C6.04077 61.4816 5.79004 60.4863 5.79004 59.3466C5.79004 58.3589 5.97999 57.5079 6.35988 56.7937C6.72458 56.0795 7.30202 55.5324 8.09221 55.1525C8.88239 54.7575 9.89291 54.5675 11.1238 54.5827L11.1238 63.2443L10.5539 63.2899L10.5539 57.0444C9.76375 57.014 9.05714 57.0824 8.43411 57.2496C7.79589 57.4167 7.29443 57.6827 6.92973 58.0474C6.54983 58.3969 6.35988 58.8603 6.35988 59.4378C6.35988 60.152 6.70939 60.7826 7.40839 61.3297C8.09221 61.8767 9.17871 62.2034 10.6679 62.3098L10.7363 62.2642C10.9034 62.2794 11.0858 62.2946 11.2833 62.3098C11.4657 62.3098 11.6556 62.3098 11.8532 62.3098C13.5095 62.3098 14.8012 61.9983 15.7281 61.3752C16.6399 60.737 17.0957 59.8329 17.0957 58.6628C17.0957 57.903 16.8982 57.2192 16.5031 56.6113C16.108 55.9883 15.485 55.4869 14.634 55.107L14.9531 54.5827C15.9712 54.9778 16.769 55.6084 17.3465 56.4746C17.9087 57.3255 18.1898 58.3437 18.1898 59.5289Z" fill="#263C30"/>
<path d="M18.1214 80.0046L8.50241 83.8567C8.07692 84.0087 7.75021 84.1606 7.52228 84.3126C7.29434 84.4493 7.12719 84.6165 7.02081 84.814C6.89925 85.0116 6.82327 85.2775 6.79288 85.6118L6.74729 86.1133L6.15465 86.1133C6.16985 85.7942 6.18504 85.4067 6.20024 84.9508C6.21544 84.4797 6.22303 83.9859 6.22303 83.4692L6.22303 83.4464L6.22303 83.3096C6.22303 82.8234 6.22303 82.3447 6.22303 81.8736C6.20784 81.3874 6.20024 80.9467 6.20024 80.5516C6.18504 80.1565 6.17745 79.8222 6.17745 79.5487L6.74729 79.5487L6.79288 80.0729C6.86886 80.696 7.03601 81.0835 7.29434 81.2354C7.55267 81.3874 8.04653 81.3342 8.77593 81.0759L14.8619 78.6825L15.0214 78.9333L6.06348 75.6282L6.45097 75.1267L18.1214 79.4575L18.1214 80.0046ZM18.1214 72.6422L9.18622 76.3348L6.06348 75.6282L6.06348 75.0127L14.953 71.3429L15.4317 71.7304L10.8046 70.1121C9.45215 69.6106 8.47202 69.4587 7.86418 69.6562C7.24115 69.8385 6.87645 70.3096 6.77008 71.0694L6.7245 71.3657L6.15465 71.3429C6.16985 70.9023 6.18504 70.4464 6.20024 69.9753C6.21544 69.489 6.22303 69.0332 6.22303 68.6077C6.22303 68.1214 6.22303 67.6883 6.22303 67.3084C6.20784 66.9285 6.19264 66.579 6.17745 66.2599L6.74729 66.2599L6.79288 66.579C6.88405 66.9741 7.04361 67.316 7.27155 67.6048C7.49948 67.8935 7.87178 68.1746 8.38844 68.4481C8.9051 68.7217 9.6345 69.0332 10.5766 69.3827L18.1214 72.0951L18.1214 72.6422Z" fill="#263C30"/>
<path d="M18.1893 93.0055C18.1893 93.8717 18.0981 94.6011 17.9158 95.1937C17.7486 95.7863 17.5814 96.2802 17.4143 96.6753C17.2471 97.0552 17.1636 97.3743 17.1636 97.6326C17.1636 97.8454 17.2471 98.0125 17.4143 98.1341C17.5663 98.2556 17.8018 98.3468 18.1209 98.4076L18.1209 99.0002C17.7714 98.9699 17.3535 98.9471 16.8672 98.9319C16.381 98.9167 15.7579 98.9091 14.9982 98.9091C14.2232 98.8939 13.2582 98.8863 12.1034 98.8863L12.1034 98.2936C13.8053 98.1721 15.1425 97.6782 16.1151 96.812C17.0876 95.9307 17.5739 94.7834 17.5739 93.3702C17.5739 92.3369 17.2927 91.5087 16.7305 90.8857C16.1682 90.2626 15.4084 89.9511 14.4511 89.9511C13.8737 89.9511 13.3646 90.0879 12.9239 90.3614C12.4832 90.6197 12.0882 91.0376 11.7387 91.6151C11.374 92.1925 11.032 92.9523 10.7129 93.8944C10.3634 95.0037 9.95314 95.9155 9.48207 96.6297C8.99581 97.3287 8.44876 97.853 7.84092 98.2025C7.21789 98.5368 6.51889 98.7039 5.7439 98.7039C4.40666 98.7039 3.35055 98.2632 2.57557 97.3819C1.80058 96.5005 1.41309 95.3153 1.41309 93.8261C1.41309 93.0359 1.49666 92.3825 1.66382 91.8658C1.83097 91.3491 1.99812 90.9161 2.16528 90.5666C2.33243 90.2171 2.41601 89.9131 2.41601 89.6548C2.41601 89.4421 2.34003 89.2749 2.18807 89.1533C2.03611 89.0166 1.80058 88.9178 1.48147 88.857L1.48147 88.2644C1.81578 88.2948 2.18807 88.3176 2.59836 88.3328C3.00865 88.348 3.5329 88.3632 4.17113 88.3784C4.80935 88.3784 5.62233 88.3784 6.61006 88.3784L6.61006 88.9938C5.69831 89.0698 4.90053 89.3129 4.21672 89.7232C3.51771 90.1183 2.97826 90.6425 2.59836 91.296C2.21846 91.9342 2.02852 92.656 2.02852 93.4614C2.02852 94.4187 2.27925 95.1709 2.78071 95.7179C3.28217 96.2498 3.95079 96.5157 4.78656 96.5157C5.31841 96.5157 5.80468 96.379 6.24536 96.1054C6.67084 95.8319 7.06593 95.3912 7.43063 94.7834C7.79533 94.1604 8.16004 93.3398 8.52474 92.3217C8.90463 91.1972 9.33771 90.2854 9.82398 89.5864C10.295 88.8722 10.8345 88.3556 11.4423 88.0365C12.0502 87.7021 12.7492 87.535 13.5394 87.535C14.9678 87.535 16.0999 88.0213 16.9356 88.9938C17.7714 89.9663 18.1893 91.3036 18.1893 93.0055Z" fill="#263C30"/>
</svg>
