<svg width="170" height="174" viewBox="0 0 170 174" fill="none" xmlns="http://www.w3.org/2000/svg">
<g opacity="0.2">
<path d="M190.951 0.380146C190.951 0.380146 171.426 111.683 42.3698 142.549" stroke="#BDA763" stroke-width="0.76" stroke-miterlimit="10" stroke-linecap="round"/>
<path d="M168.279 29.2575C176.136 26.3084 182.45 21.4395 186.537 15.8283C179.778 14.2944 171.812 14.7892 163.954 17.7482C156.096 20.6972 149.783 25.5662 145.696 31.1773C152.455 32.7112 160.421 32.2065 168.279 29.2575Z" stroke="#BDA763" stroke-width="0.76" stroke-miterlimit="10" stroke-linecap="round"/>
<path d="M186.527 15.8382L152.306 28.6934" stroke="#BDA763" stroke-width="0.76" stroke-miterlimit="10" stroke-linecap="round"/>
<path d="M149.962 60.7175C158.225 59.2924 165.35 55.6902 170.407 50.9499C164.054 48.179 156.137 47.1696 147.874 48.5946C139.61 50.0197 132.485 53.6219 127.428 58.3622C133.781 61.1331 141.698 62.1425 149.962 60.7175Z" stroke="#BDA763" stroke-width="0.76" stroke-miterlimit="10" stroke-linecap="round"/>
<path d="M170.407 50.9495L134.385 57.1643" stroke="#BDA763" stroke-width="0.76" stroke-miterlimit="10" stroke-linecap="round"/>
<path d="M174.385 80.6582C173.198 72.3553 169.793 65.141 165.201 59.9455C162.252 66.2197 161.025 74.1069 162.213 82.4098C163.4 90.7127 166.805 97.9271 171.396 103.123C174.345 96.8484 175.573 88.9611 174.385 80.6582Z" stroke="#BDA763" stroke-width="0.76" stroke-miterlimit="10" stroke-linecap="round"/>
<path d="M165.201 59.9454L170.396 96.1357" stroke="#BDA763" stroke-width="0.76" stroke-miterlimit="10" stroke-linecap="round"/>
<path d="M126.676 86.6551C135.059 86.8333 142.738 84.6561 148.606 80.9648C142.896 77.036 135.316 74.5422 126.924 74.3641C118.542 74.1859 110.862 76.373 104.994 80.0544C110.704 83.9832 118.284 86.477 126.676 86.6551Z" stroke="#BDA763" stroke-width="0.76" stroke-miterlimit="10" stroke-linecap="round"/>
<path d="M148.606 80.9648L112.06 80.2028" stroke="#BDA763" stroke-width="0.76" stroke-miterlimit="10" stroke-linecap="round"/>
<path d="M146.854 110.881C147.259 102.499 145.3 94.7698 141.777 88.7925C137.69 94.3938 134.978 101.895 134.572 110.277C134.167 118.659 136.126 126.388 139.649 132.365C143.736 126.764 146.448 119.263 146.854 110.881Z" stroke="#BDA763" stroke-width="0.76" stroke-miterlimit="10" stroke-linecap="round"/>
<path d="M141.776 88.7926L139.995 125.31" stroke="#BDA763" stroke-width="0.76" stroke-miterlimit="10" stroke-linecap="round"/>
<path d="M92.7715 110.95C100.916 112.969 108.882 112.544 115.424 110.238C110.723 105.141 103.875 101.035 95.7404 99.0157C87.5958 96.9969 79.6293 97.4224 73.088 99.7282C77.7886 104.825 84.6368 108.932 92.7715 110.95Z" stroke="#BDA763" stroke-width="0.76" stroke-miterlimit="10" stroke-linecap="round"/>
<path d="M115.414 110.238L79.9362 101.43" stroke="#BDA763" stroke-width="0.76" stroke-miterlimit="10" stroke-linecap="round"/>
<path d="M107.1 139.036C109.347 130.951 109.139 122.984 107.021 116.373C101.796 120.936 97.5011 127.655 95.2547 135.74C93.0083 143.825 93.2161 151.792 95.3339 158.403C100.559 153.84 104.854 147.121 107.1 139.036Z" stroke="#BDA763" stroke-width="0.76" stroke-miterlimit="10" stroke-linecap="round"/>
<path d="M107.021 116.373L97.2243 151.594" stroke="#BDA763" stroke-width="0.76" stroke-miterlimit="10" stroke-linecap="round"/>
<path d="M57.511 126.022C65.0816 129.634 72.9688 130.802 79.8467 129.862C76.2544 123.924 70.376 118.541 62.8054 114.929C55.2348 111.317 47.3475 110.149 40.4697 111.089C44.062 117.027 49.9404 122.41 57.511 126.022Z" stroke="#BDA763" stroke-width="0.76" stroke-miterlimit="10" stroke-linecap="round"/>
<path d="M79.8467 129.862L46.8528 114.127" stroke="#BDA763" stroke-width="0.76" stroke-miterlimit="10" stroke-linecap="round"/>
<path d="M65.9335 156.404C69.7535 148.932 71.1488 141.084 70.3967 134.187C64.36 137.611 58.8083 143.331 54.9884 150.802C51.1684 158.274 49.7731 166.122 50.5252 173.019C56.5618 169.595 62.1136 163.875 65.9335 156.404Z" stroke="#BDA763" stroke-width="0.76" stroke-miterlimit="10" stroke-linecap="round"/>
<path d="M70.3955 134.186L53.7403 166.735" stroke="#BDA763" stroke-width="0.76" stroke-miterlimit="10" stroke-linecap="round"/>
<path d="M23.2712 152.712C31.4949 151.05 38.5113 147.25 43.4297 142.361C36.9972 139.778 29.0605 138.996 20.8367 140.659C12.613 142.321 5.60649 146.122 0.678189 151.01C7.11071 153.593 15.0474 154.375 23.2712 152.712Z" stroke="#BDA763" stroke-width="0.76" stroke-miterlimit="10" stroke-linecap="round"/>
<path d="M43.4297 142.371L7.59562 149.615" stroke="#BDA763" stroke-width="0.76" stroke-miterlimit="10" stroke-linecap="round"/>
</g>
</svg>
