<svg width="184" height="174" viewBox="0 0 184 174" fill="none" xmlns="http://www.w3.org/2000/svg">
<g opacity="0.2">
<path d="M-7.58693 173.255C-7.58693 173.255 11.9382 61.9524 140.994 31.0862" stroke="#BDA763" stroke-width="0.76" stroke-miterlimit="10" stroke-linecap="round"/>
<path d="M15.0856 144.378C7.22806 147.327 0.914275 152.196 -3.17285 157.807C3.58625 159.341 11.5527 158.846 19.4103 155.887C27.2678 152.938 33.5816 148.069 37.6688 142.458C30.9097 140.924 22.9432 141.428 15.0856 144.378Z" stroke="#BDA763" stroke-width="0.76" stroke-miterlimit="10" stroke-linecap="round"/>
<path d="M-3.16309 157.797L31.058 144.942" stroke="#BDA763" stroke-width="0.76" stroke-miterlimit="10" stroke-linecap="round"/>
<path d="M-12.6442 129.365C-9.91286 137.302 -5.22202 143.754 0.260465 147.99C1.9824 141.27 1.70527 133.294 -1.01618 125.367C-3.74753 117.431 -8.4383 110.978 -13.9208 106.743C-15.6427 113.462 -15.3657 121.429 -12.6442 129.365Z" stroke="#BDA763" stroke-width="0.76" stroke-miterlimit="10" stroke-linecap="round"/>
<path d="M0.270239 147.99L-11.625 113.423" stroke="#BDA763" stroke-width="0.76" stroke-miterlimit="10" stroke-linecap="round"/>
<path d="M33.4025 112.918C25.1392 114.343 18.014 117.945 12.957 122.685C19.3104 125.456 27.2273 126.465 35.4906 125.04C43.7539 123.615 50.8792 120.013 55.9362 115.273C49.5828 112.502 41.6659 111.492 33.4025 112.918Z" stroke="#BDA763" stroke-width="0.76" stroke-miterlimit="10" stroke-linecap="round"/>
<path d="M12.957 122.686L48.9791 116.471" stroke="#BDA763" stroke-width="0.76" stroke-miterlimit="10" stroke-linecap="round"/>
<path d="M8.97918 92.9768C10.1667 101.28 13.571 108.494 18.1628 113.69C21.1119 107.415 22.339 99.5281 21.1515 91.2252C19.9639 82.9223 16.5597 75.708 11.9679 70.5125C9.01879 76.7866 7.79164 84.6739 8.97918 92.9768Z" stroke="#BDA763" stroke-width="0.76" stroke-miterlimit="10" stroke-linecap="round"/>
<path d="M18.1633 113.69L12.9678 77.4993" stroke="#BDA763" stroke-width="0.76" stroke-miterlimit="10" stroke-linecap="round"/>
<path d="M56.6878 86.9799C48.3057 86.8017 40.6263 88.9789 34.7578 92.6702C40.4679 96.599 48.0484 99.0928 56.4404 99.2709C64.8225 99.4491 72.5019 97.262 78.3703 93.5806C72.6602 89.6518 65.0798 87.158 56.6878 86.9799Z" stroke="#BDA763" stroke-width="0.76" stroke-miterlimit="10" stroke-linecap="round"/>
<path d="M34.7578 92.6702L71.3044 93.4322" stroke="#BDA763" stroke-width="0.76" stroke-miterlimit="10" stroke-linecap="round"/>
<path d="M36.5107 62.7542C36.105 71.1362 38.0644 78.8652 41.5875 84.8425C45.6746 79.2412 48.3861 71.7399 48.7919 63.3578C49.1976 54.9758 47.2382 47.2468 43.7151 41.2695C39.628 46.8708 36.9165 54.3721 36.5107 62.7542Z" stroke="#BDA763" stroke-width="0.76" stroke-miterlimit="10" stroke-linecap="round"/>
<path d="M41.5879 84.8424L43.3692 48.3254" stroke="#BDA763" stroke-width="0.76" stroke-miterlimit="10" stroke-linecap="round"/>
<path d="M90.5928 62.6845C82.4482 60.6657 74.4818 61.0912 67.9404 63.397C72.6411 68.4936 79.4892 72.6005 87.6239 74.6193C95.7685 76.6381 103.735 76.2126 110.276 73.9068C105.576 68.8103 98.7274 64.7033 90.5928 62.6845Z" stroke="#BDA763" stroke-width="0.76" stroke-miterlimit="10" stroke-linecap="round"/>
<path d="M67.9502 63.3972L103.428 72.2048" stroke="#BDA763" stroke-width="0.76" stroke-miterlimit="10" stroke-linecap="round"/>
<path d="M76.2638 34.5993C74.0174 42.6845 74.2252 50.6509 76.343 57.2616C81.5682 52.6994 85.8631 45.9799 88.1096 37.8947C90.356 29.8095 90.1482 21.8431 88.0304 15.2324C82.8052 19.7946 78.5102 26.5141 76.2638 34.5993Z" stroke="#BDA763" stroke-width="0.76" stroke-miterlimit="10" stroke-linecap="round"/>
<path d="M76.3428 57.2616L86.14 22.041" stroke="#BDA763" stroke-width="0.76" stroke-miterlimit="10" stroke-linecap="round"/>
<path d="M125.853 47.6127C118.283 44.0006 110.395 42.8329 103.518 43.773C107.11 49.7107 112.988 55.0942 120.559 58.7064C128.129 62.3185 136.017 63.4862 142.895 62.5461C139.302 56.6084 133.424 51.2248 125.853 47.6127Z" stroke="#BDA763" stroke-width="0.76" stroke-miterlimit="10" stroke-linecap="round"/>
<path d="M103.518 43.7732L136.512 59.5081" stroke="#BDA763" stroke-width="0.76" stroke-miterlimit="10" stroke-linecap="round"/>
<path d="M117.431 17.2314C113.611 24.7031 112.215 32.5507 112.968 39.4484C119.004 36.0243 124.556 30.3043 128.376 22.8327C132.196 15.3611 133.591 7.51337 132.839 0.615724C126.802 4.03981 121.251 9.7598 117.431 17.2314Z" stroke="#BDA763" stroke-width="0.76" stroke-miterlimit="10" stroke-linecap="round"/>
<path d="M112.969 39.4487L129.624 6.90015" stroke="#BDA763" stroke-width="0.76" stroke-miterlimit="10" stroke-linecap="round"/>
<path d="M160.093 20.9226C151.869 22.5852 144.853 26.3853 139.935 31.2741C146.367 33.857 154.304 34.6388 162.528 32.9762C170.751 31.3137 177.758 27.5135 182.686 22.6248C176.254 20.0419 168.317 19.2601 160.093 20.9226Z" stroke="#BDA763" stroke-width="0.76" stroke-miterlimit="10" stroke-linecap="round"/>
<path d="M139.935 31.264L175.769 24.02" stroke="#BDA763" stroke-width="0.76" stroke-miterlimit="10" stroke-linecap="round"/>
</g>
</svg>
